<svg width="21" height="18" viewBox="0 0 21 18" fill="none" xmlns="http://www.w3.org/2000/svg">
<path fill-rule="evenodd" clip-rule="evenodd" d="M0.000207901 9.00011C0.000207901 9.33163 0.131903 9.64958 0.366323 9.884C0.600744 10.1184 0.918686 10.2501 1.25021 10.2501H15.7327L10.3652 15.6151C10.249 15.7313 10.1568 15.8693 10.0939 16.0212C10.031 16.173 9.99863 16.3358 9.99863 16.5001C9.99863 16.6645 10.031 16.8272 10.0939 16.9791C10.1568 17.1309 10.249 17.2689 10.3652 17.3851C10.4814 17.5013 10.6194 17.5935 10.7712 17.6564C10.9231 17.7193 11.0858 17.7517 11.2502 17.7517C11.4146 17.7517 11.5773 17.7193 11.7292 17.6564C11.881 17.5935 12.019 17.5013 12.1352 17.3851L19.6352 9.88511C19.7516 9.769 19.844 9.63106 19.907 9.4792C19.97 9.32733 20.0024 9.16453 20.0024 9.00011C20.0024 8.8357 19.97 8.67289 19.907 8.52103C19.844 8.36917 19.7516 8.23123 19.6352 8.11511L12.1352 0.615114C11.9005 0.380398 11.5821 0.248535 11.2502 0.248535C10.9183 0.248535 10.5999 0.380398 10.3652 0.615114C10.1305 0.849831 9.99863 1.16818 9.99863 1.50011C9.99863 1.83205 10.1305 2.1504 10.3652 2.38511L15.7327 7.75011H1.25021C0.918686 7.75011 0.600744 7.88181 0.366323 8.11623C0.131903 8.35065 0.000207901 8.66859 0.000207901 9.00011Z" fill="#343434"/>
</svg>
