<svg width="17" height="29" viewBox="0 0 17 29" fill="none" xmlns="http://www.w3.org/2000/svg">
<path fill-rule="evenodd" clip-rule="evenodd" d="M6.29453 2.75711C7.73035 1.32129 9.67775 0.514648 11.7083 0.514648H15.6458C16.2499 0.514648 16.7396 1.00434 16.7396 1.6084V6.8584C16.7396 7.46246 16.2499 7.95215 15.6458 7.95215H11.7083C11.6503 7.95215 11.5947 7.9752 11.5536 8.01622C11.5126 8.05724 11.4896 8.11288 11.4896 8.1709V11.0146H15.6458C15.9826 11.0146 16.3006 11.1698 16.5079 11.4353C16.7152 11.7008 16.7886 12.0469 16.7069 12.3737L15.3944 17.6237C15.2727 18.1106 14.8352 18.4521 14.3333 18.4521H11.4896V27.8584C11.4896 28.4625 10.9999 28.9521 10.3958 28.9521H5.14581C4.54175 28.9521 4.05206 28.4625 4.05206 27.8584V18.4521H1.20831C0.604252 18.4521 0.114563 17.9625 0.114563 17.3584V12.1084C0.114563 11.5043 0.604252 11.0146 1.20831 11.0146H4.05206V8.1709C4.05206 6.14033 4.8587 4.19294 6.29453 2.75711ZM11.7083 2.70215C10.2579 2.70215 8.86691 3.27832 7.84132 4.30391C6.81573 5.3295 6.23956 6.7205 6.23956 8.1709V12.1084C6.23956 12.7125 5.74987 13.2021 5.14581 13.2021H2.30206V16.2646H5.14581C5.74987 16.2646 6.23956 16.7543 6.23956 17.3584V26.7646H9.30206V17.3584C9.30206 16.7543 9.79175 16.2646 10.3958 16.2646H13.4793L14.245 13.2021H10.3958C9.79175 13.2021 9.30206 12.7125 9.30206 12.1084V8.1709C9.30206 7.53272 9.55558 6.92068 10.0068 6.46942C10.4581 6.01816 11.0701 5.76465 11.7083 5.76465H14.5521V2.70215H11.7083Z" fill="#4923B4"/>
</svg>
