<svg width="29" height="29" viewBox="0 0 29 29" fill="none" xmlns="http://www.w3.org/2000/svg">
<path d="M20.3334 7.44178C20.3334 6.63636 20.9863 5.98344 21.7917 5.98344C22.5971 5.98344 23.25 6.63636 23.25 7.44178C23.25 8.24719 22.5971 8.90011 21.7917 8.90011C20.9863 8.90011 20.3334 8.24719 20.3334 7.44178Z" fill="#4923B4"/>
<path fill-rule="evenodd" clip-rule="evenodd" d="M14.5 7.80636C10.6743 7.80636 7.57296 10.9077 7.57296 14.7334C7.57296 18.5592 10.6743 21.6605 14.5 21.6605C18.3258 21.6605 21.4271 18.5592 21.4271 14.7334C21.4271 10.9077 18.3258 7.80636 14.5 7.80636ZM9.76046 14.7334C9.76046 12.1158 11.8824 9.99386 14.5 9.99386C17.1176 9.99386 19.2396 12.1158 19.2396 14.7334C19.2396 17.351 17.1176 19.473 14.5 19.473C11.8824 19.473 9.76046 17.351 9.76046 14.7334Z" fill="#4923B4"/>
<path fill-rule="evenodd" clip-rule="evenodd" d="M22.1683 1.36493C17.1129 0.799908 11.8872 0.799908 6.83179 1.36493C3.89754 1.69287 1.52872 4.00434 1.18375 6.95386C0.579213 12.1226 0.579213 17.3442 1.18375 22.513C1.52872 25.4625 3.89754 27.774 6.83179 28.102C11.8872 28.667 17.1129 28.667 22.1683 28.102C25.1026 27.774 27.4714 25.4625 27.8164 22.513C28.4209 17.3443 28.4209 12.1226 27.8164 6.95386C27.4714 4.00434 25.1026 1.69287 22.1683 1.36493ZM7.07476 3.53889C11.9687 2.99192 17.0314 2.99192 21.9254 3.53889C23.8651 3.75568 25.4189 5.28637 25.6437 7.20798C26.2285 12.2079 26.2285 17.259 25.6437 22.2589C25.4189 24.1805 23.8651 25.7112 21.9254 25.928C17.0314 26.475 11.9687 26.475 7.07476 25.928C5.13502 25.7112 3.58119 24.1805 3.35644 22.2589C2.77165 17.259 2.77165 12.2079 3.35644 7.20798C3.58119 5.28637 5.13502 3.75568 7.07476 3.53889Z" fill="#4923B4"/>
</svg>
