<svg width="31" height="30" viewBox="0 0 31 30" fill="none" xmlns="http://www.w3.org/2000/svg">
<path fill-rule="evenodd" clip-rule="evenodd" d="M4.29167 0.0563965C2.07677 0.0563965 0.28125 1.85192 0.28125 4.06681C0.28125 6.28171 2.07677 8.07723 4.29167 8.07723C6.50656 8.07723 8.30208 6.28171 8.30208 4.06681C8.30208 1.85192 6.50656 0.0563965 4.29167 0.0563965ZM2.46875 4.06681C2.46875 3.06004 3.2849 2.2439 4.29167 2.2439C5.29844 2.2439 6.11458 3.06004 6.11458 4.06681C6.11458 5.07358 5.29844 5.88973 4.29167 5.88973C3.2849 5.88973 2.46875 5.07358 2.46875 4.06681Z" fill="#4923B4"/>
<path fill-rule="evenodd" clip-rule="evenodd" d="M0.28125 9.90015C0.28125 9.29609 0.770939 8.8064 1.375 8.8064H7.20833C7.8124 8.8064 8.30208 9.29609 8.30208 9.90015V28.8585C8.30208 29.4625 7.8124 29.9522 7.20833 29.9522H1.375C0.770939 29.9522 0.28125 29.4625 0.28125 28.8585V9.90015ZM2.46875 10.9939V27.7647H6.11458V10.9939H2.46875Z" fill="#4923B4"/>
<path fill-rule="evenodd" clip-rule="evenodd" d="M10.4896 9.90015C10.4896 9.29609 10.9793 8.8064 11.5833 8.8064H17.4167C18.0207 8.8064 18.5104 9.29609 18.5104 9.90015V10.5331L19.1452 10.2611C20.2365 9.79334 21.4036 9.50005 22.5839 9.39274C26.6307 9.02485 30.1771 12.2049 30.1771 16.288V28.8585C30.1771 29.4625 29.6874 29.9522 29.0833 29.9522H23.25C22.6459 29.9522 22.1563 29.4625 22.1563 28.8585V18.6501C22.1563 18.1667 21.9642 17.703 21.6223 17.3612C21.2805 17.0193 20.8168 16.8272 20.3333 16.8272C19.8499 16.8272 19.3862 17.0193 19.0443 17.3612C18.7025 17.703 18.5104 18.1667 18.5104 18.6501V28.8585C18.5104 29.4625 18.0207 29.9522 17.4167 29.9522H11.5833C10.9793 29.9522 10.4896 29.4625 10.4896 28.8585V9.90015ZM12.6771 10.9939V27.7647H16.3229V18.6501C16.3229 17.5865 16.7454 16.5665 17.4975 15.8144C18.2496 15.0623 19.2697 14.6397 20.3333 14.6397C21.397 14.6397 22.417 15.0623 23.1691 15.8144C23.9212 16.5665 24.3438 17.5865 24.3438 18.6501V27.7647H27.9896V16.288C27.9896 13.5108 25.5673 11.318 22.782 11.5713C21.8282 11.658 20.8852 11.8953 20.0069 12.2717L17.8475 13.1971C17.5096 13.342 17.1215 13.3073 16.8146 13.1049C16.5076 12.9025 16.3229 12.5595 16.3229 12.1918V10.9939H12.6771Z" fill="#4923B4"/>
</svg>
