<svg width="30" height="30" viewBox="0 0 30 30" fill="none" xmlns="http://www.w3.org/2000/svg">
<path fill-rule="evenodd" clip-rule="evenodd" d="M4.23379 11.4272C7.21264 17.9137 12.5135 23.0707 19.1031 25.865L19.1239 25.8738L20.3969 26.4412C22.0179 27.1635 23.9233 26.6505 24.9627 25.212L27.0866 22.2725C27.2163 22.0929 27.1829 21.8432 27.0105 21.7041L23.3026 18.7128C23.1183 18.5641 22.8472 18.5988 22.7062 18.789L21.2631 20.7363C20.9126 21.2093 20.2797 21.3736 19.7434 21.1309C14.8161 18.901 10.8566 14.9415 8.6267 10.0142C8.38402 9.47789 8.54834 8.84497 9.02126 8.4945L10.9686 7.0514C11.1588 6.91039 11.1935 6.63934 11.0448 6.45502L8.05303 2.74661C7.91398 2.57425 7.6644 2.54078 7.48485 2.6704L4.52936 4.80399C3.08138 5.84931 2.57145 7.77072 3.31056 9.39647L4.23279 11.4251C4.23312 11.4258 4.23345 11.4265 4.23379 11.4272ZM18.1165 28.1621C10.9565 25.1228 5.19757 19.5178 1.96082 12.4682L1.95887 12.464L1.0347 10.4311C-0.197129 7.72153 0.652751 4.51919 3.06605 2.777L6.02154 0.643397C7.27841 -0.263947 9.02546 -0.0296062 9.99878 1.17688L12.9905 4.88529C14.0315 6.17557 13.789 8.0729 12.4571 9.05997L11.3412 9.88689C13.2261 13.5442 16.2134 16.5315 19.8707 18.4164L20.6976 17.3005C21.6847 15.9686 23.582 15.7261 24.8723 16.7671L28.5802 19.7584C29.7871 20.732 30.0211 22.4797 29.113 23.7366L26.9891 26.6762C25.2568 29.0736 22.0812 29.9286 19.3795 28.7248L18.1165 28.1621Z" fill="white"/>
</svg>
