<svg width="35" height="31" viewBox="0 0 35 31" fill="none" xmlns="http://www.w3.org/2000/svg">
<path fill-rule="evenodd" clip-rule="evenodd" d="M8.14599 18.366C8.21894 18.3905 8.29258 18.408 8.36614 18.4187C8.44637 18.6072 8.55003 18.8511 8.67096 19.1363C8.96608 19.8324 9.36373 20.7737 9.77419 21.7558C10.6113 23.7587 11.4556 25.8232 11.6421 26.4141C11.873 27.1447 12.117 27.6414 12.3834 27.9804C12.5211 28.1557 12.6804 28.3089 12.8668 28.4248C12.9606 28.4831 13.0598 28.531 13.1632 28.5667C13.1678 28.5682 13.1723 28.5698 13.1769 28.5713C13.7103 28.7727 14.1965 28.6887 14.501 28.5862C14.6639 28.5314 14.7957 28.4651 14.8891 28.4114C14.9367 28.384 14.977 28.3584 15.0091 28.3369L15.0166 28.3317L19.727 25.3943L25.1678 29.5656C25.2482 29.6272 25.3357 29.6788 25.4285 29.7193C26.0821 30.0045 26.7151 30.104 27.3105 30.0227C27.9049 29.9415 28.3768 29.6917 28.7281 29.4107C29.0722 29.1354 29.3054 28.8272 29.4506 28.5981C29.5248 28.4811 29.5805 28.3777 29.6197 28.2985C29.6395 28.2586 29.6553 28.2243 29.6676 28.1967L29.6833 28.1604L29.6892 28.1462L29.6917 28.1401L29.6928 28.1373L29.6939 28.1347C29.7225 28.0632 29.7444 27.9892 29.7594 27.9137L34.7264 2.87119C34.7423 2.7911 34.7503 2.70965 34.7503 2.628C34.7503 1.89464 34.474 1.19731 33.8242 0.774151C33.2689 0.412489 32.6503 0.396922 32.2594 0.426597C31.8376 0.458607 31.4481 0.56272 31.1867 0.645913C31.0507 0.689209 30.9367 0.730982 30.8544 0.762851C30.8131 0.778867 30.7792 0.792609 30.754 0.803089L30.7351 0.811067L2.87885 11.7386L2.87524 11.7399C2.85748 11.7464 2.8347 11.7549 2.80761 11.7654C2.75367 11.7864 2.6814 11.816 2.59698 11.8543C2.43234 11.9289 2.20137 12.0455 1.96436 12.2078C1.58571 12.4671 0.714893 13.1773 0.861528 14.3495C0.978509 15.2846 1.61914 15.8589 2.00946 16.1351C2.22378 16.2867 2.42739 16.3952 2.57567 16.4658C2.64446 16.4985 2.78729 16.5565 2.84926 16.5817L2.8649 16.5881L8.14599 18.366ZM31.7099 3.11307L31.706 3.11476C31.6922 3.12079 31.6782 3.12656 31.6641 3.13209L3.77409 14.0729C3.75953 14.0786 3.74486 14.0841 3.73009 14.0892L3.71457 14.0951C3.69673 14.1021 3.66669 14.1143 3.62898 14.1314C3.60761 14.141 3.5853 14.1516 3.56255 14.163C3.5938 14.1806 3.62371 14.1959 3.65029 14.2085C3.6758 14.2207 3.69527 14.229 3.70592 14.2333L8.94364 15.9967C9.03951 16.0289 9.12888 16.0717 9.21091 16.1232L26.5055 5.99909L26.5217 5.98952C26.5343 5.98208 26.5509 5.97251 26.5707 5.9613C26.6101 5.93905 26.6641 5.90942 26.7285 5.87668C26.8485 5.81559 27.0405 5.72491 27.2569 5.65804C27.4075 5.61149 27.8516 5.48034 28.3318 5.63435C28.6281 5.7294 28.935 5.93375 29.1345 6.27993C29.2337 6.45191 29.2865 6.62468 29.3121 6.78283C29.38 7.03196 29.3693 7.27797 29.3161 7.49036C29.2015 7.94787 28.8801 8.30475 28.5875 8.57771C28.337 8.81173 25.0947 11.9382 21.8961 15.0244C20.301 16.5635 18.7222 18.0874 17.5421 19.2265L16.767 19.9748L26.5536 27.4778C26.778 27.5582 26.9107 27.5541 26.9721 27.5457C27.0453 27.5357 27.1051 27.5075 27.1663 27.4586C27.2346 27.4039 27.2945 27.33 27.3392 27.2595L27.341 27.2566L32.1584 2.96832C32.0869 2.98551 32.0147 3.00597 31.945 3.02815C31.8661 3.05327 31.801 3.07719 31.7578 3.09391C31.7365 3.10219 31.7211 3.10847 31.7128 3.11194L31.7099 3.11307ZM17.6078 23.7696L15.6553 22.2727L15.1822 25.2822L17.6078 23.7696ZM13.8642 19.3023L15.8058 17.4278C16.986 16.2886 18.5649 14.7646 20.1602 13.2254L21.781 11.6616L10.9143 18.0229L10.9726 18.1604C11.2688 18.8589 11.6682 19.8045 12.0808 20.7918C12.3894 21.53 12.712 22.3074 13.0059 23.027L13.4776 20.0264C13.5231 19.737 13.6644 19.4866 13.8642 19.3023Z" fill="white"/>
</svg>
