<svg width="27" height="29" viewBox="0 0 27 29" fill="none" xmlns="http://www.w3.org/2000/svg">
<path fill-rule="evenodd" clip-rule="evenodd" d="M6.41665 7.49996C6.41665 3.58794 9.58796 0.416626 13.5 0.416626C17.412 0.416626 20.5833 3.58794 20.5833 7.49996C20.5833 11.412 17.412 14.5833 13.5 14.5833C9.58796 14.5833 6.41665 11.412 6.41665 7.49996ZM13.5 2.91663C10.9687 2.91663 8.91665 4.96865 8.91665 7.49996C8.91665 10.0313 10.9687 12.0833 13.5 12.0833C16.0313 12.0833 18.0833 10.0313 18.0833 7.49996C18.0833 4.96865 16.0313 2.91663 13.5 2.91663Z" fill="white"/>
<path fill-rule="evenodd" clip-rule="evenodd" d="M6.83331 19.5833C4.76225 19.5833 3.08331 21.2622 3.08331 23.3333V25.3138C3.08331 25.3439 3.10517 25.3696 3.13493 25.3745C9.99952 26.4952 17.0004 26.4952 23.865 25.3745C23.8948 25.3696 23.9166 25.3439 23.9166 25.3138V23.3333C23.9166 21.2622 22.2377 19.5833 20.1666 19.5833H19.5985C19.5546 19.5833 19.511 19.5902 19.4692 19.6039L18.0267 20.0749C15.0853 21.0354 11.9147 21.0354 8.97329 20.0749L7.53076 19.6039C7.48901 19.5902 7.44535 19.5833 7.40143 19.5833H6.83331ZM0.583313 23.3333C0.583313 19.8815 3.38153 17.0833 6.83331 17.0833H7.40143C7.70892 17.0833 8.01447 17.1319 8.30677 17.2274L9.74929 17.6984C12.1864 18.4942 14.8135 18.4942 17.2507 17.6984L18.6932 17.2274C18.9855 17.1319 19.291 17.0833 19.5985 17.0833H20.1666C23.6184 17.0833 26.4166 19.8815 26.4166 23.3333V25.3138C26.4166 26.5691 25.5068 27.6395 24.2679 27.8418C17.1365 29.0061 9.86348 29.0061 2.7321 27.8418C1.49312 27.6395 0.583313 26.5691 0.583313 25.3138V23.3333Z" fill="white"/>
</svg>
