<svg width="31" height="23" viewBox="0 0 31 23" fill="none" xmlns="http://www.w3.org/2000/svg">
<path fill-rule="evenodd" clip-rule="evenodd" d="M13.146 6.42046C12.8081 6.21772 12.3873 6.21241 12.0444 6.40656C11.7015 6.60071 11.4896 6.96429 11.4896 7.35834V16.1083C11.4896 16.5024 11.7015 16.866 12.0444 17.0601C12.3873 17.2543 12.8081 17.249 13.146 17.0462L20.4377 12.6712C20.7671 12.4736 20.9687 12.1175 20.9687 11.7333C20.9687 11.3491 20.7671 10.9931 20.4377 10.7955L13.146 6.42046ZM17.7491 11.7333L13.6771 14.1766V9.29011L17.7491 11.7333Z" fill="#4923B4"/>
<path fill-rule="evenodd" clip-rule="evenodd" d="M22.8364 1.00188C17.9529 0.619818 13.0471 0.619817 8.16366 1.00188L4.89597 1.25752C2.90889 1.41298 1.28331 2.90224 0.95484 4.86814C0.195392 9.41343 0.195392 14.0532 0.95484 18.5985C1.28331 20.5644 2.90889 22.0537 4.89597 22.2092L8.16366 22.4648C13.0471 22.8469 17.9529 22.8469 22.8364 22.4648L26.1041 22.2092C28.0911 22.0537 29.7167 20.5644 30.0452 18.5985C30.8046 14.0532 30.8046 9.41343 30.0452 4.86814C29.7167 2.90224 28.0911 1.41298 26.1041 1.25752L22.8364 1.00188ZM8.33428 3.18271C13.1042 2.80954 17.8959 2.80954 22.6658 3.18271L25.9334 3.43836C26.9187 3.51544 27.7247 4.25387 27.8876 5.22864C28.6072 9.53525 28.6072 13.9314 27.8876 18.238C27.7247 19.2128 26.9187 19.9512 25.9334 20.0283L22.6658 20.284C17.8959 20.6571 13.1041 20.6571 8.33428 20.284L5.06659 20.0283C4.08132 19.9512 3.2753 19.2128 3.11243 18.238C2.39286 13.9314 2.39286 9.53525 3.11243 5.22864C3.2753 4.25387 4.08132 3.51544 5.06659 3.43836L8.33428 3.18271Z" fill="#4923B4"/>
</svg>
