<svg width="120" height="313" viewBox="0 0 120 313" fill="none" xmlns="http://www.w3.org/2000/svg">
<path d="M18.3201 228.058C21.3166 218.082 41.5096 224.687 38.7514 234.97C37.7639 241.474 29.3189 239.193 29.3189 239.193L24.7219 238.512C24.6878 238.512 17.0261 233.098 18.3201 228.058Z" fill="#BDB497"/>
<path d="M61.1237 187.709C60.034 193.872 51.4869 207.662 43.3485 221.725C42.395 228.263 39.2622 230.476 38.1385 234.289C36.504 243.483 19.4438 238.375 18.5585 230.476C18.218 226.049 24.2111 220.738 27.1737 211.578C29.5233 206.266 26.9694 186.109 28.5698 176.166C28.8082 170.991 61.0556 185.7 61.1237 187.709Z" fill="#F0C6B4"/>
<path d="M65.1759 235.447C70.3859 226.356 89.4892 237.933 85.2667 244.403C82.3042 249.135 75.8342 249.612 75.8342 249.612L67.9001 245.969C67.9001 245.969 64.3587 237.456 65.1759 235.447Z" fill="#BDB497"/>
<path d="M60.7491 177.12C62.4858 193.293 71.8502 225.164 71.5096 228.263C71.1691 231.327 67.151 234.29 65.8229 238.92C67.4234 248.318 81.5891 249.782 83.4279 245.526C83.9387 244.777 90.6811 234.903 90.0681 229.046C89.4552 223.189 94.5289 187.777 94.5289 166.224C94.5289 161.968 73.9614 167.654 73.9614 167.654C73.9614 167.654 61.1237 173.51 60.7491 177.12Z" fill="#F0C6B4"/>
<path d="M91.8728 79.6005C91.8728 79.6005 102.395 84.5718 103.553 85.2528C100.965 93.1524 95.7548 115.728 89.2508 125.33C89.4551 127.032 89.8297 150.901 92.3155 150.561C101.033 145.726 96.5039 125.84 96.5039 125.84C96.5039 125.84 121.022 92.9481 119.966 82.0861C119.728 77.1148 91.328 57.1275 91.328 57.1275C91.328 57.1275 84.79 47.6276 75.2213 44.9036C73.8251 44.8014 70.3177 51.8157 70.3177 51.8157L81.3847 75.2421L91.8728 79.6005Z" fill="#F0C6B4"/>
<path d="M44.5742 44.8694C44.404 50.2152 41.6458 54.4034 41.6458 54.4034L42.9057 59.4087L49.7161 66.3209L60.749 68.7044L69.5345 67.5467L70.9987 56.855L66.1293 45.959L57.6162 38.502L48.2178 37.2762L44.1656 38.1615C44.1316 38.1615 44.3699 43.4052 44.5742 44.8694Z" fill="#C2A091"/>
<path d="M68.1385 51.4411C68.1385 51.4411 67.2872 63.4607 65.3803 65.4697C64.3247 66.5933 51.9637 66.8657 41.5778 53.7565C36.4359 62.95 28.0591 69.5557 28.0591 69.5557L31.0897 101.665C31.0897 101.665 41.9524 123.695 41.9524 129.143C41.9524 142.593 27.1056 147.088 27.1056 179.231C27.6845 183.487 32.5539 189.786 50.0568 189.786C67.5256 189.786 92.8263 169.458 94.4608 166.53C94.2225 140.72 86.6629 129.211 88.2974 99.4516C90.3065 97.715 96.0273 94.0376 94.9716 85.1846C94.7673 83.1757 93.5415 79.7707 91.2259 76.0252C85.7775 67.1381 76.5153 54.9823 73.4166 47.7637L68.1385 51.4411Z" fill="#1D374E"/>
<path d="M84.9943 98.2939C93.8139 88.7939 84.3133 65.3676 84.3133 65.3676C84.3133 65.3676 96.2656 80.2815 95.1419 88.862C94.8354 95.6039 88.3315 99.4175 88.3315 99.4175V112.867L85.6754 117.158L80.193 120.494L76.311 105.138L81.3848 99.4175C81.3508 99.4175 83.3939 98.4641 84.9943 98.2939Z" fill="#F5F5F5"/>
<path d="M38.9217 72.0754C44.7787 86.5466 69.3303 84.5377 71.3394 105.615C71.3394 107.215 76.311 114.638 76.311 114.638L74.7106 125.806L67.2531 126.828C67.2531 126.828 63.5074 126.555 63.1328 125.704C61.9751 124.751 59.4211 116.647 59.2849 110.858C57.3099 92.1989 40.8968 93.629 37.1851 88.7939C34.8695 88.8961 34.1544 80.4857 34.1544 80.4857C34.1544 80.4857 36.8445 69.5216 38.9217 72.0754Z" fill="#F5F5F5"/>
<path d="M80.1589 25.0184C79.546 37.0039 75.1873 50.9985 74.7446 52.3264C74.0636 54.2673 69.9092 56.2422 67.4234 56.2081C65.7548 56.2081 55.3689 52.1221 52.3042 46.2996C51.7593 44.8695 50.6697 43.3032 50.4313 40.7494C44.9148 40.7154 46.1407 34.1097 46.1407 34.1097L49.8184 22.3625L59.2508 15.2801L71.5437 12.6923L78.5244 19.298C78.5244 19.2639 80.1589 21.6134 80.1589 25.0184Z" fill="#F0C6B4"/>
<path d="M44.5744 44.8695C49.3757 32.3391 57.991 37.2423 55.9819 29.1044C57.991 31.59 60.2044 31.4198 63.4053 29.6492C58.8082 28.2191 61.0557 25.6313 61.0557 25.6313C61.0557 25.6313 66.6062 31.0452 72.9739 29.0703C70.0114 28.0148 70.2838 25.0865 70.8967 24.3714C73.3826 25.8015 79.4098 25.9037 81.3508 24.4736C79.546 19.5704 80.9081 14.2245 77.3326 9.83208C71.6799 2.85184 54.9944 -4.87751 45.9024 6.93783C27.4121 12.9987 43.9274 44.0523 44.5744 44.8695Z" fill="#FF8400"/>
<path d="M46.8899 7.9253C48.1839 6.63132 56.7991 17.494 56.7991 17.494C56.7991 17.494 45.5959 9.21928 46.8899 7.9253Z" fill="#BA6000"/>
<path d="M40.5902 123.389C42.5312 124.478 62.8263 134.148 88.3314 112.901C88.5698 115.966 90.7151 125.67 89.7616 128.734C60.7151 150.458 39.7729 137.281 39.7729 137.281C39.7729 137.281 43.2803 131.05 40.5902 123.389Z" fill="#F5F5F5"/>
<path d="M59.2508 139.562C57.6163 166.258 44.8126 189.446 44.8126 189.446C44.8126 189.446 52.9511 191.284 63.0987 186.926C63.7116 183.351 71.0669 166.734 72.7695 138.132C72.3949 134.864 58.774 137.69 59.2508 139.562Z" fill="#F5F5F5"/>
<path d="M53.8025 63.6651C61.7707 79.941 78.286 93.5269 71.3734 106.296C67.0828 114.91 69.807 123.763 69.807 123.763L72.8036 182.397C72.8036 182.397 81.3167 179.197 86.8672 173.272C86.7991 172.455 81.3848 118.043 81.3848 118.043C81.3848 118.043 79.3757 109.462 83.8025 101.665C89.7616 89.8836 76.5494 80.8944 67.4574 56.2081C67.4234 57.2637 67.6958 61.9966 64.0522 64.0056C59.2508 66.1507 54.5176 64.0396 53.8025 63.6651Z" fill="#F5F5F5"/>
<path d="M61.6005 141.061C59.2849 167.926 47.0261 189.752 47.0261 189.752C47.0261 189.752 53.6322 190.74 61.1578 187.709C61.294 187.164 69.7049 161.525 71.5437 142.286C71.5437 141.333 71.5778 139.426 71.5437 138.916C66.0954 140.618 61.6005 141.061 61.6005 141.061Z" fill="#E31B25"/>
<path d="M37.6617 75.5146C41.748 81.9841 59.8978 87.5683 66.1634 96.2169C69.3303 99.7581 70.9307 112.152 70.9307 112.152C70.9307 112.152 69.6027 118.383 70.8286 123.389C70.8286 123.389 67.4574 125.091 64.8354 125.296C58.5357 111.437 64.4608 105.581 54.3813 95.6721C49.1373 90.2582 38.2065 88.7259 37.9682 86.1041C37.7979 83.5163 36.8785 73.3013 37.6617 75.5146Z" fill="#E31B25"/>
<path d="M83.4279 148.415C83.4279 148.415 89.7957 156.792 94.4949 166.258C94.9376 153.693 91.0897 136.634 91.0897 136.634C91.0897 136.634 88.6379 131.799 85.6413 129.892C84.9943 130.097 78.4222 132.003 78.4222 132.003L83.4279 148.415Z" fill="#F5F5F5"/>
<path d="M74.7446 105.819C71.4756 112.901 72.8037 123.661 72.8037 123.661C72.8037 123.661 76.5154 180.729 76.7878 180.593C78.9331 179.503 81.6232 177.903 84.143 175.826C85.0965 175.042 79.7163 119.166 79.7163 119.166C79.7163 119.166 79.546 108.475 81.7253 102.584C87.6845 90.8028 72.0545 79.0215 66.9467 60.26C66.504 61.6901 65.6527 63.1202 64.0182 64.0055C62.2475 64.7887 60.4768 64.993 58.9444 64.9249C56.2883 64.8227 81.6913 93.0501 74.7446 105.819Z" fill="#E31B25"/>
<path opacity="0.5" d="M48.1838 101.563C51.2485 123.765 88.3314 99.4176 88.3314 99.4176C88.3314 99.4176 55.2667 117.397 48.1838 101.563Z" fill="#0D0D0D"/>
<path d="M41.2713 126.011C41.5777 126.147 62.4517 136.532 88.706 115.864C88.8082 116.238 90.1362 121.55 90 126.011C62.7242 148.245 40.6924 135.068 40.6924 135.068C40.6924 135.068 42.0885 130.744 41.2713 126.011Z" fill="#E31B25"/>
<path d="M35.2099 69.4535C19.1714 65.3334 16.6856 89.1684 16.6856 89.1684C16.6856 89.1684 -0.476745 127.066 -1.45203e-05 132.242C2.51985 142.899 18.899 145.01 32.3496 153.965C35.4143 155.736 39.9091 161.593 42.9738 163.329C46.0385 165.066 49.9205 165.781 52.6447 165.202C55.3688 164.623 60.7831 160.503 60.1361 157.677C59.4892 154.885 51.7593 151.139 51.7593 151.139C51.7593 151.139 50.7718 146.543 48.8649 145.249C46.992 143.955 40.0454 145.623 37.1509 145.01C29.1487 141.571 22.5425 133.91 15.3235 127.781C23.7003 116.681 38.9557 86.7508 38.9557 86.7508C38.9557 86.7508 44.7446 72.8585 35.2099 69.4535Z" fill="#F0C6B4"/>
<path d="M82.8491 133.978C82.8491 133.978 83.9728 146.134 84.1431 147.496C88.9785 151.752 94.529 162.001 94.529 162.001C94.529 162.001 93.9842 146.338 91.7027 139.63C89.4552 135.17 85.8117 131.526 85.8117 131.526L82.8491 133.978Z" fill="#E31B25"/>
<path d="M81.3848 118.417C81.3508 110.075 82.6447 103.231 83.9728 101.563C97.2191 89.8155 88.0591 70.4751 88.0591 70.4751C88.0591 70.4751 96.2316 80.2474 95.4824 89.4409C95.5846 95.3656 88.2974 99.4516 88.2974 99.4516C88.2974 99.4516 88.6039 107.726 88.3655 113.616C87.8547 114.059 85.3689 116.443 81.3848 118.417Z" fill="#E31B25"/>
<path d="M85.2668 244.402C85.2668 244.402 67.4234 248.182 65.176 235.447C61.5324 245.015 62.1113 275.83 61.6345 280.087C61.1578 284.343 57.2418 292.992 59.0125 295.818C60.7832 298.644 67.2872 299.563 70.386 300.857C73.4507 302.151 80.6357 311.038 88.0931 312.536C95.5506 314.069 97.2872 308.825 96.5381 306.544C95.21 302.389 80.0227 293.4 77.6391 287.373C72.7356 270.621 85.2668 244.402 85.2668 244.402Z" fill="#E0D7B4"/>
<path d="M18.3201 228.058C18.3201 228.058 20.6356 238.614 38.7514 234.971C37.1509 246.582 36.5039 281.994 37.6958 284.684C38.8876 287.373 46.1407 303.105 44.5403 306.748C42.9398 310.425 32.4858 312.809 27.0715 300.959C23.9727 294.183 24.8581 280.427 24.9602 278.827C25.0284 265.786 16.1407 241.066 18.3201 228.058Z" fill="#E0D7B4"/>
<path d="M26.5607 150.561C30.6469 149.506 32.2474 145.181 31.8387 142.048C31.8728 141.197 33.7116 142.355 33.8478 143.342C34.6991 147.326 30.068 151.617 28.6719 151.753C27.2758 151.855 25.8456 150.936 26.5607 150.561Z" fill="#F5F5F5"/>
<path d="M24.4835 149.335C28.6379 148.246 30.2383 143.887 29.8637 140.686C29.8978 139.801 31.7366 140.993 31.9069 141.98C32.7922 146.032 28.9784 150.119 26.6628 150.527C25.2326 150.664 23.7684 149.71 24.4835 149.335Z" fill="#E31B25"/>
<path d="M22.168 148.178C26.5266 147.02 28.2293 142.423 27.8206 139.086C27.8887 138.167 29.7957 139.392 29.9659 140.448C30.8853 144.705 27.5823 148.893 24.4495 149.404C22.9512 149.54 21.4188 148.552 22.168 148.178Z" fill="#1D374E"/>
<path d="M98.6492 122.606C97.6617 119.78 94.4948 118.894 92.2814 119.337C91.6685 119.371 92.4177 117.702 93.0987 117.532C95.891 116.681 99.2962 118.758 99.7729 121.108C99.9772 122.129 98.9557 123.117 98.6492 122.606Z" fill="#F5F5F5"/>
<path d="M97.6617 124.206C96.7082 121.448 93.6435 120.597 91.4982 121.073C90.8853 121.073 91.6344 119.473 92.2814 119.337C94.9716 118.519 98.2746 120.529 98.7514 122.776C98.9216 123.695 97.9341 124.683 97.6617 124.206Z" fill="#E31B25"/>
<path d="M96.9467 125.364C95.9932 122.674 92.9966 121.823 90.8854 122.265C90.3065 122.265 90.9875 121.005 91.6345 120.835C94.2906 120.018 97.0829 121.891 97.5937 123.866C97.798 124.785 97.2531 125.841 96.9467 125.364Z" fill="#1D374E"/>
</svg>
