<svg width="90" height="318" viewBox="0 0 90 318" fill="none" xmlns="http://www.w3.org/2000/svg">
<path d="M27.596 79.3462L26.6424 85.5223L28.6391 91.4905L36.5066 95.3803L46.7284 101.349L50.096 99.2404L48.9039 88.5213L44.702 78.2476H33.7947L27.596 79.3462Z" fill="#C2A091"/>
<path d="M71.4338 168.127C71.4338 168.127 78.8246 168.929 80.7914 169.375C82.7583 169.79 84.308 172.284 83.6822 173.146C83.0563 174.007 78.5563 172.641 78.4073 173.146C78.2285 178.015 89.553 178.371 89.1954 180.42C88.8378 182.469 82.9669 185.735 76.5895 184.191C71.0762 182.974 62.553 174.808 62.553 174.808L65.8908 169.137L71.4338 168.127Z" fill="#F0C6B4"/>
<path d="M70.8378 159.814C70.8378 159.814 71.255 167.059 71.4338 168.128C70.3907 172.7 61.4504 172.195 61.4504 172.195L60.3775 162.308L70.8378 159.814Z" fill="#0D0D0D"/>
<path d="M54.5066 85.9677C66.8742 85.6114 67.351 98.4684 67.351 98.4684C67.351 98.4684 70.8676 109.93 69.3179 133.06C70.51 142.651 70.6888 155.924 70.8676 159.814C71.0464 163.703 62.9702 164.475 62.5828 161.892C62.1954 159.309 51.7351 86.1162 54.5066 85.9677Z" fill="#9C251F"/>
<path d="M82.6987 140.81L84.0397 140.038L83.5033 133.684C83.5033 133.684 78.0795 130.358 77.1258 122.252C76.8278 118.541 71.3444 47.7531 71.3444 47.7531L68.0662 45.9716L69.7947 126.172L73.7881 128.339L77.0662 174.274L86.9007 183.122L90 181.341L82.6987 140.81Z" fill="#3C2415"/>
<path d="M86.9007 183.152L79.3311 140.929L80.9404 141.82L80.404 135.466C80.404 135.466 74.9801 132.14 74.0265 124.034C73.7285 120.322 68.245 49.5347 68.245 49.5347L64.9669 47.7532L66.6954 127.953L70.6887 130.121L73.9669 176.056L86.9007 183.152Z" fill="#603913"/>
<path d="M70.9868 134.426L67.6192 132.585L67.5298 128.428L70.6888 130.151L70.9868 134.426Z" fill="#16A89F"/>
<path d="M72.8046 53.7808L71.1954 54.6419L71.1656 50.3068L72.7748 49.4457L72.8046 53.7808Z" fill="#7A4100"/>
<path d="M71.1954 54.6418L69.1391 53.5135L69.1093 49.1783L71.1656 50.3067L71.1954 54.6418Z" fill="#B56100"/>
<path d="M75.3378 47.7234L68.0662 43.7743L64.9371 45.5262L72.2384 51.732L75.3974 49.9801L75.3378 47.7234Z" fill="#0A8074"/>
<path d="M69.6755 36.4402L67.947 35.49L66.1589 36.6183L68.0662 46.5357L69.8841 45.4074L69.6755 36.4402Z" fill="#0A8074"/>
<path d="M72.8046 47.1296L71.1954 47.9907L71.1656 43.6555L72.7748 42.7944L72.8046 47.1296Z" fill="#7A4100"/>
<path d="M72.7748 42.0818C72.7748 42.0818 71.255 8.32111 69.1093 0.808838C69.1689 3.54057 70.6887 40.9535 70.6887 40.9535L70.3907 40.7753L68.7815 41.6364L72.6854 44.4572L74.2947 43.5961V42.8835L72.7748 42.0818Z" fill="#0A8074"/>
<path d="M71.1954 47.9906L69.1391 46.8622L69.1093 42.5271L71.1656 43.6554L71.1954 47.9906Z" fill="#B56100"/>
<path d="M71.1656 42.9726C71.1656 42.9726 71.255 8.3508 69.1093 0.808838C69.1689 3.54057 69.1093 41.8145 69.1093 41.8145L68.8113 41.6364V42.349L72.6854 44.4572V43.7446L71.1656 42.9726Z" fill="#16A89F"/>
<path d="M72.1788 49.5051L64.9371 45.5262L64.9669 47.7532L72.2384 51.732L72.1788 49.5051Z" fill="#16A89F"/>
<path d="M67.8874 37.5685L66.1589 36.6183L66.3377 45.5855L68.0662 46.5357L67.8874 37.5685Z" fill="#16A89F"/>
<path d="M78.8841 128.221L75.7848 130.002C76.351 128.607 77.1855 123.529 76.0232 121.926C75.6656 121.421 74.6523 120.441 73.7583 120.471L76.8278 118.719C78.0497 118.659 78.9735 119.045 79.5398 119.847C81.298 122.223 78.9735 128.013 78.8841 128.221Z" fill="#0A8074"/>
<path d="M75.7848 130.002L75.1888 128.696C75.755 127.3 76.798 123.796 75.6358 122.193C75.2782 121.688 74.6821 121.451 73.8179 121.51L73.7583 120.471C74.9802 120.411 75.904 120.797 76.4702 121.599C78.1987 123.975 75.8742 129.765 75.7848 130.002Z" fill="#16A89F"/>
<path d="M48.904 285.503C53.2848 289.512 66.606 293.817 67.5596 295.005C68.5132 296.193 69.1987 300.736 68.5132 301.508C64.1324 303.824 43.9272 296.638 43.9272 296.638C43.9272 296.638 31.798 297.737 30.606 296.044C29.4139 294.322 30.606 285.503 30.606 285.503C30.606 285.503 47.7119 284.137 48.904 285.503Z" fill="#0D0D0D"/>
<path d="M67.2318 193.129C66.0398 200.611 64.9967 207.916 55.8477 232.59C51.1093 258.512 51.2285 283.632 50.3643 285.681C40.7384 292.54 29.8311 286.394 29.8311 286.394L32.9901 241.825L44.3444 201.146C44.3444 201.175 66.6954 189.981 67.2318 193.129Z" fill="#0D0D0D"/>
<path d="M30.904 298.746C30.904 298.746 36.8642 315.493 34.6887 317.156C32.4834 318.818 21.3973 317.453 19.4305 311.544C17.9702 308.129 18.0596 298.746 18.0596 298.746H30.904Z" fill="#0D0D0D"/>
<path d="M17.7914 198.147C17.7914 198.147 18.1788 237.193 17.0165 240.845C15.8543 244.498 13.9768 250.11 13.2914 256.642C12.606 263.204 11.3543 297.915 13.2914 299.904C21.6656 304.18 29.4735 300.854 32.1556 297.499C31.202 271.934 36.149 244.557 36.149 244.557C36.149 244.557 46.4305 211.539 46.5795 200.196C46.5497 198.206 17.7914 198.147 17.7914 198.147Z" fill="#232323"/>
<path d="M25.3013 162.337C17.8808 168.157 15.8543 197.82 15.8543 197.82C15.8543 197.82 27.149 215.131 57.5762 200.908C57.5762 197.642 59.6623 166.316 58.4404 162.367C31.798 168.157 28.2517 159.962 25.3013 162.337Z" fill="#E31B25"/>
<path d="M67.2318 157.735C71.1059 161.773 68.3344 193.129 68.3344 193.129C68.3344 193.129 64.49 197.999 56.0861 200.226C55.4006 199.632 56.3841 162.338 56.3841 162.338C56.3841 162.338 66.5463 156.696 67.2318 157.735Z" fill="#E31B25"/>
<path d="M25.3013 155.538V162.337C25.3013 162.337 27.2384 167.296 40.053 167.296C56.9801 167.296 67.2318 157.705 67.2318 157.705L66.8146 149.48L25.3013 155.538Z" fill="#E0D7B4"/>
<path d="M25.957 90.9263C25.957 90.9263 26.0762 86.502 27.4172 85.9973C28.7583 85.4925 30.6656 91.045 45.6854 95.8256C46.5795 96.8351 47.0563 100.279 47.0563 100.279L30.7848 99.2699L25.957 90.9263Z" fill="#0D0D0D"/>
<path d="M47.0861 100.25C46.7285 100.19 46.5497 94.6379 47.0861 93.4205C47.6225 92.2031 50.096 91.4905 50.096 91.4905L49.649 98.0526C49.649 98.0526 48.9338 100.873 47.0861 100.25Z" fill="#0D0D0D"/>
<path d="M25.957 90.9263C24.2285 92.5891 15.2285 101.467 9.74503 105.149C8.49337 109.722 25.3013 155.538 25.3013 155.538C25.3013 155.538 31.3808 160.289 39.2782 159.784C55.9669 159.814 66.7848 149.51 66.7848 149.51C66.7848 149.51 70.7782 114.681 65.8908 101.586C61.51 89.8574 51.0497 88.3134 51.0497 88.3134C51.0497 88.3134 47.4139 87.8977 47.2649 90.2434C47.2649 90.2434 49.8874 94.5192 47.0563 100.28C39.9636 99.0028 29.2649 95.3506 25.957 90.9263Z" fill="#E31B25"/>
<path d="M19.4603 65.4796C20.8013 73.6748 24.9139 89.2635 26.553 88.254C27.149 87.6601 29.5629 79.2274 29.2649 71.3588C28.9669 69.5772 19.4603 64.4701 19.4603 65.4796Z" fill="#0D0D0D"/>
<path d="M17.553 193.188C20.1755 194.792 20.7417 198.444 20.7417 198.444C20.7417 198.444 21.3377 201.71 20.3543 202.037C19.4006 202.363 18.149 198.622 17.1953 199.929C15.3775 202.363 19.0728 212.192 18.5364 212.696C16.7185 214.122 10.7583 209.371 9.71521 208.45C8.67217 207.56 4.8576 201.888 5.75164 194.821C6.58608 193.96 16.3609 192.832 17.553 193.188Z" fill="#F0C6B4"/>
<path d="M1.69867 182.677C1.69867 182.677 2.74172 190.16 3.21854 193.931C3.69536 197.702 18.149 196.425 17.7914 192.12C17.6424 190.16 16.9867 182.054 16.9867 182.054L1.69867 182.677Z" fill="#0D0D0D"/>
<path d="M17.1954 105.298C6.19868 100.547 3.78477 115.037 3.78477 115.037L0 155.657C0 155.657 0.685431 176.917 1.54967 182.143C2.44371 187.369 16.808 186.032 16.9868 182.054C16.9868 179.47 17.1656 150.846 17.1656 150.846L23.3642 118.303C23.3941 118.333 25.1523 109.811 17.1954 105.298Z" fill="#9C251F"/>
<path d="M26.702 73.9421C28.3708 71.4479 31.5 75.1892 31.5 75.1892C31.5 75.1892 35.8808 73.853 38.3245 67.766C51.6159 67.2612 52.5397 61.4415 53.404 62.2432C57.9636 67.5879 55.2219 91.8469 54.8344 92.9455C54.447 94.0441 51.0199 95.2615 49.798 95.7663C43.8675 96.182 35.9404 89.9465 34.4503 88.9667C32.9603 87.9868 31.8576 83.8298 31.8576 83.8298C31.8576 83.8298 23.4536 80.2964 26.702 73.9421Z" fill="#F0C6B4"/>
<path d="M32.9007 75.3971C32.9007 75.3971 38.3245 97.8448 55.3708 89.4121C55.9669 89.4418 55.8477 92.0547 55.1026 92.322C36.1192 99.953 30.0397 74.6844 30.0397 74.6844L32.9007 75.3971Z" fill="#FF8400"/>
<path d="M60.1987 22.9003C60.139 22.6925 60.0794 22.4549 59.99 22.2471C59.99 22.2174 59.9602 22.1877 59.9602 22.158C59.9304 22.0986 59.9006 22.0095 59.8708 21.9501C59.0066 19.842 57.1589 17.8229 54.2682 16.1601C46.0132 11.4092 32.6026 11.4092 24.3477 16.1601C22.0828 17.4368 20.5033 18.9215 19.4603 20.5249C19.4305 20.5843 19.3709 20.6437 19.3411 20.6734C19.2815 20.8218 19.1921 20.9703 19.1325 21.0891C19.0729 21.1781 19.0132 21.2672 18.9834 21.3563C11.7715 38.7563 20.9503 72.7545 20.9503 72.7545C20.9503 72.7545 25.3311 75.8425 31.4702 76.8224C38.8311 78.0101 47.4735 76.0504 53.3741 72.6357C56.4735 70.8541 58.2914 68.6569 58.947 66.3408H58.9768C58.9768 66.3408 65.3245 47.2187 60.1987 22.9003Z" fill="#0D0D0D"/>
<path d="M57.5761 155.775L56.4735 156.31C56.4735 155.864 57.0397 112.424 46.6093 100.458L47.4735 99.8936C58.1722 112.157 57.6059 154.023 57.5761 155.775Z" fill="#E0D7B4"/>
<path d="M58.1722 200.73L56.9802 201.146C57.01 200.819 58.947 168.721 58.1126 163.258L58.9769 162.308L59.1259 163.11C59.9901 168.692 58.2616 199.424 58.1722 200.73Z" fill="#E0D7B4"/>
<path d="M53.553 103.575C53.8808 104.199 53.851 105.03 53.4934 105.446C53.1358 105.892 52.6292 105.743 52.3014 105.12C52.0033 104.526 52.0331 103.665 52.361 103.249C52.7186 102.803 53.255 102.952 53.553 103.575Z" fill="#D1C9A8"/>
<path d="M55.5198 109.989C55.8179 110.613 55.7881 111.444 55.4602 111.86C55.1026 112.305 54.5662 112.157 54.2682 111.533C53.9702 110.91 54 110.078 54.3576 109.663C54.6854 109.247 55.192 109.395 55.5198 109.989Z" fill="#D1C9A8"/>
<path d="M57.3378 116.848C57.6358 117.472 57.606 118.303 57.2782 118.719C56.9206 119.164 56.3841 119.016 56.0861 118.392C55.7881 117.769 55.8179 116.937 56.1457 116.522C56.4735 116.106 57.01 116.254 57.3378 116.848Z" fill="#D1C9A8"/>
<path d="M58.5 124.628C58.798 125.251 58.7384 126.082 58.351 126.498C57.9934 126.914 57.457 126.736 57.159 126.142C56.8609 125.518 56.9503 124.687 57.308 124.271C57.6954 123.856 58.202 124.034 58.5 124.628Z" fill="#D1C9A8"/>
<path d="M59.4536 132.081C59.6324 132.734 59.4536 133.565 59.0364 133.922C58.6192 134.278 58.1126 134.04 57.9338 133.387C57.7252 132.734 57.9338 131.902 58.351 131.546C58.7682 131.16 59.245 131.427 59.4536 132.081Z" fill="#D1C9A8"/>
<path d="M60.139 139.563C60.3178 140.216 60.139 141.048 59.7218 141.404C59.3046 141.76 58.798 141.523 58.6192 140.87C58.4403 140.216 58.6192 139.385 59.0364 139.029C59.4536 138.672 59.9602 138.91 60.139 139.563Z" fill="#D1C9A8"/>
<path d="M60.2881 147.491C60.4967 148.144 60.2881 148.976 59.8709 149.332C59.4536 149.688 58.947 149.451 58.7682 148.798C58.5894 148.144 58.7682 147.313 59.1854 146.986C59.6026 146.6 60.1093 146.867 60.2881 147.491Z" fill="#D1C9A8"/>
</svg>
