<svg width="120" height="341" viewBox="0 0 120 341" fill="none" xmlns="http://www.w3.org/2000/svg">
<path d="M48.308 42.3634C49.0242 48.7018 47.1262 53.2497 47.1262 53.2497L64.4226 67.6812L72.6589 69.2569L78.6392 64.9597L74.6285 52.4619L63.778 41.0026C63.778 41.0385 48.0573 39.9283 48.308 42.3634Z" fill="#C2A091"/>
<path d="M72.6589 67.2873L65.855 72.3008L76.598 86.1951L85.3715 81.2175L80.6446 66.6069L72.6589 67.2873Z" fill="#365063"/>
<path d="M75.0223 76.0608L78.6392 86.5174L84.512 83.7242L78.6392 74.4136L75.0223 76.0608Z" fill="#0D0D0D"/>
<path d="M75.0223 76.0608L78.6392 74.4136L77.2068 68.7197L74.9865 66.6069L72.6589 67.2873L70.6177 68.7914L70.9758 71.3697L75.0223 76.0608Z" fill="#0D0D0D"/>
<path d="M73.5542 56.7592C75.4521 61.3071 72.6589 67.2516 72.6589 67.2516C72.6589 67.2516 80.0358 69.1495 81.7547 71.2623C81.8263 61.3787 79.3913 56.7592 79.3913 56.7592C79.3913 56.7592 72.5157 55.6849 73.5542 56.7592Z" fill="#6A8EA8"/>
<path d="M45.479 54.8969C45.479 54.8969 45.9445 52.7125 46.6607 50.7429C55.0403 58.1914 61.7727 61.4144 72.659 67.2872C70.9401 70.5102 69.2928 76.383 69.2928 76.383L45.479 54.8969Z" fill="#6A8EA8"/>
<path d="M24.4941 129.991C24.4941 129.991 37.1351 134.288 45.9803 134.396C54.8254 134.503 47.5917 149.651 42.6499 150.761C30.7967 152.695 11.5667 150.725 11.5667 150.725L24.4941 129.991Z" fill="#232323"/>
<path d="M79.3912 46.804C87.8066 45.3358 97.6903 56.0072 106.822 67.5023C113.304 75.6312 120 79.2122 120 84.6554C119.785 96.3653 109.758 103.062 95.1119 120.824C93.2498 120.824 84.0466 62.9186 84.0466 62.9186C84.0466 62.9186 76.2399 47.8067 79.3912 46.804Z" fill="#232323"/>
<path d="M95.7565 92.5693C95.7565 92.5693 98.6929 84.5478 108.72 86.3025C100.877 89.0241 95.7565 92.5693 95.7565 92.5693Z" fill="#0D0D0D"/>
<path d="M74.4852 298.657C85.7297 305.569 96.4011 309.006 98.4781 310.26C100.555 311.513 101.522 316.312 99.6598 317.529C91.9606 320.788 72.7664 313.554 72.7664 313.554C72.7664 313.554 52.9991 314.235 51.7458 312.981C50.4924 311.728 51.7458 299.588 51.7458 299.588C51.7458 299.588 73.3751 296.795 74.4852 298.657Z" fill="#0D0D0D"/>
<path d="M98.478 169.812C93.6795 208.38 86.1593 226.07 81.5398 238.675C77.6365 249.311 75.273 285.479 77.7797 298.657C61.4861 307.431 47.0546 300.233 47.0546 300.233L66.1772 176.007C66.1772 176.007 97.6186 164.691 98.478 169.812Z" fill="#0D0D0D"/>
<path d="M51.8174 315.918C54.1809 323.33 62.2382 332.068 57.6903 338.944C56.9025 340.806 42.0054 340.985 38.7109 333.608C35.4522 326.267 35.4521 315.918 35.4521 315.918C35.4521 315.918 50.8505 313.232 51.8174 315.918Z" fill="#0D0D0D"/>
<path d="M35.4521 178.12C33.6616 193.733 34.7359 237.386 34.0913 242.865C23.0259 261.056 29.2927 316.24 29.8657 317.708C32.6231 322.507 50.4924 321.862 50.4924 321.862C50.4924 321.862 54.5389 317.672 54.5747 312.229C54.6105 306.786 54.3599 261.629 59.3733 248.917C66.2847 231.119 75.8818 178.084 75.8818 178.084C75.8818 178.084 36.598 173.357 35.4521 178.12Z" fill="#232323"/>
<path d="M97.6903 131.28C100.985 134.79 100.34 167.126 100.34 169.06C99.3017 173.286 84.8702 179.123 84.8702 179.123L80.0717 137.296L93.4289 130.421C93.4647 130.421 94.3957 127.771 97.6903 131.28Z" fill="#232323"/>
<path d="M87.0904 137.619C82.6141 139.588 83.7958 179.66 86.1593 178.585C90.0268 176.759 91.5667 135.613 87.0904 137.619Z" fill="#0D0D0D"/>
<path d="M35.1298 181.808C37.4574 200.716 79.8925 188.075 81.2891 182.059C81.6472 181.307 33.948 178.764 35.1298 181.808Z" fill="#0D0D0D"/>
<path d="M42.2203 135.291C32.9454 140.412 34.8076 164.834 33.0529 176.329C36.24 199.32 86.1594 181.773 86.1594 179.409C86.1594 177.046 89.3823 140.089 86.1594 133.572C77.6008 137.046 60.3402 140.412 60.3402 140.412C60.3402 140.412 48.9168 140.233 42.2203 135.291Z" fill="#232323"/>
<path d="M43.3661 129.704L42.2202 137.583C42.2202 137.583 46.7323 144.1 60.8415 144.1C81.2533 144.1 97.6902 131.28 97.6902 131.28L96.5443 121.719L43.3661 129.704Z" fill="#0D0D0D"/>
<path d="M80.179 82.7573C67.3231 67.2873 45.4789 54.4314 45.4789 54.4314C45.4789 54.4314 35.1298 65.8191 27.1083 71.6562C25.3178 76.9203 26.3563 108.039 30.7609 112.766C44.1539 128.952 42.0411 130.85 43.9391 131.889C45.837 132.927 53.8943 137.941 62.2739 137.225C75.9176 136.294 93.8943 128.129 96.2936 124.046C101.2 118.102 100.018 86.8397 98.2632 75.6669C95.7565 59.6239 79.3912 47.8782 79.3912 47.8782L72.5514 54.5747C72.5514 54.5389 80.8236 65.8191 80.179 82.7573Z" fill="#232323"/>
<path d="M32.9454 115.416L40.5014 96.2937L35.0224 118.102L32.9454 115.416Z" fill="#0D0D0D"/>
<path d="M35.1298 71.8711C23.026 65.6044 15.8997 87.556 15.8997 87.556C15.8997 87.556 -0.680397 132.928 -3.44776e-06 138.765C1.11011 148.183 11.4951 150.689 11.4951 150.689C11.4951 150.689 24.6732 152.766 24.4584 129.991C30.7252 124.548 40.9669 94.8613 40.9669 94.8613C40.9669 94.8613 47.2695 78.1379 35.1298 71.8711Z" fill="#232323"/>
<path d="M80.1791 82.7573C90.0985 99.4807 87.9857 127.628 86.6607 130.421C85.7297 116.491 87.2695 105.533 80.1791 82.7573Z" fill="#0D0D0D"/>
<path d="M24.4941 129.991C24.4941 129.991 28.0393 135.828 20.1969 139.373C23.6347 133.429 24.4941 129.991 24.4941 129.991Z" fill="#0D0D0D"/>
<path d="M52.2112 59.1225C48.5944 66.2488 38.2095 73.5541 38.2095 73.5541L30.9042 69.5433C30.9042 69.5433 41.3249 61.5934 45.5864 55.3267C46.1593 55.5773 50.9221 58.4421 52.2112 59.1225Z" fill="#0D0D0D"/>
<path d="M87.2695 138.765L86.6249 139.123C85.6222 139.696 84.7986 139.051 84.7986 137.69V132.82C84.7986 131.459 85.6222 129.848 86.6249 129.275L87.2695 128.917C88.2722 128.344 89.0958 128.988 89.0958 130.349V135.219C89.0958 136.616 88.2722 138.192 87.2695 138.765ZM86.6249 130.278C86.1236 130.564 85.658 131.495 85.658 132.319V137.189C85.658 138.013 86.0878 138.442 86.6249 138.12L87.2695 137.762C87.7708 137.475 88.2364 136.544 88.2364 135.721V130.851C88.2364 130.027 87.8066 129.597 87.2695 129.919L86.6249 130.278Z" fill="#D1C9A8"/>
<path d="M76.8129 99.0151L69.4718 100.985L62.0591 107.538L60.0179 100.662L74.7717 92.1038L76.8129 99.0151Z" fill="#0D0D0D"/>
<path d="M68.2184 162.829L57.6544 158.46L46.6249 161.396L47.1262 151.584L68.2184 152.874V162.829Z" fill="#0D0D0D"/>
<path d="M99.3375 87.4127L93.6437 87.9498L88.0215 93.2855L86.0161 86.5532L97.7977 79.7493L99.3375 87.4127Z" fill="#0D0D0D"/>
<path d="M73.3751 111.835C70.6535 108.899 69.4718 100.985 69.4718 100.985C69.4718 100.985 72.9812 105.891 73.3751 111.835Z" fill="#0D0D0D"/>
<path d="M96.5443 98.2989C94.5748 94.2523 93.6079 87.9497 93.6079 87.9497C93.6079 87.9497 96.3653 91.9963 96.5443 98.2989Z" fill="#0D0D0D"/>
<path d="M63.3125 106.428C63.3125 106.428 65.5685 113.518 67.1084 114.199C68.6482 114.879 77.6008 109.758 77.8873 108.397C78.1379 107.037 75.667 99.3374 75.667 99.3374C75.667 99.3374 79.248 107.466 78.5676 109.185C78.1021 110.224 67.6813 115.774 66.6429 115.488C65.6044 115.237 63.3125 106.428 63.3125 106.428Z" fill="#0D0D0D"/>
<path d="M88.5586 92.7842C88.5586 92.7842 90.8504 100.555 91.5308 100.949C92.2112 101.307 99.803 96.1862 99.803 96.1862C99.803 96.1862 92.4977 102.346 91.3518 101.737C89.9552 101.021 88.5586 92.7842 88.5586 92.7842Z" fill="#0D0D0D"/>
<path d="M66.9293 162.328C66.9293 162.328 67.0009 171.531 66.1056 173.035C65.2104 174.503 48.9525 174.145 47.914 172.856C46.8755 171.567 47.5559 161.182 47.5559 161.182C47.5559 161.182 45.9803 172.498 46.6249 173.5C48.1647 174.861 65.0671 175.327 66.5353 174.145C68.0036 172.927 66.9293 162.328 66.9293 162.328Z" fill="#0D0D0D"/>
<path d="M57.6544 158.46C57.6544 158.46 56.3294 167.09 56.9024 173.966C58.2274 170.815 57.6544 158.46 57.6544 158.46Z" fill="#0D0D0D"/>
<path d="M82.2919 85.085C82.829 85.6938 83.0439 86.7323 82.7574 87.341C82.4709 87.9498 81.7905 87.9498 81.2534 87.3052C80.7162 86.6964 80.5014 85.6938 80.7878 85.0492C81.0743 84.4404 81.7189 84.4762 82.2919 85.085Z" fill="#D1C9A8"/>
<path d="M69.4359 98.2991C69.794 98.872 69.8657 99.6957 69.5792 100.161C69.2927 100.627 68.7556 100.555 68.3616 99.9822C68.0035 99.4092 67.9319 98.5856 68.2184 98.12C68.5407 97.6545 69.0778 97.7261 69.4359 98.2991Z" fill="#D1C9A8"/>
<path d="M93.6078 85.1924C94.0017 85.7654 94.0375 86.589 93.7511 87.0545C93.4646 87.5201 92.9274 87.4484 92.5335 86.8755C92.1754 86.3025 92.1038 85.4789 92.3903 85.0133C92.6768 84.5478 93.2139 84.6552 93.6078 85.1924Z" fill="#D1C9A8"/>
<path d="M85.5506 97.8693C86.0161 98.5856 86.0519 99.5882 85.6938 100.161C85.3357 100.734 84.6553 100.627 84.2256 99.9105C83.7601 99.1943 83.6884 98.1916 84.0823 97.6187C84.4405 97.0815 85.1208 97.189 85.5506 97.8693Z" fill="#D1C9A8"/>
<path d="M87.7708 111.799C88.1289 112.551 88.0573 113.59 87.5917 114.091C87.162 114.593 86.5174 114.414 86.1593 113.626C85.8012 112.874 85.8729 111.871 86.3384 111.334C86.7681 110.833 87.4127 111.047 87.7708 111.799Z" fill="#D1C9A8"/>
<path d="M87.9498 124.512C88.0931 125.336 87.7708 126.303 87.1978 126.661C86.6607 127.055 86.0877 126.697 85.9086 125.873C85.7654 125.049 86.0877 124.082 86.6607 123.724C87.2336 123.33 87.8066 123.688 87.9498 124.512Z" fill="#D1C9A8"/>
<path d="M59.1226 156.705C59.1226 157.457 58.5138 158.03 57.7976 158.03C57.0456 158.03 56.4727 157.422 56.4727 156.705C56.4727 155.953 57.0814 155.38 57.7976 155.38C58.5138 155.38 59.1226 155.989 59.1226 156.705Z" fill="#D1C9A8"/>
<path d="M90.17 96.7592C89.991 96.7592 89.8478 96.7592 89.6687 96.7234C87.9856 96.4727 84.7269 94.7896 81.6472 86.2668L81.9337 86.1594C84.1539 92.2829 86.9829 96.043 89.7045 96.4369C90.8862 96.6159 91.9964 96.1146 92.7842 95.0403C94.1092 93.2498 94.6463 89.8478 92.9274 86.1594L93.2139 86.0161C95.0044 89.812 94.3957 93.3572 93.0349 95.2193C92.2828 96.1862 91.2802 96.7592 90.17 96.7592Z" fill="#D1C9A8"/>
<path d="M83.76 22.9185C88.2721 33.017 80.9668 61.88 80.9668 61.88C80.9668 61.88 80.931 64.9239 73.6615 64.4225C65.6759 63.5273 56.9382 54.2882 55.7564 53.3213C54.5389 52.3545 53.2497 47.8424 53.2497 47.8424C53.2497 47.8424 49.5971 47.3769 48.3437 42.3634C47.4127 41.0384 46.1593 36.5622 46.1593 36.5622L50.564 25.8191L60.8773 13.6794L73.1602 17.4395C73.0886 17.4395 83.0796 21.9158 83.76 22.9185Z" fill="#F0C6B4"/>
<path d="M48.308 42.3634C48.308 42.3634 46.5891 35.6311 50.7072 35.2014C54.8254 34.7716 54.2524 40.9668 56.1504 39.3912C58.4422 37.4574 63.2766 30.8325 65.8908 29.9731C68.5049 29.1136 75.6669 30.5102 78.675 29.3285C81.6831 28.1826 83.7601 23.8853 83.8675 22.4529C83.9749 20.9847 73.5183 1.14585 53.4646 12.9274C39.8567 22.5604 46.2668 43.76 48.308 42.3634Z" fill="#3C2415"/>
<path d="M45.3358 24.1003C45.3358 24.1003 45.0135 0.393921 64.7449 0.393921C83.6885 0.393921 85.3716 29.3286 85.3716 29.3286C85.3716 29.3286 94.7897 38.8899 84.5837 49.2749C80.9669 51.3518 60.4119 48.5228 48.5229 39.4271C34.342 28.4691 45.3358 24.1003 45.3358 24.1003Z" fill="#232323"/>
<path d="M45.3358 23.384C45.3358 23.384 47.3412 33.6258 58.5856 35.094C82.3278 36.9203 84.9061 25.461 84.9061 25.461L85.1568 27.1799C85.1568 27.1799 81.1102 38.6392 58.4424 36.3831C45.6581 34.4136 45.3716 24.6374 45.3716 24.6374V23.384H45.3358Z" fill="#454545"/>
<path d="M74.4137 20.1611C72.838 21.2354 69.5077 21.2354 69.5077 21.2354C69.5077 21.2354 73.5542 24.136 69.7942 27.8245C73.8765 29.436 72.5157 33.4825 72.5157 33.4825C72.5157 33.4825 76.4907 30.6893 78.9258 33.8048C79.6778 30.4028 83.0798 28.6481 83.0798 28.6481C83.0798 28.6481 81.9696 24.4225 83.0798 22.0949C81.2176 21.4861 80.6447 16.5443 80.6447 16.5443C80.6447 16.5443 79.4987 18.299 78.0305 18.6213C78.0305 18.2632 78.0663 14.7896 78.0663 14.7896L74.2704 12.9633L71.6921 17.2605C71.7279 17.2247 74.3421 19.8746 74.4137 20.1611Z" fill="#E0D7B4"/>
<path d="M81.5041 23.384C80.394 19.1226 77.3501 20.6266 76.8846 20.7699C75.8461 21.1996 72.8739 23.8137 73.7691 27.6813C74.915 31.7636 78.8542 30.2954 78.8542 30.2954C78.8542 30.2954 82.7217 28.0394 81.5041 23.384ZM78.7467 28.5765C78.7467 28.5765 76.2042 29.7941 75.4522 27.1441C74.8434 24.6732 76.7772 22.9543 77.4576 22.6678C77.8515 22.4172 79.8569 21.5577 80.5731 24.3151C81.2535 27.5022 78.7467 28.5765 78.7467 28.5765Z" fill="#BDB497"/>
<path d="M44.548 29.4002C44.9419 26.4995 44.5838 24.53 45.479 24.0645C46.0162 25.1746 44.9419 29.0421 44.548 29.4002Z" fill="#0D0D0D"/>
<path d="M85.3716 29.3285C84.9777 29.2211 85.5148 30.5819 85.873 31.5129C85.5865 30.5102 85.8013 30.367 85.3716 29.3285Z" fill="#0D0D0D"/>
<path d="M45.0851 32.2291C48.9526 40.6087 63.8138 42.0769 63.8138 42.0769C63.8138 42.0769 50.2418 39.5702 45.0851 32.2291Z" fill="#0D0D0D"/>
<path d="M69.4361 6.48161C66.8577 7.98563 62.7037 7.98563 60.1254 6.48161C57.5471 5.01339 57.5471 2.57829 60.1254 1.11007C62.7037 -0.358143 66.8577 -0.358143 69.4361 1.11007C72.0144 2.6141 72.0144 5.01339 69.4361 6.48161Z" fill="#E0D7B4"/>
</svg>
