<svg width="130" height="386" viewBox="0 0 130 386" fill="none" xmlns="http://www.w3.org/2000/svg">
<path d="M110.171 200.447C113.619 201.24 117.826 201.309 117.826 201.309L116.929 214.24C116.929 214.24 111.584 215.068 106.688 210.275C105.55 208.482 103.722 205.62 103.722 205.62L105.309 201.309L108.274 199.999C108.274 199.999 108.791 200.723 110.171 200.447Z" fill="#D1C9A8"/>
<path d="M59.2069 128.207C59.2069 128.207 69.069 127.759 74.2759 139.655C75.931 143.448 78.931 181.931 78.931 181.931C78.931 181.931 102.138 195.552 103.345 197.552C100.69 203.207 99.069 208.035 99.069 208.035C99.069 208.035 78.1724 204.379 69.931 197.414C68.2758 194.379 59.2069 128.207 59.2069 128.207Z" fill="#9C251F"/>
<path d="M60.4138 171.517C60.4138 171.517 59.9655 172.862 60.1034 174.414C62.1034 177.552 73.6207 178.966 78.4483 175.035C79.069 173.759 78.2069 171.69 78.2069 171.69C78.2069 171.69 74 174 68.2759 173.828C64.7241 173.379 60.4138 171.517 60.4138 171.517Z" fill="#FF8400"/>
<path d="M60.7931 168.104C60.7931 168.104 59.7587 169.483 60.4138 171.517C62.8621 175.828 75.8621 175.828 78.1035 172.069C78.4828 171.483 77.8621 168.655 77.8621 168.655C77.8621 168.655 73.9655 171.621 68.2414 171.448C64.7242 171 60.7931 168.104 60.7931 168.104Z" fill="#0D0D0D"/>
<path d="M61.1724 164.793C61.1724 164.793 60.0345 166.931 60.7931 168.104C63.7931 172.655 74.3793 172.173 77.8966 168.655C78.2414 168.069 77.5862 165.655 77.5862 165.655C77.5862 165.655 74.6552 168.552 68.3448 168.448C64.8621 168.138 61.1724 164.793 61.1724 164.793Z" fill="#FF8400"/>
<path d="M53.7242 348.655C59.7586 353.621 74.1035 358.104 75.2759 359.793C76.4483 361.483 76.2069 366.414 75.5173 366.966C65.8966 368.656 50.2069 361.621 50.2069 361.621C50.2069 361.621 36.5518 362.587 34.5518 359.38C32.5518 356.173 36.1724 348.345 36.1724 348.345C36.1724 348.345 52.3793 347.897 53.7242 348.655Z" fill="#0D0D0D"/>
<path d="M37.6896 318.552C40.5862 334.483 36.1724 348.345 36.1724 348.345C36.1724 348.345 41 352.173 44.8276 352.173C48.6552 352.173 53.6896 348.655 53.6896 348.655C53.6896 348.655 52.1724 336.311 56.5862 316.207C54.931 313.724 36.931 316.655 37.6896 318.552Z" fill="#E31B25"/>
<path d="M36.8621 313C36.8621 313 37.3793 317.241 37.6896 318.517C38 319.793 53.4138 321.483 56.6207 316.173C56.8276 314.724 57.7931 308.241 57.7931 308.241L36.8621 313Z" fill="#FF8400"/>
<path d="M60.8966 294.345C60.8966 294.345 61.2414 304.379 56.931 309.448C55.069 311.621 51.4483 313.379 47.7586 313.897C44.6207 314.345 38.4828 314.138 36.8966 313C33.3103 310.483 34.9655 301.31 34.9655 301.31L60.8966 294.345Z" fill="#9C251F"/>
<path d="M32.9655 360.69C33.7931 364.863 43.0345 381.035 37.1379 384.173C31.2414 387.311 23.7241 382.863 21.4827 377.069C19.8621 373 20.5517 363.656 20.7586 360.069C20.9655 356.518 32.1724 356.518 32.9655 360.69Z" fill="#0D0D0D"/>
<path d="M35.1724 321.621C33.5172 343.483 32.9655 360.69 32.9655 360.69C32.9655 360.69 30.8965 364.242 27.7931 364.656C24.6897 365.069 22.1034 361.518 20.7931 360.069C22.4828 335.656 17.7931 330.759 15.4483 319.138C16.5862 315.449 33.1034 320.552 35.1724 321.621Z" fill="#E31B25"/>
<path d="M15.4483 313C15.4483 313 15.138 318.173 15.4138 319.173C18.2414 325.862 34.3793 324.69 35.138 321.621C35.3793 320.276 36.138 315.931 36.138 315.931L15.4483 313Z" fill="#FF8400"/>
<path d="M17 300.276C17.9655 303 14.5172 307.448 15.7241 313.517C18.3448 322.552 34.2069 321.345 36.2069 315.966C38.4828 314.035 41.931 301.103 41.931 301.103C41.931 301.103 20.5517 296.31 17 300.276Z" fill="#E31B25"/>
<path d="M73.8621 208.414C83.9311 214.242 79.3449 282.173 79.3449 282.173C79.3449 282.173 72.2759 292.311 60.069 295.311C63.069 255.931 60.4483 215.173 60.4483 215.173C60.4483 215.173 72.9311 207.311 73.8621 208.414Z" fill="#E31B25"/>
<path d="M70.0684 275.724L70.3443 271.862C73.8271 222.517 67.6891 213.483 67.4478 213.138L70.7581 211.241C71.4478 212.069 77.2753 220.517 74.2753 267.965C77.7581 265.414 79.7926 262.172 80.2409 261.517C80.5167 264.517 80.1029 266.414 80.1029 266.414C79.965 266.862 78.7581 269.724 73.2409 273.517L70.0684 275.724Z" fill="#FF8400"/>
<path d="M71.0682 273.793L71.2062 271.517C72.1372 257.621 74.5165 222.172 68.1372 212.896L69.7234 211.655C76.6544 221.965 73.6544 259.758 73.0682 270.138C75.3096 268.758 78.8613 265.483 80.2751 262.621L80.3441 264.69C78.6889 269.379 73.2062 272.517 72.9993 272.621L71.0682 273.793Z" fill="#0D0D0D"/>
<path d="M79.7931 274.035C80.0345 278.311 79.3449 282.173 79.3449 282.173C79.3449 282.173 72.2759 292.311 60.069 295.311C60.2069 293.449 60.3104 290.828 60.4483 288.966C72.1725 283.345 75.8966 279.483 79.7931 274.035Z" fill="#FF8400"/>
<path d="M79.8621 276.311C80.1724 278.725 79.5862 279.966 79.5862 279.966C79.5862 279.966 71.5862 290.69 60.2759 293.104C60.4138 291.242 60.5862 293.035 60.6897 291.173C71.9655 285.897 75.9655 281.725 79.8621 276.311Z" fill="#0D0D0D"/>
<path d="M27.3448 214.69C10.2069 220.173 8.4138 289.276 9.34483 293.966C23.5517 320 62.3793 295.586 62.3793 295.586C62.3793 295.586 66.7586 222.345 63.3104 216.242C61.3448 213.104 50.1379 212.138 50.1379 212.138C50.1379 212.138 30.2414 213.345 27.3448 214.69Z" fill="#E31B25"/>
<path d="M32.5173 276.242C20.6897 276.242 15.2069 271.414 14.9655 271.173L14.3104 270.587L14.3793 269.69C14.7586 264.759 18.2414 221.897 29.069 214.724L31.5173 217.414C23.9655 222.035 19.2414 255.38 18.1035 268.966C20.1035 270.311 26.6207 273.793 38.5172 272.207C38.7586 264.069 40.0345 227.276 42.8621 219.828L46.2759 221.138C43.8621 227.449 42.4483 261.345 42.1379 273.862L42.1034 275.38L40.6207 275.621C37.6207 276.035 34.931 276.242 32.5173 276.242Z" fill="#FF8400"/>
<path d="M39.6207 259.483C26.8966 259 18.6207 256.966 18.2759 256.862L19.1724 253.311C19.2414 253.311 27.4483 255.345 39.7586 255.793L39.6207 259.483Z" fill="#FF8400"/>
<path d="M40.5862 243.587C30.7587 243.69 21.8621 241.242 21.4828 241.138L22.4483 237.621C22.5173 237.656 31.2414 240.035 40.5173 239.931L40.5862 243.587Z" fill="#FF8400"/>
<path d="M41.3793 230.242C31.8621 228.862 25.4828 226.69 25.2414 226.621L26.4138 223.173C26.4828 223.207 32.7586 225.311 41.8966 226.655L41.3793 230.242Z" fill="#FF8400"/>
<path d="M40.5862 258.173C28.2414 257.862 18.2414 255.793 18.1379 255.759L18.3793 254.552C18.4828 254.552 28.3448 256.621 40.5862 256.931V258.173Z" fill="#0D0D0D"/>
<path d="M41.8965 242.517C28.3793 242.172 20.8276 239.69 20.4828 239.586L20.8621 238.414C20.931 238.448 28.5862 240.966 41.8965 241.276V242.517Z" fill="#0D0D0D"/>
<path d="M43.0345 228.897C31.5173 227.311 25.069 224.931 25.0345 224.897L25.4483 223.759C25.5173 223.793 31.8276 226.104 43.2069 227.69L43.0345 228.897Z" fill="#0D0D0D"/>
<path d="M33.1034 275.345C22.931 275.345 16.3103 270.621 16 270.38L15.7241 270.173V269.828C15.8276 268.035 18.4827 226.035 29.6207 215.793L30.4483 216.69C20.1724 226.138 17.2414 265.449 16.9655 269.552C18.6207 270.621 27.7241 276.035 40.1034 273.345C40.8276 233.242 43.6552 220.897 43.6552 220.759L44.8276 221.035C44.7931 221.173 42 233.552 41.2759 273.828V274.311L40.8276 274.414C38.1034 275.069 35.4827 275.345 33.1034 275.345Z" fill="#0D0D0D"/>
<path d="M56.3793 292.345C47.6207 299.241 19.1724 305.448 9.13793 288.207C9.13793 288.207 8.82758 291.793 9.34482 293.966C23.5517 320 62.3793 295.586 62.3793 295.586C62.3793 295.586 67.7931 224 63.3103 216.241C61.9655 215.034 57.2414 219.034 57.2414 219.034C57.2414 219.034 62.2759 242.724 56.3793 292.345Z" fill="#FF8400"/>
<path d="M26.3448 201.035C26.3448 201.035 27.3448 214.035 27.3448 214.69C47.6207 232.621 73.862 209.448 73.862 208.414C73.862 207.38 73.6207 197 73.7241 196.035C40 219.448 26.3448 201.035 26.3448 201.035Z" fill="#FF8400"/>
<path d="M26.4828 203.069C26.4828 203.069 26.6207 204.862 26.6897 205.897C48.4828 223.517 73.7242 199.759 73.7242 199.759L73.6897 197.517C43.8621 221.724 26.4828 203.069 26.4828 203.069Z" fill="#0D0D0D"/>
<path d="M26.7586 206.759C26.7586 206.759 26.9655 208.966 26.9655 209.759C48.7586 227.379 73.6897 203.586 73.6897 203.586L73.6552 201.345C43.8621 225.517 26.7586 206.759 26.7586 206.759Z" fill="#E31B25"/>
<path d="M27 210.069C27 210.069 27.1724 211.862 27.1724 212.621C47.6552 230.517 73.8621 207.31 73.8621 207.31L73.7931 204.931C43.6207 229.379 27 210.069 27 210.069Z" fill="#0D0D0D"/>
<path d="M28.3448 135.517C28.3448 135.517 19.7586 145.517 13.2069 149.897C12.069 152.621 17.931 188.241 20.6897 190.759C27.1035 198.586 25.2414 199.966 26.8966 201.862C28.5517 203.759 33.2069 208.586 44.3104 208.104C60.6552 207.552 73.7586 196.035 73.7586 196.035C73.7586 196.035 76.4828 178.448 75.7586 158.724C75 137.828 57.1035 129.138 57.1035 129.138C57.1035 129.138 53.2759 130.862 52.3448 134.414C51.2069 138.655 52.7586 144.897 50.6897 145.621C46.7931 146.897 28.3448 135.517 28.3448 135.517Z" fill="#E31B25"/>
<path d="M45.5862 133.621C79.6552 137.862 66.0345 200.862 66.0345 201.311C69.8621 199.828 71.7586 197.862 73.1379 196.552C73.931 179.345 82.8966 139.793 51.5862 127.724C49.7931 127.897 45.3448 132.862 45.5862 133.621Z" fill="#FF8400"/>
<path d="M46.8966 131.483C80.0346 135.138 68.5173 199.586 68.5173 200C70.4483 199.276 71.8966 197.793 71.8966 197.793C72.4139 194.483 83.3449 135.828 49.6552 128.793C48.4138 129.173 46.9311 131.035 46.8966 131.483Z" fill="#0D0D0D"/>
<path d="M20.6552 190.759L25.6207 172.931L23.1379 194.035L20.6552 190.759Z" fill="#9C251F"/>
<path d="M17.3103 243.138C19.6897 246.345 22.2069 248.207 22.8276 250.104C23.4483 252 24.1379 257.069 22.5862 257.483C21.069 257.897 20.4138 254.069 19.3793 254.69C18.2414 255.38 22 268.897 21.2759 269.69C20.5517 270.483 10.8621 267.517 7.75862 257.483C7.10345 255.069 7.03448 245.586 7.03448 245.586C7.03448 245.586 16.6897 242.276 17.3103 243.138Z" fill="#D1C9A8"/>
<path d="M5.48276 244.069C5.48276 244.069 5.24138 244.31 6.51724 245.931C7.7931 247.552 17.6552 246.31 17.3103 243.104C17.2069 242.655 16.8966 241.069 16.8966 241.069C16.8966 241.069 16.1379 243.552 10.5517 244.621C7.03448 245.069 5.48276 244.069 5.48276 244.069Z" fill="#FF8400"/>
<path d="M4.89657 241.828C4.89657 241.828 4.34484 242.586 5.48277 244.069C6.75864 245.69 15.6897 244.586 16.8966 241.104C17.1035 240.552 16.8966 239 16.8966 239C16.8966 239 15.5173 241.69 9.93105 242.759C6.41381 243.173 4.89657 241.828 4.89657 241.828Z" fill="#0D0D0D"/>
<path d="M4.31036 239.966C4.31036 239.966 4.13794 240.862 4.89656 241.862C6.86208 244.448 15.7241 242.517 16.8966 239C17.1035 238.448 16.9655 236.931 16.9655 236.931C16.9655 236.931 14.931 239.207 9.58621 240.379C5.93104 240.828 4.31036 239.966 4.31036 239.966Z" fill="#FF8400"/>
<path d="M104.964 198.033C104.964 198.033 104.171 197.137 102.688 196.827C100.378 196.344 96.2396 206.758 99.7224 208.482C100.24 208.689 102.033 209.413 102.033 209.413C102.033 209.413 99.8603 207.171 101.688 201.758C103.136 198.516 104.964 198.033 104.964 198.033Z" fill="#FF8400"/>
<path d="M107.55 199.102C107.55 199.102 107.102 197.999 104.964 198.034C102.619 198.102 99.0327 206.171 102.033 209.413C102.481 209.93 104.653 209.999 104.653 209.999C104.653 209.999 102.136 207.896 103.964 202.447C105.412 199.206 107.55 199.102 107.55 199.102Z" fill="#0D0D0D"/>
<path d="M110.171 200.447C110.171 200.447 108.929 199.137 107.55 199.103C103.929 199.034 101.653 206.827 104.653 209.999C105.136 210.516 106.688 210.275 106.688 210.275C106.688 210.275 105.343 208.309 106.791 203.344C108.102 200.171 110.171 200.447 110.171 200.447Z" fill="#FF8400"/>
<path d="M86.3441 186.31C86.3441 186.31 85.3096 185.31 83.8268 184.793C80.1372 185.276 74.1027 194.862 75.6544 200.896C76.551 202 78.6544 202.345 78.6544 202.345C78.6544 202.345 78.3441 197.552 80.9303 192.414C82.7923 189.448 86.3441 186.31 86.3441 186.31Z" fill="#FF8400"/>
<path d="M89.2751 188.069C89.2751 188.069 88.4475 186.551 86.3441 186.31C81.4131 186.724 75.8958 198.517 78.3786 202.138C78.7579 202.724 81.551 203.379 81.551 203.379C81.551 203.379 80.5165 198.62 83.1027 193.482C84.9648 190.448 89.2751 188.069 89.2751 188.069Z" fill="#0D0D0D"/>
<path d="M92.1026 189.827C92.1026 189.827 90.6199 187.896 89.2751 188.069C83.8958 188.862 79.8613 198.655 81.5509 203.345C81.9647 203.931 84.413 204.31 84.413 204.31C84.413 204.31 83.0337 200.448 85.7923 194.758C87.5164 191.793 92.1026 189.827 92.1026 189.827Z" fill="#FF8400"/>
<path d="M15.8966 149.552C3.55173 148.621 3.27587 177.207 3.27587 177.207C3.27587 177.207 -0.137929 204.931 0.0344854 210.552C0.172417 216.207 0.517244 236.035 4.34483 239.931C11.5173 242.483 17.0345 236.897 17.0345 236.897C17.0345 236.897 18.9655 219.414 18.5862 203.862C18.3448 200.345 26.2069 170.724 26.2069 170.724C26.2069 170.724 28.2414 150.483 15.8966 149.552Z" fill="#9C251F"/>
<path d="M0.413785 220.759C0.413785 220.759 0.275854 222.104 0.586199 223.414C1.99999 226 15.5862 227 18.1034 223.069C18.2414 222.242 18.2759 220.173 18.2759 220.173C18.2759 220.173 16.2414 223.311 7.62068 222.966C2.27585 222.38 0.413785 220.759 0.413785 220.759Z" fill="#FF8400"/>
<path d="M0.275879 217.897C0.275879 217.897 0.103465 219.345 0.41381 220.759C1.8276 223.345 15.4828 224.483 18.2759 220.173C18.5173 218.724 18.4138 217.586 18.4138 217.586C18.4138 217.586 15.8966 220.552 7.24139 220.207C1.93105 219.621 0.275879 217.897 0.275879 217.897Z" fill="#0D0D0D"/>
<path d="M0.172419 215.414C0.172419 215.414 -0.241374 216.586 0.275868 217.897C2.44828 222.035 15.6207 221.897 18.4483 217.552C18.7931 216.483 18.5172 215.173 18.5172 215.173C18.5172 215.173 15.8621 218.828 7.55173 218.655C1.93104 218.104 0.172419 215.414 0.172419 215.414Z" fill="#FF8400"/>
<path d="M1.13794 195.656C1.13794 195.656 0.793109 197 0.896557 198.38C1.93104 201.276 15.7586 204.311 18.9655 200.69C19.4483 199.793 19.5517 197.828 19.5517 197.828C19.5517 197.828 16.931 200.759 8.17242 199.035C2.75862 197.587 1.13794 195.656 1.13794 195.656Z" fill="#FF8400"/>
<path d="M1.4138 192.69C1.4138 192.69 1.00001 194.138 1.10346 195.655C2.13794 198.518 15.9655 201.793 19.5172 197.828C20.1379 196.38 20.1035 195.207 20.1035 195.207C20.1035 195.207 16.9655 197.862 8.2069 196.173C2.86208 194.724 1.4138 192.69 1.4138 192.69Z" fill="#0D0D0D"/>
<path d="M1.72415 190.138C1.72415 190.138 1.10346 191.276 1.44829 192.69C3.0345 197.241 16.5862 199.172 20.138 195.172C20.6552 194.103 20.7242 192.69 20.7242 192.69C20.7242 192.69 17.2414 196.103 8.75864 194.621C3.10346 193.172 1.72415 190.138 1.72415 190.138Z" fill="#FF8400"/>
<path d="M18.5862 145.517C43.2069 151.828 44.9655 207.586 45 208.035C48.4828 209.242 53.2414 207.138 53.2414 206.897C53.2414 206.655 51.9311 147.862 24.5862 139.621C22.7931 139.793 18.3448 144.759 18.5862 145.517Z" fill="#FF8400"/>
<path d="M19.8965 143.379C45.2759 151.207 47.6207 207.517 47.6207 207.931C49.8621 208.207 51.1724 207.207 51.1724 207.207C51.6896 203.897 48.931 147.104 22.6207 140.655C21.4138 141.069 19.931 142.931 19.8965 143.379Z" fill="#0D0D0D"/>
<path d="M31.8965 303.966C28.5862 303.966 25.4828 303.518 22.5517 302.621C12.4138 299.518 9.31035 293.035 9.13793 292.725L9.03448 289.552C9.68966 291.345 22.6207 312.518 58.0345 293.828C59.1724 287.621 63.3103 226.345 59.2069 218.345L61.3793 217.242C65.7586 225.828 61.7241 292.966 60.1034 295.345L59.931 295.587L59.6552 295.725C49.3793 301.207 40.069 303.966 31.8965 303.966Z" fill="#0D0D0D"/>
<path d="M32.5518 291.104C16.9655 291.104 9.37933 283.207 9.24139 283.069L9.51726 277.035C10.1035 277.621 25.2069 292.276 47.1725 283.138C51.5518 259.793 49.2759 221.276 49.2414 220.862L54.0345 219.793C54.138 221.448 56.5173 261.517 51.6897 285.345L51.4483 286.586L50.3104 287.104C43.7587 290 37.7931 291.104 32.5518 291.104Z" fill="#FF8400"/>
<path d="M32.3449 289.931C17.8966 289.931 9.41381 282.104 9.27588 282L9.37933 279.138C10.0345 279.724 26.069 293.862 48.4138 283.931C49.6897 279.897 52.7931 245.862 50.4483 221L52.8621 220.483C55.138 244.69 52.2759 283.655 50.1724 285.759L50 285.897L49.7931 286C43.4828 288.862 37.5862 289.931 32.3449 289.931Z" fill="#0D0D0D"/>
<path d="M61.9656 170.897C61.9656 172.793 60.7242 174.345 59.207 174.345C57.6897 174.345 56.4483 172.793 56.4483 170.897C56.4483 169 57.6897 167.448 59.207 167.448C60.7587 167.448 61.9656 169 61.9656 170.897Z" fill="#FF9D26"/>
<path d="M57.4483 181.069C57.4483 182.966 56.207 184.517 54.6897 184.517C53.1725 184.517 51.9311 182.966 51.9311 181.069C51.9311 179.173 53.1725 177.621 54.6897 177.621C56.207 177.621 57.4483 179.173 57.4483 181.069Z" fill="#FF9D26"/>
<path d="M67.3793 176.379C67.3793 178.276 66.1379 179.828 64.6206 179.828C63.1034 179.828 61.862 178.276 61.862 176.379C61.862 174.483 63.1034 172.931 64.6206 172.931C66.1379 172.931 67.3793 174.483 67.3793 176.379Z" fill="#FF9D26"/>
<path d="M58.6897 151.035C59.6552 154.449 58.2069 157.862 55.4483 158.655C52.6897 159.449 49.6552 157.276 48.6897 153.862C47.7241 150.414 49.1724 147.035 51.931 146.242C54.6897 145.449 57.7241 147.586 58.6897 151.035Z" fill="#FF9D26"/>
<path d="M62.3793 157.793L61.2414 159.586L60.1724 160.207L59 159.724L57.2414 154.483L60.6207 152.517L62.3793 157.793Z" fill="#16A89F"/>
<path d="M62.3448 160.828C62.3448 161.862 61.6207 163.138 60.7241 163.655C59.8276 164.172 59.069 163.759 59.069 162.724C59.069 161.69 59.7931 160.414 60.7241 159.897C61.5862 159.379 62.3448 159.793 62.3448 160.828Z" fill="#FF9D26"/>
<path d="M65.7586 155.828L64.6207 157.621L63.5517 158.241L62.3793 157.793L60.6207 152.517L64 150.552L65.7586 155.828Z" fill="#BA6000"/>
<path d="M65.7241 158.897C65.7241 159.931 65 161.207 64.069 161.724C63.1724 162.242 62.4483 161.828 62.4483 160.793C62.4483 159.759 63.1724 158.483 64.069 157.966C64.9655 157.414 65.7241 157.828 65.7241 158.897Z" fill="#FF9D26"/>
<path d="M69.1379 153.897L68 155.69L66.931 156.311L65.7586 155.828L64 150.552L67.4138 148.621L69.1379 153.897Z" fill="#9C251F"/>
<path d="M69.1034 156.931C69.1034 157.966 68.3793 159.241 67.4827 159.759C66.5862 160.276 65.8276 159.862 65.8276 158.828C65.8276 157.793 66.5517 156.517 67.4827 156C68.3448 155.483 69.1034 155.897 69.1034 156.931Z" fill="#FF9D26"/>
<path d="M72.5172 151.931L71.3793 153.724L70.3103 154.345L69.1379 153.897L67.4138 148.621L70.7931 146.655L72.5172 151.931Z" fill="#16A89F"/>
<path d="M72.4828 154.965C72.4828 156 71.7586 157.276 70.8621 157.793C69.9655 158.31 69.2414 157.897 69.2414 156.862C69.2414 155.828 69.9655 154.552 70.8621 154.034C71.7242 153.517 72.4828 153.931 72.4828 154.965Z" fill="#FF9D26"/>
<path d="M75.8965 149.966L74.7586 151.793L73.6896 152.379L72.5172 151.931L70.7931 146.655L74.1724 144.69L75.8965 149.966Z" fill="#BA6000"/>
<path d="M75.8621 153.035C75.8621 154.069 75.1379 155.345 74.2414 155.862C73.3448 156.379 72.6207 155.966 72.6207 154.931C72.6207 153.897 73.3448 152.621 74.2414 152.104C75.1034 151.552 75.8621 152 75.8621 153.035Z" fill="#FF9D26"/>
<path d="M62.9655 135.069L62.8276 135.034C62.6896 132.31 61.0689 129.483 57.8276 127C50.3103 121.207 37.1034 119.414 28.3103 123C24.5862 124.517 22.2758 126.793 21.4138 129.31H21.2414L21 131L20.3793 135.759C20.1034 138.759 21.7241 142 25.3448 144.827C32.8621 150.621 46.0689 152.414 54.862 148.793C59.2414 147 61.6896 144.172 62.1379 141.103L62.7931 136.345L62.9655 135.069Z" fill="#D1C9A8"/>
<path d="M55.6896 142.759C46.8965 146.345 33.6896 144.586 26.1724 138.759C18.6552 132.965 19.6897 125.345 28.4828 121.724C37.2759 118.103 50.4827 119.897 58 125.69C65.5172 131.517 64.4827 139.138 55.6896 142.759Z" fill="white"/>
<path d="M30.5517 122.241C30.5517 122.241 30.3448 129.241 29.3793 131.586C33.069 140.828 51.931 138.621 51.931 138.621L30.5517 122.241Z" fill="#C2A091"/>
<path d="M58.7586 104.104C64.5517 111.276 60.8965 134.311 60.2758 136.448C59.6551 138.586 57.1034 140.414 55.6896 140.414C46 140.414 37.6896 132.483 37.6896 132.483L34.931 126.69C34.931 126.69 32.0345 126.69 30.0345 124.104C28.0345 121.517 28.5172 116.035 30.0345 115.242C33.2414 114.035 36.1379 118.586 36.1379 118.586C36.1379 118.586 42.6896 113.104 43 109.276C57.6896 109.448 57.6896 103.483 58.7586 104.104Z" fill="#F0C6B4"/>
<path d="M67.931 108.759H67.7931C67.2414 105.759 65 102.862 61 100.552C51.7586 95.2415 36.8276 95.2415 27.5862 100.552C23.6897 102.828 21.4483 105.655 20.8621 108.586H20.6552V110.483H20.6897C20.8276 113.862 23.1035 117.242 27.5862 119.828C36.8276 125.173 51.7586 125.173 61 119.828C65.6207 117.173 67.931 113.655 67.931 110.173V108.759Z" fill="#0D0D0D"/>
<path d="M61 118.414C51.7586 123.724 36.8276 123.724 27.5862 118.414C18.3448 113.069 18.3448 104.448 27.5862 99.1034C36.8276 93.793 51.7586 93.793 61 99.1034C70.2069 104.448 70.2069 113.069 61 118.414Z" fill="#454545"/>
<path d="M62.3448 91.0345H26.2069L27.2069 106.173C27.2069 108.655 28.8621 111.173 32.1724 113.069C38.7586 116.897 49.4828 116.897 56.069 113.069C59.3793 111.173 61.0345 108.655 61.0345 106.173L62.3448 91.0345Z" fill="#232323"/>
<path d="M59.4138 110.311C60.4828 109 61.0345 107.552 61.0345 106.138L61.5172 100.483C60.8966 101.621 59.9655 102.69 58.6552 103.69L59.4138 110.311Z" fill="#2A4E68"/>
<path d="M58.6897 103.69C58.2069 104.069 57.6552 104.448 57.0345 104.793C56.3104 105.207 55.5173 105.586 54.7242 105.931L56.1035 113.069C57.5173 112.241 58.6207 111.31 59.4483 110.345L58.6897 103.69Z" fill="#E31B25"/>
<path d="M54.7241 105.931C53.2414 106.552 51.6552 107 50 107.345L50.6552 115.173C52.6207 114.69 54.4828 114 56.1034 113.069L54.7241 105.931Z" fill="white"/>
<path d="M49.9656 107.31C48.2414 107.655 46.4483 107.828 44.6207 107.862L44.8621 115.897C46.8276 115.862 48.7931 115.586 50.6207 115.172L49.9656 107.31Z" fill="#2A4E68"/>
<path d="M44.6552 107.862C42.5862 107.897 40.4828 107.724 38.4828 107.345L38.8966 115.414C40.8276 115.759 42.8621 115.931 44.8621 115.897L44.6552 107.862Z" fill="#E31B25"/>
<path d="M38.4828 107.379C36.7931 107.069 35.2069 106.621 33.6897 106L33.7931 113.897C35.3448 114.586 37.069 115.103 38.8621 115.448L38.4828 107.379Z" fill="white"/>
<path d="M33.7241 106C32.8621 105.655 32 105.241 31.2414 104.793C30.5517 104.414 29.9655 104 29.4138 103.552L29.8276 111.345C30.4828 111.966 31.2759 112.517 32.2069 113.069C32.7241 113.379 33.2759 113.655 33.8276 113.897L33.7241 106Z" fill="#2A4E68"/>
<path d="M29.3793 103.552C28.2759 102.69 27.4483 101.724 26.8621 100.759L27.2069 106.173C27.2069 107.966 28.069 109.759 29.7586 111.345L29.3793 103.552Z" fill="#E31B25"/>
<path d="M57.0689 98.4139C50 102.483 38.5862 102.483 31.5172 98.4139C24.4483 94.3449 24.4483 87.7242 31.5172 83.6552C38.5862 79.5863 50 79.5863 57.0689 83.6552C64.1034 87.7242 64.1034 94.3449 57.0689 98.4139Z" fill="#454545"/>
<path d="M115.619 358.206L118.895 375.24L122.171 358.206H115.619Z" fill="#16A89F"/>
<path d="M123.55 358.206V355.516H114.274V358.206C114.274 358.896 114.722 359.585 115.619 360.103C117.446 361.137 120.378 361.137 122.171 360.103C123.102 359.585 123.55 358.896 123.55 358.206Z" fill="#0A8074"/>
<path d="M122.171 357.413C120.343 358.447 117.412 358.447 115.619 357.413C113.791 356.378 113.791 354.689 115.619 353.62C117.446 352.585 120.378 352.585 122.171 353.62C123.998 354.689 123.998 356.378 122.171 357.413Z" fill="#24D2C1"/>
<path d="M122.171 355.344V122.551H115.619V355.379C115.619 355.861 115.929 356.344 116.584 356.723C117.86 357.447 119.929 357.447 121.24 356.723C121.86 356.31 122.205 355.827 122.171 355.344Z" fill="#7A4100"/>
<path d="M121.238 123.896C119.962 124.62 117.859 124.62 116.583 123.896C115.307 123.171 115.307 121.965 116.583 121.206C117.859 120.482 119.928 120.482 121.238 121.206C122.514 121.965 122.514 123.171 121.238 123.896Z" fill="#B56100"/>
<path d="M122.722 122.999V105.24H115.102V122.999C115.102 123.585 115.481 124.137 116.205 124.551C117.688 125.413 120.102 125.413 121.584 124.551C122.343 124.137 122.722 123.585 122.722 122.999Z" fill="#16A89F"/>
<path d="M121.584 106.792C120.102 107.654 117.688 107.654 116.205 106.792C114.722 105.93 114.722 104.551 116.205 103.689C117.688 102.826 120.102 102.826 121.584 103.689C123.067 104.551 123.067 105.964 121.584 106.792Z" fill="#24D2C1"/>
<path d="M124.309 106.137V102.999H113.515V106.137C113.515 106.93 114.033 107.723 115.102 108.344C117.205 109.551 120.619 109.551 122.722 108.344C123.757 107.723 124.309 106.93 124.309 106.137Z" fill="#0A8074"/>
<path d="M122.721 105.206C120.617 106.413 117.204 106.413 115.1 105.206C112.997 103.999 112.997 102.033 115.1 100.792C117.204 99.585 120.617 99.585 122.721 100.792C124.824 102.033 124.824 103.999 122.721 105.206Z" fill="#24D2C1"/>
<path d="M121.964 102.689V76.8955H115.86V102.689C115.86 103.137 116.171 103.585 116.757 103.93C117.964 104.62 119.895 104.62 121.067 103.93C121.653 103.585 121.964 103.137 121.964 102.689Z" fill="#16A89F"/>
<path d="M121.067 78.1368C119.86 78.8265 117.929 78.8265 116.757 78.1368C115.55 77.4472 115.55 76.3437 116.757 75.6541C117.964 74.9644 119.895 74.9644 121.067 75.6541C122.24 76.3437 122.24 77.4472 121.067 78.1368Z" fill="#24D2C1"/>
<path d="M129.998 70.6886C129.998 64.2403 125.446 56.3782 119.86 53.1368C117.24 51.6196 114.86 51.4127 113.033 52.2748L112.86 52.3782C112.757 52.4472 112.653 52.4817 112.55 52.5506L109.412 54.3437L110.205 55.6886C109.895 56.6541 109.722 57.7575 109.722 58.9989C109.722 65.4472 114.274 73.3093 119.86 76.5507C121.102 77.2748 122.274 77.6886 123.378 77.861L124.033 78.9989C124.033 78.9989 127.205 77.1714 127.481 76.9645L127.584 76.8955C129.102 75.7231 129.998 73.5851 129.998 70.6886Z" fill="#0A8074"/>
<path d="M126.791 72.5507C126.791 78.999 122.274 81.6197 116.653 78.4128C111.067 75.1714 106.515 67.3438 106.515 60.861C106.515 54.4128 111.067 51.7921 116.653 54.999C122.24 58.2404 126.791 66.1024 126.791 72.5507Z" fill="#16A89F"/>
<path d="M118.136 0.067831C114.55 -2.00114 114.481 51.792 114.481 51.792L125.309 58.0334C125.274 58.0334 121.722 2.1368 118.136 0.067831Z" fill="#0A8074"/>
<path d="M118.136 0.0678845C114.55 -2.00108 111.24 53.6541 111.24 53.6541L122.067 59.8955C122.067 59.861 121.722 2.13685 118.136 0.0678845Z" fill="#16A89F"/>
<path d="M116.964 208.413C116.964 210.861 116.136 212.792 115.136 212.792C114.136 212.792 113.309 210.827 113.309 208.413C113.309 205.999 114.136 204.034 115.136 204.034C116.136 204.034 116.964 205.999 116.964 208.413Z" fill="#D1C9A8"/>
<path d="M122.171 204.965C122.171 204.965 118.378 205.172 117.929 207.068C117.481 208.965 118.447 217.861 120.136 218.723C121.826 219.585 123.688 218.896 125.24 217.206C126.791 215.516 128.205 206.275 127.205 204.723C126.205 203.172 122.136 202.378 122.136 202.378V204.965H122.171Z" fill="#D1C9A8"/>
</svg>
