<svg width="38" height="42" viewBox="0 0 38 42" fill="none" xmlns="http://www.w3.org/2000/svg">
<path d="M37.4792 31.9375L31.8333 22.1875C32.9886 20.0656 33.5905 17.6868 33.5833 15.2708C33.5833 11.4031 32.0469 7.69376 29.312 4.95886C26.5771 2.22395 22.8677 0.6875 19 0.6875C15.1323 0.6875 11.4229 2.22395 8.68802 4.95886C5.95311 7.69376 4.41666 11.4031 4.41666 15.2708C4.40948 17.6868 5.01135 20.0656 6.16666 22.1875L0.520823 31.9375C0.337617 32.2548 0.241338 32.6148 0.2417 32.9812C0.242062 33.3476 0.339052 33.7075 0.522884 34.0244C0.706717 34.3414 0.97089 34.6042 1.28875 34.7865C1.60661 34.9688 1.96692 35.064 2.33332 35.0625H8.31249L11.3542 40.1875C11.4567 40.3574 11.583 40.5117 11.7292 40.6458C12.1154 41.0181 12.6303 41.227 13.1667 41.2292H13.4583C13.7728 41.1861 14.0734 41.0718 14.3369 40.8949C14.6005 40.7179 14.8202 40.4831 14.9792 40.2083L19 33.2917L23.0208 40.2708C23.1821 40.5417 23.4028 40.7725 23.6663 40.9457C23.9297 41.1189 24.229 41.2301 24.5417 41.2708H24.8333C25.3769 41.2741 25.9003 41.0648 26.2917 40.6875C26.4318 40.561 26.5513 40.4134 26.6458 40.25L29.6875 35.125H35.6667C36.0338 35.1265 36.3947 35.0309 36.713 34.848C37.0313 34.665 37.2956 34.4013 37.4792 34.0833C37.6738 33.7593 37.7767 33.3884 37.7767 33.0104C37.7767 32.6324 37.6738 32.2615 37.4792 31.9375V31.9375ZM13.1458 35.125L11.2917 32.0208C11.1091 31.7129 10.8502 31.4571 10.54 31.2783C10.2299 31.0995 9.87883 31.0037 9.52082 31H5.91666L8.89582 25.8333C10.9473 27.8102 13.5329 29.1428 16.3333 29.6667L13.1458 35.125ZM19 25.6875C16.9398 25.6875 14.9258 25.0766 13.2128 23.932C11.4998 22.7874 10.1647 21.1605 9.37624 19.2571C8.58783 17.3537 8.38155 15.2593 8.78348 13.2386C9.18541 11.218 10.1775 9.36193 11.6343 7.90514C13.0911 6.44834 14.9472 5.45625 16.9678 5.05432C18.9884 4.65239 21.0829 4.85868 22.9863 5.64709C24.8897 6.4355 26.5165 7.77063 27.6611 9.48364C28.8057 11.1967 29.4167 13.2106 29.4167 15.2708C29.4167 18.0335 28.3192 20.683 26.3657 22.6365C24.4122 24.59 21.7627 25.6875 19 25.6875V25.6875ZM28.4792 31C28.1211 31.0037 27.7701 31.0995 27.4599 31.2783C27.1498 31.4571 26.8909 31.7129 26.7083 32.0208L24.8542 35.125L21.6875 29.6042C24.4781 29.0696 27.0541 27.7382 29.1042 25.7708L32.0833 30.9375L28.4792 31Z" fill="#4923B4"/>
</svg>
