<svg width="40" height="38" viewBox="0 0 40 38" fill="none" xmlns="http://www.w3.org/2000/svg">
<path fill-rule="evenodd" clip-rule="evenodd" d="M16.8466 2.57123C18.2516 0.149838 21.7484 0.149845 23.1534 2.57123L27.4562 9.98656C27.8528 10.6701 28.5383 11.1365 29.3197 11.2545L36.4648 12.3337C39.5794 12.8041 40.6719 16.7366 38.2463 18.7461L33.0403 23.0593C32.3095 23.6647 31.966 24.6196 32.1435 25.5518L33.6018 33.2101C34.173 36.21 31.0238 38.5408 28.3217 37.118L21.2133 33.3751C20.4538 32.9753 19.5461 32.9753 18.7867 33.3751L11.6783 37.118C8.97618 38.5408 5.82696 36.21 6.3982 33.2101L7.8565 25.5518C8.034 24.6196 7.69042 23.6647 6.95971 23.0593L1.75366 18.7461C-0.671929 16.7366 0.420578 12.8041 3.53515 12.3337L10.6802 11.2545C11.4616 11.1365 12.1471 10.6701 12.5438 9.98656L16.8466 2.57123ZM20.4505 4.13962C20.2498 3.79371 19.7502 3.79371 19.5495 4.13962L15.2467 11.555C14.3741 13.0587 12.866 14.0848 11.1469 14.3445L4.00185 15.4237C3.55691 15.4909 3.40084 16.0526 3.74735 16.3397L8.9534 20.6529C10.561 21.9847 11.3168 24.0856 10.9263 26.1363L9.46804 33.7946C9.38644 34.2232 9.83632 34.5561 10.2223 34.3529L17.3307 30.61C19.0015 29.7303 20.9985 29.7303 22.6692 30.61L29.7776 34.3529C30.1636 34.5561 30.6135 34.2232 30.5319 33.7946L29.0736 26.1363C28.6831 24.0856 29.439 21.9847 31.0466 20.6529L36.2526 16.3397C36.5991 16.0526 36.4431 15.4909 35.9981 15.4237L28.853 14.3445C27.134 14.0848 25.6258 13.0587 24.7533 11.555L20.4505 4.13962Z" fill="#4923B4"/>
</svg>
