<svg width="42" height="37" viewBox="0 0 42 37" fill="none" xmlns="http://www.w3.org/2000/svg">
<path fill-rule="evenodd" clip-rule="evenodd" d="M21 0.811859L36.1534 1.2403C38.8309 1.31601 41.0455 3.34862 41.35 6.00987C42.024 11.9007 42.024 17.8492 41.35 23.7401C41.0455 26.4013 38.8309 28.434 36.1534 28.5097L24.6458 28.835V33.1042H31.4167C32.2796 33.1042 32.9792 33.8037 32.9792 34.6667C32.9792 35.5296 32.2796 36.2292 31.4167 36.2292H10.5833C9.72038 36.2292 9.02083 35.5296 9.02083 34.6667C9.02083 33.8037 9.72038 33.1042 10.5833 33.1042H17.3542V28.835L5.84657 28.5097C3.16903 28.434 0.954409 26.4013 0.649918 23.7401C-0.0240939 17.8492 -0.0240937 11.9007 0.649918 6.00987C0.954409 3.34862 3.16903 1.31601 5.84657 1.2403L21 0.811859ZM21 3.93811L5.93489 4.36405C4.81154 4.39582 3.88241 5.24859 3.75466 6.3651C3.10766 12.0199 3.10766 17.7301 3.75466 23.3849C3.88241 24.5014 4.81154 25.3542 5.93489 25.3859L21 25.8119L36.065 25.3859C37.1884 25.3542 38.1175 24.5014 38.2453 23.3849C38.8923 17.7301 38.8923 12.0199 38.2453 6.3651C38.1175 5.24859 37.1884 4.39582 36.065 4.36405L21 3.93811Z" fill="#4923B4"/>
</svg>
