<svg width="450" height="445" viewBox="0 0 450 445" fill="none" xmlns="http://www.w3.org/2000/svg">
<g clip-path="url(#clip0_7_208)">
<path d="M235.133 284.353C228.87 266.262 222.349 238.595 228.963 207.654C236.557 172.125 254.533 164.752 270.163 126.653C295.233 65.5438 275.003 21.115 289.339 16.6724C304.262 12.0478 341.865 55.3155 341.616 102.227C341.384 145.672 308.774 176.237 305.554 179.166C280.719 201.771 260.928 197.362 245.242 218.71C230.166 239.228 231.805 265.947 235.133 284.353Z" fill="url(#paint0_linear_7_208)"/>
<path opacity="0.5" d="M235.743 324.983C223.444 275.659 225.729 233.164 242.536 198.679C252.69 177.846 266.002 164.193 277.75 152.149C291.976 137.561 304.262 124.961 309.08 103.515C315.901 73.1614 304.269 38.4612 274.511 0.377797L274.997 -0.00154114C304.875 38.233 316.545 73.1059 309.682 103.649C304.824 125.266 292.482 137.923 278.191 152.579C266.477 164.59 253.2 178.204 243.089 198.949C226.348 233.299 224.078 275.652 236.342 324.834L235.743 324.983Z" fill="white"/>
<path opacity="0.5" d="M307.213 111.1L307.125 110.488C305.72 100.609 302.171 90.9857 296.858 82.6557C288.422 69.4282 277.332 61.8846 269.514 57.8861L269.794 57.3371C277.68 61.3711 288.868 68.981 297.378 82.3241C302.627 90.5539 306.171 100.037 307.646 109.788C315.278 101.982 321.224 92.52 324.863 82.3858C331.145 64.8946 329.596 49.0765 327.189 38.8868L327.788 38.7449C330.214 49.0148 331.774 64.9594 325.443 82.5924C321.705 93.0011 315.552 102.707 307.649 110.659L307.213 111.1Z" fill="white"/>
<path opacity="0.5" d="M270.82 160.252L271.214 159.701C275.057 154.341 281.378 143.075 280.519 127.855C279.731 113.906 273.224 103.959 269.415 99.271L269.893 98.8824C273.748 103.629 280.337 113.698 281.134 127.82C281.976 142.725 276.018 153.882 272.106 159.507C287.418 157.944 302.14 152.852 314.723 144.761C343.554 126.222 353.751 97.1383 356.798 85.4945L357.395 85.6503C354.331 97.3635 344.071 126.623 315.057 145.279C302.209 153.539 287.145 158.694 271.497 160.187L270.82 160.252Z" fill="white"/>
<path opacity="0.5" d="M239.873 205.85L239.857 205.543C239.504 198.389 239.504 191.142 239.857 184.001C240.618 168.616 243.035 153.205 247.043 138.199L247.638 138.358C243.643 153.322 241.233 168.688 240.474 184.031C240.127 191.049 240.123 198.172 240.459 205.207C257.438 204.395 273.709 200.443 288.827 193.455C323.019 177.651 341.702 150.374 349.796 135.521L350.337 135.815C342.208 150.736 323.438 178.136 289.087 194.015C273.805 201.077 257.352 205.055 240.181 205.836L239.873 205.85Z" fill="white"/>
<path d="M235.917 276.316C232.325 263.437 228.853 243.09 237.538 223.612C252.69 189.632 287.79 196.545 316.562 158.778C339.77 128.317 329.179 107.752 356.225 86.247C375.634 70.8129 401.153 65.4497 404.805 71.0596C408.731 77.0905 383.161 89.3172 371.528 119.542C356.391 158.873 383.036 181.438 366.916 206.096C354.655 224.852 334.669 218.79 291.094 239.922C265.76 252.206 247.288 266.49 235.917 276.316Z" fill="url(#paint1_linear_7_208)"/>
<path opacity="0.5" d="M229.958 321.148L229.342 321.147C229.392 274.107 240.977 240.34 263.776 220.784C274.619 211.483 285.127 207.675 295.287 203.995C307.776 199.469 319.574 195.194 330.431 181.112C340.138 168.523 341.947 157.336 343.864 145.49C345.629 134.577 347.455 123.291 355.395 109.703C367.301 89.3234 387.355 73.6178 414.999 63.021L415.22 63.5962C387.71 74.1421 367.761 89.7598 355.927 110.014C348.046 123.504 346.229 134.731 344.473 145.589C342.544 157.513 340.721 168.776 330.92 181.489C319.952 195.714 308.073 200.018 295.498 204.574C285.389 208.237 274.935 212.024 264.178 221.253C241.52 240.687 230.007 274.297 229.958 321.148Z" fill="white"/>
<path opacity="0.5" d="M345.97 136.58L345.68 135.774C343 128.31 341.774 120.596 342.041 112.844C342.667 94.5709 351.534 81.1275 356.764 74.7404L357.241 75.1306C352.06 81.4575 343.276 94.7729 342.656 112.864C342.404 120.258 343.52 127.62 345.976 134.756C350.168 123.499 356.424 115.362 364.579 110.566C373.148 105.529 380.954 105.747 389.219 105.98C394.328 106.124 399.611 106.273 405.145 105.08C422.091 101.428 436.994 85.9001 449.442 58.927L450.001 59.1845C437.468 86.3411 422.421 101.985 405.277 105.681C399.67 106.89 394.347 106.739 389.202 106.594C381.03 106.363 373.309 106.145 364.892 111.095C356.67 115.929 350.402 124.232 346.262 135.771L345.97 136.58Z" fill="white"/>
<path opacity="0.5" d="M326.843 185.942L326.794 185.621C325.725 178.628 325.07 171.507 324.845 164.452C324.363 149.381 325.821 134.193 329.175 119.314L329.776 119.45C326.433 134.278 324.98 149.413 325.46 164.434C325.68 171.356 326.319 178.343 327.353 185.208C337.549 183.045 347.013 178.932 355.483 172.981C368.364 163.933 375.807 152.708 379.782 144.884L380.331 145.163C376.323 153.049 368.822 164.365 355.838 173.484C347.209 179.544 337.56 183.714 327.161 185.877L326.843 185.942Z" fill="white"/>
<path opacity="0.5" d="M333.693 216.912C331.147 216.912 328.552 216.826 325.908 216.645C313.12 215.768 300.559 212.73 288.578 207.615L288.144 207.43L288.488 207.108C294.65 201.318 299.443 194.107 302.346 186.257C304.729 179.819 305.858 173.048 305.703 166.133L306.319 166.119C306.474 173.112 305.332 179.959 302.923 186.469C300.039 194.263 295.318 201.432 289.251 207.231C301.04 212.207 313.386 215.167 325.952 216.03C353.935 217.95 376.627 209.089 390.737 201.318L391.034 201.857C378.185 208.934 358.249 216.912 333.693 216.912Z" fill="white"/>
<path opacity="0.5" d="M307.191 244.186C303.811 240.076 296.423 232.786 284.921 230.146C264.767 225.518 249.005 239.116 247.274 240.682L246.715 241.188L246.759 240.436C247.196 233.19 248.556 226.05 250.803 219.216C254.608 207.643 260.823 197.142 269.275 188.004L269.726 188.422C261.335 197.495 255.165 207.921 251.387 219.409C249.233 225.961 247.899 232.795 247.421 239.734C250.837 236.826 266.004 225.173 285.057 229.546C296.736 232.227 304.234 239.625 307.665 243.796L307.191 244.186Z" fill="white"/>
<path d="M234.251 265.225C241.46 259.029 252.585 250.48 267.529 242.869C302.326 225.147 319.958 231.797 338.97 215.345C362.342 195.12 357.799 165.94 365.471 166.125C376.751 166.4 399.422 229.79 371.784 256.286C354.083 273.256 322.075 269.025 315.542 267.986C300.074 265.526 295.876 260.058 280.201 258.015C261.139 255.531 244.807 260.681 234.251 265.225Z" fill="url(#paint2_linear_7_208)"/>
<path opacity="0.5" d="M225.685 270.681L225.308 270.194C245.945 254.232 266.559 246.298 286.585 246.628C297.381 246.804 305.77 249.279 313.173 251.464C322.914 254.339 331.327 256.82 341.501 252.635C354.492 247.288 364.414 233.466 369.443 213.711C377.499 182.059 359.665 155.638 354.009 148.294L354.496 147.917C360.197 155.317 378.163 181.942 370.04 213.862C364.963 233.81 354.911 247.782 341.737 253.202C331.363 257.472 322.854 254.96 313 252.053C305.637 249.881 297.29 247.416 286.578 247.244C266.702 246.912 246.209 254.806 225.685 270.681Z" fill="white"/>
<path opacity="0.5" d="M362.709 232.083L362.825 231.475C364.542 222.405 364.542 213.224 362.825 204.189C360.933 194.234 356.871 184.547 351.078 176.175L351.583 175.825C357.424 184.266 361.52 194.033 363.429 204.073C365.122 212.981 365.159 222.03 363.543 230.977C368.413 228.473 374.994 223.924 379.796 216.175C390.035 199.654 384.1 181.47 382.806 177.994L383.383 177.78C384.694 181.305 390.709 199.735 380.319 216.5C375.256 224.67 368.25 229.335 363.263 231.808L362.709 232.083Z" fill="white"/>
<path opacity="0.5" d="M349.694 266.599C343.324 266.599 336.454 265.723 329.381 263.432C320.775 260.644 312.846 256.123 305.811 249.993L305.107 249.379L306.038 249.455C319.551 250.536 332.211 244.517 339.067 233.739C346.39 222.226 343.97 209.856 343.054 206.338L343.651 206.183C344.582 209.76 347.043 222.345 339.586 234.069C332.764 244.793 320.312 250.898 306.917 250.132C313.713 255.901 321.33 260.177 329.571 262.846C353.033 270.445 374.229 262.342 382.253 258.504L382.518 259.059C376.845 261.771 364.641 266.599 349.694 266.599Z" fill="white"/>
<path opacity="0.5" d="M315.423 281.682C312.121 274.616 304.265 261.672 288.743 254.366C282.211 251.292 275.145 249.594 267.743 249.318L267.725 248.702C280.118 247.494 289.139 243.987 294.538 238.281C295.023 237.768 295.651 237.057 296.602 235.981C297.881 234.533 299.814 232.345 302.781 229.082C305.744 225.823 308.741 222.587 311.691 219.461L312.14 219.884C309.193 223.006 306.198 226.24 303.239 229.495C300.274 232.756 298.343 234.941 297.067 236.388C296.112 237.469 295.481 238.183 294.988 238.704C289.984 243.993 281.964 247.424 271.12 248.925C277.39 249.527 283.393 251.165 289.008 253.808C304.704 261.198 312.646 274.28 315.983 281.42L315.423 281.682Z" fill="white"/>
<path d="M23.8304 273.235L186.659 283.156L367.443 272.738L189.137 329.269L23.8304 273.235Z" fill="url(#paint3_linear_7_208)"/>
<path d="M155.64 443.951L23.1443 392.28C10.1188 388.774 0 375.869 0 363.355V363.218C0 350.703 10.1188 342.307 23.1443 344.604L165.023 384.166L155.64 443.951Z" fill="url(#paint4_linear_7_208)"/>
<path d="M367.665 400.947L161.871 441.147C148.782 442.609 138.022 433.482 138.022 420.74V412.097C138.022 399.355 148.782 388.171 161.871 387.129L367.665 353.633C358.418 370.846 356.285 386.95 367.665 400.947Z" fill="url(#paint5_linear_7_208)"/>
<path d="M369.483 403.264L163.621 443.829C146.549 445.764 132.403 433.807 132.403 417.139V416.956C132.403 400.287 146.549 385.624 163.621 384.291L369.483 351.124C370.741 351.025 371.759 352.074 371.759 353.463C371.759 354.852 370.741 356.063 369.483 356.165L163.621 390.048C149.888 391.166 138.548 402.981 138.548 416.368V416.55C138.548 429.938 149.888 439.584 163.621 438.072L369.483 398.222C370.741 398.083 371.759 399.098 371.759 400.489C371.759 401.88 370.741 403.122 369.483 403.264Z" fill="url(#paint6_linear_7_208)"/>
<path d="M161.072 384.307L23.1427 344.604C10.1188 342.307 0 325.235 0 306.444V306.237C0 287.446 10.1188 272.534 23.1443 273.019L169.267 295.193L161.072 384.307Z" fill="url(#paint7_linear_7_208)"/>
<path d="M367.665 347.477L173.583 379.218C154.129 380.686 138.024 366.391 138.024 347.261V334.283C138.024 315.153 154.13 299.205 173.583 298.675L367.665 276.434C358.388 302.228 356.314 326.38 367.665 347.477Z" fill="url(#paint8_linear_7_208)"/>
<path d="M369.483 351.124L163.621 384.291C146.549 385.622 132.403 366.364 132.403 341.335V341.061C132.403 316.032 146.549 295.319 163.621 294.894L369.483 272.835C370.741 272.804 371.759 274.47 371.759 276.558C371.759 278.644 370.741 280.366 369.483 280.405L163.621 303.538C149.888 303.95 138.548 320.644 138.548 340.746V341.02C138.548 361.122 149.888 376.651 163.621 375.65L369.483 343.557C370.741 343.466 371.759 345.084 371.759 347.17C371.759 349.256 370.741 351.027 369.483 351.124Z" fill="url(#paint9_linear_7_208)"/>
<path opacity="0.5" d="M119.283 365.475L87.308 356.82C80.5817 338.461 81.0874 321.596 87.308 301.438L119.283 307.107C113.381 328.319 114.273 347.532 119.283 365.475Z" fill="white"/>
<path d="M373.352 262.286L21.6639 258.894V268.931C21.6639 271.656 23.1983 273.972 25.2754 274.383L124.722 294.148C125.902 294.382 127.1 294.444 128.29 294.333L369.531 271.799C371.685 271.598 373.352 269.275 373.352 266.476V262.286Z" fill="url(#paint10_linear_7_208)"/>
<path d="M260.138 246.016L25.5344 264.377C21.337 264.706 17.923 261.215 17.923 256.579V70.8468C17.923 66.2115 21.337 62.452 25.5344 62.452H260.14C263.598 62.452 266.394 65.8491 266.394 70.0403V237.939C266.394 242.129 263.597 245.746 260.138 246.016Z" fill="url(#paint11_linear_7_208)"/>
<path d="M263.879 246.016L29.2738 264.377C25.0749 264.706 21.6624 261.214 21.6624 256.579V70.8468C21.6624 66.2115 25.0764 62.452 29.2738 62.452H263.879C267.338 62.452 270.134 65.8491 270.134 70.0403V237.939C270.135 242.129 267.338 245.746 263.879 246.016Z" fill="url(#paint12_linear_7_208)"/>
<path d="M256.571 234.18L38.0603 250.127C34.6447 250.377 31.8676 247.512 31.8676 243.726V81.1182C31.8676 77.3341 34.6432 74.2532 38.0603 74.2377L256.57 73.237C259.423 73.2231 261.731 76.008 261.731 79.4544V227.561C261.731 231.008 259.424 233.972 256.571 234.18Z" fill="url(#paint13_linear_7_208)"/>
<path d="M154.862 67.533C154.862 69.2585 153.655 70.6618 152.164 70.6664C150.671 70.671 149.459 69.274 149.459 67.5438C149.459 65.8136 150.671 64.4104 152.164 64.4104C153.655 64.4089 154.862 65.8075 154.862 67.533Z" fill="white"/>
<path opacity="0.48" d="M207.355 195.077C189.268 184.3 175.048 197.956 161.324 184.483C153.003 176.315 157.088 170.224 146.85 158.018C135.51 144.499 128.128 149.043 116.731 136.875C102.321 121.49 109.529 109.519 97.1167 98.4737C82.0589 85.0735 65.8198 97.4761 51.4867 84.6248C45.3047 79.0812 41.9122 71.0242 40.1404 62.4536H26.1157C23.6577 62.4536 21.6624 64.6602 21.6624 67.3803V259.908C21.6624 262.63 23.6577 264.678 26.1157 264.485L265.216 245.689C266.389 245.597 267.43 244.838 268.098 243.739C250.595 243.032 239.842 236.534 232.969 229.817C219.523 216.675 221.856 203.717 207.355 195.077Z" fill="white"/>
<path d="M258.026 245.184L21.6624 264.51L124.721 284.991C125.9 285.225 127.098 285.287 128.289 285.176L373.35 262.286L261.783 245.315C260.537 245.125 259.279 245.082 258.026 245.184Z" fill="url(#paint14_linear_7_208)"/>
<path opacity="0.3" d="M56.1514 264.996L252.931 248.667L313.831 257.856L118.748 275.312L56.1514 264.996Z" fill="url(#paint15_linear_7_208)"/>
<path d="M244.383 135.948L200.886 113.481L155.256 89.9124L57.9524 140.17L58.2623 140.317V142.101L155.35 187.868L244.297 137.724V136.021L244.251 136.022L244.383 135.948Z" fill="white"/>
<path d="M211.756 161.799L155.256 193.746L93.1383 164.702V206.724C93.1383 213.611 98.3827 219.369 105.242 219.995C116.355 221.009 134.065 222.01 153.863 220.79C173.137 219.601 190.018 216.567 200.5 214.309C207.069 212.895 211.756 207.085 211.756 200.365V161.799Z" fill="white"/>
<path d="M244.331 201.45C243.705 201.484 243.759 200.927 243.759 200.243V139.88C243.759 138.516 242.488 137.649 241.234 137.678L155.914 139.68C155.233 139.695 154.679 139.118 154.679 138.404C154.679 137.691 155.233 137.089 155.914 137.074L241.234 135.177C243.74 135.122 244.901 137.123 244.901 139.852V200.181C244.901 200.864 244.957 201.415 244.331 201.45Z" fill="white"/>
<path d="M246.143 136.693C245.563 135.572 246.374 135.063 244.903 135.095L155.914 137.074C155.233 137.089 154.679 137.691 154.679 138.404C154.679 139.118 155.233 139.695 155.914 139.68L241.234 137.678C241.93 137.661 242.63 137.922 243.116 138.389L244.297 137.723L246.143 136.693Z" fill="url(#paint16_linear_7_208)"/>
<path d="M247.046 188.764L245.933 186.946C245.564 186.254 244.798 185.856 244.05 185.903C243.301 185.953 242.582 186.445 242.234 187.185L241.25 189.185C241.023 189.668 240.86 190.201 240.86 190.735V207.179C240.86 207.532 242.573 207.719 244.297 207.62C246.018 207.52 247.723 207.136 247.723 206.784V190.349C247.723 189.783 247.302 189.247 247.046 188.764Z" fill="white"/>
<path d="M334.493 345.582C329.253 350.179 321.352 349.805 316.481 344.82C310.408 338.606 299.019 334.388 278.605 347.306C242.146 370.381 282.443 435.648 305.471 437.556C328.498 439.463 336.174 433.73 347.687 437.556C359.201 441.382 375.511 415.778 382.228 392.6C388.943 369.422 371.674 341.907 354.404 338.874C345.904 337.38 339.495 341.192 334.493 345.582Z" fill="url(#paint17_linear_7_208)"/>
<path opacity="0.3" d="M364.587 415.49C364.587 415.49 364.587 415.49 355.819 420.911C347.051 426.333 343.374 405.257 327.252 392.017C311.13 378.777 279.45 388.308 281.148 365.548C281.995 354.202 287.691 345.841 293.191 340.308C288.934 341.597 284.098 343.832 278.607 347.306C242.147 370.381 282.445 435.648 305.472 437.556C328.499 439.463 336.175 433.73 347.688 437.556C357.573 440.84 370.994 422.432 378.843 402.49L364.587 415.49Z" fill="url(#paint18_linear_7_208)"/>
<path d="M328.567 349.479C328.567 349.479 345.048 322.633 317.227 314.959C289.406 307.284 277.572 296.986 277.572 296.986C277.572 296.986 284.607 319.361 289.725 336.188C294.843 353.014 319.441 356.817 328.567 349.479Z" fill="url(#paint19_linear_7_208)"/>
<path d="M336.16 318.188C331.363 318.741 333.283 311.238 328.683 316.245C324.68 320.603 323.973 344.609 323.858 350.76C323.842 351.56 324.468 352.225 325.267 352.262C326.111 352.3 326.814 351.627 326.811 350.783C326.751 337.557 341.017 322.63 342.556 319.597C344.155 316.444 340.957 317.634 336.16 318.188Z" fill="url(#paint20_linear_7_208)"/>
<path opacity="0.3" d="M316.653 333.865C314.476 321.807 305.141 324.03 286.274 307.72C283.233 305.093 280.703 302.585 278.592 300.226C280.724 307.03 285.793 323.249 289.727 336.188C294.289 351.192 314.342 355.841 325.102 351.469C321.545 348.322 318.293 342.946 316.653 333.865Z" fill="url(#paint21_linear_7_208)"/>
</g>
<defs>
<linearGradient id="paint0_linear_7_208" x1="322.254" y1="60.3215" x2="241.834" y2="189.82" gradientUnits="userSpaceOnUse">
<stop stop-color="#FCB148"/>
<stop offset="0.0521" stop-color="#FDBA46"/>
<stop offset="0.1424" stop-color="#FFC244"/>
<stop offset="0.3183" stop-color="#FFC444"/>
<stop offset="0.4849" stop-color="#FDB946"/>
<stop offset="0.7754" stop-color="#F99C4D"/>
<stop offset="0.8658" stop-color="#F8924F"/>
<stop offset="1" stop-color="#F8924F"/>
</linearGradient>
<linearGradient id="paint1_linear_7_208" x1="346.243" y1="84.8457" x2="281.915" y2="276.776" gradientUnits="userSpaceOnUse">
<stop stop-color="#AA80F9"/>
<stop offset="0.9964" stop-color="#6165D7"/>
</linearGradient>
<linearGradient id="paint2_linear_7_208" x1="388.74" y1="190.382" x2="199.704" y2="345.661" gradientUnits="userSpaceOnUse">
<stop offset="0.00359712" stop-color="#E38DDD"/>
<stop offset="1" stop-color="#9571F6"/>
</linearGradient>
<linearGradient id="paint3_linear_7_208" x1="23.8306" y1="301.004" x2="367.443" y2="301.004" gradientUnits="userSpaceOnUse">
<stop stop-color="#AA80F9"/>
<stop offset="0.9964" stop-color="#6165D7"/>
</linearGradient>
<linearGradient id="paint4_linear_7_208" x1="67.3635" y1="425.138" x2="90.3533" y2="372.847" gradientUnits="userSpaceOnUse">
<stop stop-color="#FFC444"/>
<stop offset="0.9964" stop-color="#F36F56"/>
</linearGradient>
<linearGradient id="paint5_linear_7_208" x1="138.022" y1="397.466" x2="367.665" y2="397.466" gradientUnits="userSpaceOnUse">
<stop offset="0.494" stop-color="#EAEDF3"/>
<stop offset="1" stop-color="white"/>
</linearGradient>
<linearGradient id="paint6_linear_7_208" x1="132.404" y1="397.577" x2="371.759" y2="397.577" gradientUnits="userSpaceOnUse">
<stop stop-color="#FFC444"/>
<stop offset="0.9964" stop-color="#F36F56"/>
</linearGradient>
<linearGradient id="paint7_linear_7_208" x1="101.726" y1="270.303" x2="59.8049" y2="411.513" gradientUnits="userSpaceOnUse">
<stop stop-color="#AA80F9"/>
<stop offset="0.9964" stop-color="#6165D7"/>
</linearGradient>
<linearGradient id="paint8_linear_7_208" x1="138.022" y1="327.878" x2="367.665" y2="327.878" gradientUnits="userSpaceOnUse">
<stop offset="0.494" stop-color="#EAEDF3"/>
<stop offset="1" stop-color="white"/>
</linearGradient>
<linearGradient id="paint9_linear_7_208" x1="132.404" y1="328.596" x2="371.759" y2="328.596" gradientUnits="userSpaceOnUse">
<stop stop-color="#AA80F9"/>
<stop offset="0.9964" stop-color="#6165D7"/>
</linearGradient>
<linearGradient id="paint10_linear_7_208" x1="170.129" y1="276.125" x2="145.398" y2="286.512" gradientUnits="userSpaceOnUse">
<stop stop-color="#40447E"/>
<stop offset="0.9964" stop-color="#3C3B6B"/>
</linearGradient>
<linearGradient id="paint11_linear_7_208" x1="136.865" y1="156.597" x2="109.395" y2="168.134" gradientUnits="userSpaceOnUse">
<stop stop-color="#40447E"/>
<stop offset="0.9964" stop-color="#3C3B6B"/>
</linearGradient>
<linearGradient id="paint12_linear_7_208" x1="21.663" y1="163.425" x2="270.134" y2="163.425" gradientUnits="userSpaceOnUse">
<stop stop-color="#40447E"/>
<stop offset="0.9964" stop-color="#3C3B6B"/>
</linearGradient>
<linearGradient id="paint13_linear_7_208" x1="196.735" y1="113.76" x2="57.1292" y2="227.24" gradientUnits="userSpaceOnUse">
<stop stop-color="#FF9085"/>
<stop offset="1" stop-color="#FB6FBB"/>
</linearGradient>
<linearGradient id="paint14_linear_7_208" x1="21.663" y1="265.18" x2="373.352" y2="265.18" gradientUnits="userSpaceOnUse">
<stop stop-color="#40447E"/>
<stop offset="0.9964" stop-color="#3C3B6B"/>
</linearGradient>
<linearGradient id="paint15_linear_7_208" x1="56.1521" y1="261.989" x2="313.832" y2="261.989" gradientUnits="userSpaceOnUse">
<stop stop-color="#40447E"/>
<stop offset="0.9964" stop-color="#3C3B6B"/>
</linearGradient>
<linearGradient id="paint16_linear_7_208" x1="213.83" y1="126.317" x2="77.621" y2="237.035" gradientUnits="userSpaceOnUse">
<stop stop-color="#FF9085"/>
<stop offset="1" stop-color="#FB6FBB"/>
</linearGradient>
<linearGradient id="paint17_linear_7_208" x1="342.365" y1="357.636" x2="278.081" y2="444.948" gradientUnits="userSpaceOnUse">
<stop stop-color="#FF9085"/>
<stop offset="1" stop-color="#FB6FBB"/>
</linearGradient>
<linearGradient id="paint18_linear_7_208" x1="342.365" y1="357.636" x2="278.081" y2="444.948" gradientUnits="userSpaceOnUse">
<stop stop-color="#FF9085"/>
<stop offset="1" stop-color="#FB6FBB"/>
</linearGradient>
<linearGradient id="paint19_linear_7_208" x1="300.426" y1="289.884" x2="317.694" y2="372.07" gradientUnits="userSpaceOnUse">
<stop stop-color="#A1F094"/>
<stop offset="1" stop-color="#4FC3BA"/>
</linearGradient>
<linearGradient id="paint20_linear_7_208" x1="345.076" y1="310.205" x2="311.963" y2="355.179" gradientUnits="userSpaceOnUse">
<stop stop-color="#311944"/>
<stop offset="1" stop-color="#6B3976"/>
</linearGradient>
<linearGradient id="paint21_linear_7_208" x1="294.549" y1="291.119" x2="311.817" y2="373.305" gradientUnits="userSpaceOnUse">
<stop stop-color="#38E8C7"/>
<stop offset="1" stop-color="#425F63"/>
</linearGradient>
<clipPath id="clip0_7_208">
<rect width="450" height="444.035" fill="white"/>
</clipPath>
</defs>
</svg>
