<svg width="500" height="389" viewBox="0 0 500 389" fill="none" xmlns="http://www.w3.org/2000/svg">
<g clip-path="url(#clip0_7_280)">
<path d="M215.131 303.353L189.756 324.998C189.756 324.998 171.614 318.259 168.401 305.321C161.845 278.926 134.479 285.54 122.518 286.884C104.48 288.913 89.6899 284.269 94.9807 268.558C100.968 250.782 68.6878 244.599 40.1255 251.364C12.1751 257.983 -18.1156 220.521 40.7979 201.58C75.98 190.268 98.2837 214.547 113.057 224.584C127.828 234.621 148.681 218.705 158.566 237.927C167.009 254.345 166.415 272.078 184.546 272.85C202.677 273.622 214.496 281.748 215.131 303.353Z" fill="url(#paint0_linear_7_280)"/>
<g opacity="0.5">
<path d="M206.566 314.677L205.941 315.047C205.666 314.725 177.968 282.551 138.936 257.535C102.978 234.489 49.7597 212.978 0.437256 241.379L-3.05176e-05 240.855C21.9562 228.212 46.4947 224.238 72.9345 229.042C94.0559 232.879 116.424 242.298 139.419 257.038C178.536 282.113 206.291 314.354 206.566 314.677Z" fill="#BEB8F2"/>
<path d="M83.8772 231.446L83.2774 231.843C67.3154 215.264 34.7708 200.133 34.4441 199.983L34.8175 199.425C35.1459 199.576 67.8218 214.77 83.8772 231.446Z" fill="#BEB8F2"/>
<path d="M66.1556 228.645C36.5873 234.694 25.2748 253.544 25.1642 253.733L24.4728 253.455C24.5851 253.262 36.0411 234.147 65.9706 228.025L66.1556 228.645Z" fill="#BEB8F2"/>
<path d="M163.381 275.045C131.461 259.17 90.7529 283.325 90.3796 283.589L89.8455 283.131C90.1825 282.844 131.571 258.483 163.776 274.498L163.381 275.045Z" fill="#BEB8F2"/>
<path d="M152.56 266.012L151.924 266.368C138.648 250.018 144.782 225.741 144.846 225.499L145.596 225.634C145.532 225.875 139.469 249.89 152.56 266.012Z" fill="#BEB8F2"/>
<path d="M201.448 310.063C190.583 302.556 168.556 308.06 168.335 308.116L168.11 307.507C169.03 307.272 190.755 301.843 201.939 309.574L201.448 310.063Z" fill="#BEB8F2"/>
<path d="M195.013 302.372L194.393 302.747C187.815 295.242 190.641 278.22 191.57 272.626C191.702 271.837 191.814 271.153 191.805 271.028L192.571 270.982C192.587 271.159 192.512 271.612 192.329 272.713C191.411 278.244 188.617 295.075 195.013 302.372Z" fill="#BEB8F2"/>
</g>
<path d="M116.633 272.397C109.615 278.577 111.072 286.727 113.238 292.487C114.183 292.711 114.657 293.04 115.547 293.441C123.577 297.055 127.931 297.176 136.523 299.701C138.373 300.243 144.384 300.467 146.849 300.427L151.441 300.292C151.441 300.292 165.373 284.531 155.517 276.996C145.662 269.461 156.606 253.097 161.119 243.835C163.89 238.146 162.965 234.807 163.579 232.581C170.083 209.02 180.899 204.199 177.351 195.458C173.432 185.809 159.128 188.921 154.198 178.611C148.631 166.969 163.133 155.183 154.902 145.145C153.491 143.423 151.984 141.687 149.169 140.189C142.217 136.493 134.747 138.674 131.15 132.161C123.92 119.072 107.24 111.104 92.4329 119.41C77.819 127.608 82.835 151.846 108.611 176.375C124.549 195.557 123.291 199.899 117.749 209.897C113.867 216.901 97.7582 233.753 107.812 244.311C117.862 254.869 124.654 265.333 116.633 272.397Z" fill="url(#paint1_linear_7_280)"/>
<g opacity="0.5">
<path d="M131.853 298.911L132.517 298.998C133.132 295.96 133.703 292.889 134.216 289.872C138.005 267.531 138.945 245.693 137.009 224.965C135.369 207.401 131.646 190.387 125.944 174.393C121.358 161.532 115.473 149.259 108.452 137.914C103.516 129.94 98.0745 122.502 92.2774 115.81C91.268 114.644 90.1514 113.494 89.0711 112.381C87.6331 110.899 86.1449 109.367 84.8969 107.784L84.3249 108.048C85.5883 109.652 87.0869 111.196 88.5353 112.688C89.6104 113.795 90.7218 114.94 91.7208 116.095C97.499 122.765 102.924 130.181 107.847 138.133C114.851 149.449 120.722 161.693 125.297 174.524C130.987 190.483 134.703 207.465 136.342 224.995C138.274 245.689 137.336 267.491 133.552 289.798C133.037 292.81 132.467 295.876 131.853 298.911Z" fill="#FCFDFE"/>
<path d="M131.193 194.187L131.855 194.112C127.256 172.139 150.833 138.991 151.072 138.66L150.482 138.404C150.244 138.737 126.556 172.038 131.193 194.187Z" fill="#FCFDFE"/>
<path d="M137.083 256.44L137.754 256.426C136.89 241.238 107.194 222.773 106.893 222.589L106.478 222.991C106.777 223.175 136.233 241.491 137.083 256.44Z" fill="#FCFDFE"/>
<path d="M136.608 265.08L137.274 265.157C138.992 255.35 148.151 242.765 163.063 229.719C163.814 229.063 163.814 229.063 163.833 228.967L163.169 228.884L163.501 228.925L163.212 228.792C163.169 228.841 162.885 229.088 162.557 229.375C147.559 242.492 138.343 255.172 136.608 265.08Z" fill="#FCFDFE"/>
<path d="M132.873 293.353L133.537 293.28C131.331 282.463 113.107 274.166 112.922 274.083L112.59 274.528C112.771 274.611 130.718 282.785 132.873 293.353Z" fill="#FCFDFE"/>
<path d="M132.814 299.177C138.311 291.519 146.865 284.862 158.964 278.825L158.592 278.389C146.4 284.474 137.775 291.189 132.225 298.921L132.814 299.177Z" fill="#FCFDFE"/>
<path d="M111.838 144.863L112.493 144.76C109.053 132.642 109.074 119.341 109.081 114.97C109.083 113.912 109.081 113.54 109.052 113.409L108.391 113.491C108.412 113.59 108.412 114.195 108.41 114.961C108.404 119.347 108.383 132.691 111.838 144.863Z" fill="#FCFDFE"/>
<path d="M121.199 163.975L121.783 163.726C114.374 153.546 85.3481 147.078 84.1157 146.806L83.9412 147.303C84.2402 147.369 113.928 153.985 121.199 163.975Z" fill="#FCFDFE"/>
</g>
<path d="M125.648 316.261C127.881 316.218 134.755 333.398 142.67 321.849C144.647 318.964 147.769 308.665 164.159 309.584C167.341 309.762 170.523 309.94 173.704 310.118C177.166 304.435 179.162 298.546 169.825 295.456C155.325 290.655 157.885 269.941 163.031 262.976C169.398 254.355 183.703 234.043 161.435 226.345C142.898 219.937 129.259 218.774 130.655 199.263C132.052 179.753 120.261 166.498 97.6666 165.732C73.8886 164.927 58.0147 138.632 37.5103 145.22C1.78372 156.698 26.2721 202.051 65.504 217.938C104.736 233.825 79.5907 243.395 76.2427 259.172C76.0319 260.651 75.8417 262.957 76.2393 265.716C78.6902 282.696 99.1842 287.343 112.408 302.209C130.445 322.485 121.887 316.335 125.648 316.261Z" fill="url(#paint2_linear_7_280)"/>
<g opacity="0.5">
<path d="M144.889 306.114L146.006 306.032C138.485 242.037 91.3786 181.269 23.0693 147.445L22.4696 148.189C90.4901 181.871 137.398 242.384 144.889 306.114Z" fill="#FCFDFE"/>
<path d="M136.975 271.503L138.089 271.595C141.527 246.474 171.635 229.162 171.937 228.991L171.282 228.279C170.976 228.453 140.468 245.987 136.975 271.503Z" fill="#FCFDFE"/>
<path d="M143.095 294.371L144.134 294.037C131.779 270.346 73.199 262.288 72.6096 262.209L72.4195 263.076C73.0037 263.155 130.977 271.131 143.095 294.371Z" fill="#FCFDFE"/>
<path d="M104.822 213.809L105.894 213.546C98.1765 194.162 117.509 166.917 117.704 166.644L116.728 166.213C116.529 166.489 96.9631 194.066 104.822 213.809Z" fill="#FCFDFE"/>
<path d="M73.294 181.364L73.9802 180.668C50.617 166.542 10.9669 169.995 10.5676 170.032L10.6955 170.905C11.0896 170.868 50.2956 167.459 73.294 181.364Z" fill="#FCFDFE"/>
</g>
<path d="M97.9553 364.913L199.628 361.644V186.178L97.9553 184.124V364.913Z" fill="url(#paint3_linear_7_280)"/>
<path d="M24.1738 360.999L97.9553 364.913V184.124L24.1738 187.134V360.999Z" fill="url(#paint4_linear_7_280)"/>
<path opacity="0.3" d="M103.447 364.743L200.04 361.644V186.769C193.855 188.483 179.798 194.948 179.798 215.646C179.798 223.068 177.667 230.775 169.424 234.654C160.305 238.945 148.795 239.083 139.085 242.008C117.442 248.529 112.339 270.428 122.058 286.097C126.158 292.706 132.418 298.035 135.803 305.09C138.717 311.166 139.695 317.665 138.089 324.1C135.111 336.029 125.071 345.944 115.288 354.582C111.382 358.03 107.458 361.38 103.447 364.743Z" fill="url(#paint5_linear_7_280)"/>
<path d="M271.782 251.759V373.521L280.049 373.105L370.121 368.532V249.507L271.782 251.759Z" fill="url(#paint6_linear_7_280)"/>
<path d="M185.932 367.699L271.796 373.522V251.756L185.932 250.328V367.699Z" fill="url(#paint7_linear_7_280)"/>
<path d="M369.958 249.507L276.595 246.283L185.932 250.329L272.819 252.89L369.958 249.507Z" fill="url(#paint8_linear_7_280)"/>
<path opacity="0.3" d="M280.056 373.105L370.121 368.532V250.88C363.936 252.593 350.107 259.058 350.107 279.756C350.107 305.347 323.158 294.572 307.918 305.616C292.68 316.661 291.403 330.367 302.752 347.084C312.393 361.291 290.45 364.394 280.056 373.105Z" fill="url(#paint9_linear_7_280)"/>
<path d="M453.771 221.837C453.771 221.837 204.599 242.196 128.69 75.2886L105.852 98.5774L130.773 5.25565L192.253 64.9144L161.071 64.0398C161.071 64.0398 199.307 180.703 453.771 221.837Z" fill="#D8DEE8"/>
<path d="M438.857 239.887L442.837 244.543C442.837 244.543 443.657 247.489 441.232 246.497L434.045 240.325L438.857 239.887Z" fill="url(#paint10_linear_7_280)"/>
<path d="M349.52 147.684C354.843 162.019 365.428 183.805 387.293 206.09C403.479 222.588 420.691 234.104 434.069 241.718C434.989 241.889 436.548 242.081 438.416 241.823C439.804 241.63 440.886 241.255 441.61 240.947C440.383 236.894 438.02 230.93 433.091 224.588C424.07 212.985 416.987 213.667 408.053 203.467C401.511 195.998 398.89 187.881 393.653 171.648C389.609 159.112 389.346 156.086 384.992 152.627C376.187 145.633 360.841 146.196 349.52 147.684Z" fill="url(#paint11_linear_7_280)"/>
<g opacity="0.2">
<path d="M430.26 227.419C427.107 224.046 421.733 220.619 411.133 213.861C400.178 206.877 400.69 208.201 398.47 206.095C388.534 196.663 392.549 185.968 389.209 173.407C387.346 166.399 382.532 157.34 369.95 147.497C375.496 148.051 380.889 149.518 384.99 152.628C390.027 156.448 390.022 160.396 393.651 171.649C398.889 187.882 401.507 195.999 408.051 203.468C416.987 213.668 424.068 212.985 433.089 224.59C438.019 230.931 440.383 236.895 441.608 240.948C440.886 241.255 439.804 241.632 438.414 241.824C437.313 241.976 436.325 241.971 435.505 241.906C435.45 233.581 431.86 229.131 430.26 227.419Z" fill="url(#paint12_linear_7_280)"/>
</g>
<path d="M445.28 243.898L445.942 254.335C445.983 254.979 445.109 255.326 444.599 254.871C444.097 254.423 443.664 253.782 443.686 252.919C443.74 250.92 440.226 246.724 440.713 244.655C440.872 243.978 442.566 243.305 443.024 242.992C443.921 242.378 445.216 242.897 445.28 243.898Z" fill="url(#paint13_linear_7_280)"/>
<path d="M288.399 180.525L282.42 185.76C282.42 185.76 280.628 185.748 279.679 183.794L284.15 177.403L288.399 180.525Z" fill="url(#paint14_linear_7_280)"/>
<path d="M280.187 188.876L270.392 181.499C269.789 181.045 270.188 180.217 271.002 180.227C271.804 180.237 272.724 180.432 273.472 181.094C275.202 182.623 281.767 183.479 283.208 185.345C283.678 185.954 282.906 187.559 282.814 188.089C282.634 189.13 281.127 189.583 280.187 188.876Z" fill="url(#paint15_linear_7_280)"/>
<path d="M281.819 179.892C281.845 179.902 282.405 180.133 286.902 183.501C287.59 183.475 288.345 183.297 289.156 182.993C296.875 180.112 309.46 165.714 313.036 157.683C316.996 148.81 327.148 157.765 360.929 165.892C386.48 172.043 391.966 159.521 393.116 153.055C393.489 150.974 394.849 148.156 394.849 148.156C394.849 148.156 380.991 144.688 364.894 141.118C348.187 137.413 332.026 138.031 312.927 139.136C293.831 140.238 281.819 179.892 281.819 179.892Z" fill="url(#paint16_linear_7_280)"/>
<path opacity="0.3" d="M313.038 157.683C316.997 148.81 327.15 157.765 360.931 165.892C386.482 172.042 391.968 159.521 393.117 153.055C390.781 153.333 387.291 154.455 382.121 156.969C375.707 160.089 368.539 162.144 361.173 162.941C354.375 163.673 346.768 159.863 344.051 158.678C334.251 154.408 332.793 145.222 325.135 145.171C317.568 145.122 311.034 152.961 305.788 159.382C300.259 166.139 300.736 168.246 296.543 174.345C294.317 177.59 291.795 180.459 289.156 182.993C296.875 180.112 309.46 165.712 313.038 157.683Z" fill="url(#paint17_linear_7_280)"/>
<path d="M312.994 53.0381C312.714 52.5828 312.597 50.703 313.231 49.7222C313.865 48.7413 315.075 47.3153 314.344 46.2756C313.613 45.2359 314.083 42.0837 311.684 42.2963C309.285 42.5088 305.666 45.2029 307.534 47.5781C309.403 49.9548 309.391 52.4076 309.197 53.0596C309.002 53.713 312.994 53.0381 312.994 53.0381Z" fill="url(#paint18_linear_7_280)"/>
<path d="M307.405 52.8514C307.246 58.3731 307.826 63.2442 309.005 67.5467C312.986 82.1185 323.781 90.1433 335.606 94.6167C352.757 101.112 372.079 100.131 375.958 100.808C376.569 100.918 376.905 100.967 376.905 100.967C376.905 100.967 374.533 90.6632 373.427 81.7954C370.192 81.3962 367.198 80.8017 364.422 80.0707C364.31 80.042 364.197 80.0075 364.085 79.9788C362.745 79.614 361.47 79.2177 360.237 78.7868C347.919 74.5117 336.729 79.7677 325.306 69.606C318.396 63.4625 315.136 52.0142 315.136 52.0142L312.92 52.2554L307.405 52.8514Z" fill="url(#paint19_linear_7_280)"/>
<path opacity="0.3" d="M309.003 67.5482C312.984 82.12 323.78 90.1447 335.604 94.6181C339.507 94.6784 343.223 94.7761 346.332 96.6128C353.305 100.734 365.094 93.9288 365.094 93.9288C365.094 93.9288 365.132 87.1362 365.169 81.6504C363.758 81.6576 362.395 81.6159 361.06 81.5226C347.741 80.6006 339.211 89.7369 324.435 82.1214C317.495 78.5513 311.397 70.8339 309.003 67.5482Z" fill="url(#paint20_linear_7_280)"/>
<path d="M364.552 66.8244C363.02 64.8455 362.497 64.9015 362.049 63.8259C361.027 61.3759 362.481 58.0313 364.038 57.8561C365.043 57.7426 365.285 59.0365 367.666 60.8848C370.584 63.148 372.129 62.6885 373.93 64.7162C374.352 65.1901 376.248 67.3241 375.46 69.1034C374.454 71.3738 369.486 72.1393 367.189 70.6472C366.099 69.9406 366.437 69.2628 364.552 66.8244Z" fill="url(#paint21_linear_7_280)"/>
<path d="M368.582 68.7602C368.582 68.7602 368.173 72.8027 369.205 75.9736C370.136 78.84 377.007 81.3186 378.358 82.0812C379.71 82.8438 375.277 84.1707 371.047 84.0687C366.818 83.9682 355.021 81.8945 353.077 80.3479C351.132 78.8012 354.993 79.3182 358.115 78.7308C361.237 78.1435 363.715 73.4877 363.532 71.2331C363.349 68.9799 368.582 68.7602 368.582 68.7602Z" fill="url(#paint22_linear_7_280)"/>
<path d="M367.583 71.8348C367.583 71.8348 364.531 73.2709 361.472 71.6295C358.732 70.1604 361.867 64.6703 364.436 64.3874C365.293 64.2926 366.61 64.699 367.443 65.3854C367.936 65.7904 367.996 66.0834 368.816 66.7325C369.571 67.3313 369.875 67.3658 370.017 67.6745C370.195 68.0623 370.055 68.7458 368.46 70.0369C369.308 69.8315 370.076 69.9579 370.416 70.3514C370.47 70.4146 370.591 70.6156 370.589 70.8324C370.582 71.6223 369.4 72.0876 367.583 71.8348Z" fill="url(#paint23_linear_7_280)"/>
<path d="M225.048 27.0739L225.812 67.0584C225.895 71.3667 229.083 75.313 234.631 78.4982C235.96 79.2607 237.363 79.9831 238.941 80.6537C247.552 84.3243 259.598 86.5201 272.919 86.3449C286.24 86.1697 298.161 83.6566 306.628 79.7619C314.64 76.0813 319.443 71.1685 319.341 65.8249L318.577 25.8403L225.048 27.0739Z" fill="url(#paint24_linear_7_280)"/>
<path opacity="0.3" d="M234.518 78.4996C235.848 79.2622 237.306 79.9845 238.886 80.6551C247.497 84.3257 259.572 86.5215 272.891 86.3463C286.212 86.1711 298.147 83.658 306.615 79.7619C314.626 76.0813 319.443 71.1685 319.341 65.8248L318.945 45.1339C312.68 47.6341 303.213 52.4923 301.63 60.1624C299.155 72.1651 279.463 76.479 259.731 74.0363C251.039 72.9578 242.025 74.9496 234.518 78.4996Z" fill="url(#paint25_linear_7_280)"/>
<path d="M200.334 31.2141L270.174 1.40265L341.118 29.3587L343.897 29.3228L343.914 30.2706L271.331 61.2768L197.598 32.1992L197.58 31.25L200.334 31.2141Z" fill="url(#paint26_linear_7_280)"/>
<path d="M270.148 0.0355225L343.937 29.1117L271.296 60.1179L197.508 31.0418L270.148 0.0355225Z" fill="url(#paint27_linear_7_280)"/>
<path d="M198.659 72.7453C199.196 72.7381 199.513 72.3719 199.504 71.9267L198.752 32.5482C198.735 31.6578 199.646 30.7473 200.717 30.733L270.717 29.811C271.254 29.8038 271.685 29.5296 271.676 29.0829C271.668 28.6363 271.227 28.3735 270.691 28.3807L200.691 29.3027C198.546 29.3314 196.998 30.789 197.032 32.5712L197.784 71.9497C197.791 72.3949 198.123 72.7524 198.659 72.7453Z" fill="url(#paint28_linear_7_280)"/>
<path d="M196.203 65.6195L196.977 64.3859C197.285 63.9178 197.857 63.6277 198.498 63.6277C199.139 63.6277 199.72 63.9192 200.028 64.3874L200.833 65.6497C201.034 65.9541 201.12 66.2959 201.125 66.6434L201.329 77.3565C201.334 77.5863 200.232 77.7874 198.756 77.8075C197.279 77.8276 196.17 77.6552 196.166 77.4255L195.961 66.6822C195.954 66.3103 195.988 65.9455 196.203 65.6195Z" fill="url(#paint29_linear_7_280)"/>
<path d="M285.908 87.8198C285.908 87.8198 283.302 87.7523 283.575 83.6049C283.789 80.3551 283.175 79.3225 282.341 79.9702C281.506 80.6179 281.616 82.4747 281.616 82.4747C281.616 82.4747 278.002 80.424 276.243 77.4729C274.483 74.5217 273.94 77.1871 273.847 78.751C273.754 80.3134 276.609 84.8859 277.99 85.6628C279.371 86.4397 281.727 90.1965 281.727 90.1965L285.908 87.8198Z" fill="url(#paint30_linear_7_280)"/>
<path d="M279.331 90.2898C279.331 90.2898 281.044 97.8263 286.952 104.426L286.957 104.432C287.263 104.78 287.588 105.124 287.923 105.466C288.119 105.666 288.318 105.871 288.525 106.068C293.124 110.49 298.956 113.617 305.813 114.923C315.131 116.698 323.816 115.405 332.584 112.437C334.747 111.707 336.864 110.79 338.976 109.961C339.787 109.642 341.565 108.439 342.469 108.515C343.838 108.628 341.239 114.377 341.024 114.956C338.623 121.547 338.385 128.728 339.099 135.546C339.699 141.316 342.151 147.319 347.727 151.122C351.087 153.414 355.97 154.34 360.241 154.478C360.241 154.478 363.02 154.831 367.094 154.986C369.455 155.078 372.255 155.098 375.207 154.95C379.781 154.723 384.712 154.076 388.926 152.621C394.327 150.756 398.552 147.555 399.322 142.187C399.523 140.772 399.68 139.192 399.772 137.483C400.273 128.871 399.335 116.972 395.999 106.168C395.653 105.047 395.281 103.935 394.882 102.843C391.176 92.701 385.146 83.9998 375.945 80.6868C374.964 80.3278 373.942 80.0319 372.888 79.8065C348.576 74.582 337.066 80.5403 329.452 90.2295C321.839 99.9129 299.357 107.033 285.998 84.8557L279.331 90.2898Z" fill="url(#paint31_linear_7_280)"/>
<path opacity="0.3" d="M286.956 104.431C287.261 104.778 287.586 105.123 287.922 105.465C288.117 105.664 288.316 105.87 288.523 106.066C293.123 110.488 298.954 113.616 305.811 114.921C315.129 116.696 323.814 115.404 332.583 112.435C334.745 111.706 336.862 110.788 338.974 109.96C339.785 109.641 341.564 108.437 342.468 108.514C343.836 108.627 341.237 114.376 341.023 114.954C338.622 121.546 338.383 128.726 339.097 135.545C339.697 141.315 342.149 147.318 347.725 151.12C351.085 153.412 355.968 154.339 360.239 154.476C360.239 154.476 363.019 154.83 367.092 154.985C369.453 155.077 372.254 155.097 375.206 154.949C380.277 154.349 385.061 153.585 388.924 152.62C394.326 150.754 398.55 147.553 399.321 142.185C399.521 140.771 399.679 139.191 399.77 137.482C398.69 134.718 395.634 132.217 388.563 131.234C370.195 128.683 368.795 131.511 368.816 121.451C368.83 111.39 367.642 104.711 356.732 105.031C345.821 105.354 347.433 93.6315 337.284 97.7172C327.135 101.803 308.264 122.587 286.956 104.431Z" fill="url(#paint32_linear_7_280)"/>
<path d="M169.778 387.749L239.612 386.132C247.577 385.829 253.918 377.543 253.918 367.654V367.545C253.918 357.656 247.577 349.502 239.612 349.367L164.892 347.268L169.778 387.749Z" fill="url(#paint33_linear_7_280)"/>
<path d="M46.194 382.889L162.168 386.689C173.017 387.045 181.924 380.457 181.924 371.971V366.214C181.924 357.728 173.017 350.763 162.168 350.658L46.194 349.54V382.889Z" fill="#F4F7FA"/>
<path d="M45.0722 384.63L167.737 388.8C177.218 389.122 185.016 380.368 185.016 369.281V369.159C185.016 358.073 177.218 348.987 167.737 348.906L45.0722 347.864C44.2944 347.857 43.6653 348.646 43.6653 349.627C43.6653 350.608 44.2944 351.409 45.0722 351.418L167.737 352.762C175.37 352.845 181.635 360.169 181.635 369.087V369.209C181.635 378.127 175.37 385.184 167.737 384.945L45.0722 381.077C44.2944 381.053 43.6653 381.828 43.6653 382.808C43.6653 383.787 44.2944 384.604 45.0722 384.63Z" fill="url(#paint34_linear_7_280)"/>
<path d="M173.968 347.934L240.444 349.178C246.554 349.293 251.424 345.273 251.424 340.202V336.763C251.424 331.692 246.554 327.329 240.444 327.013L173.968 323.565V347.934Z" fill="#D8DEE8"/>
<path d="M183.323 349.038L239.611 350.347C247.575 350.482 253.917 345.231 253.917 338.644V338.572C253.917 331.986 247.575 326.288 239.611 325.862L183.323 322.204C182.336 322.152 170.885 322.767 170.885 323.488C170.885 324.209 181.581 324.754 182.561 324.803L239.613 328.228C246.047 328.55 251.191 333.144 251.191 338.475V338.548C251.191 343.879 246.047 348.111 239.613 347.979L183.324 346.443C182.344 346.422 170.887 347.156 170.887 347.875C170.885 348.596 182.338 349.02 183.323 349.038Z" fill="url(#paint35_linear_7_280)"/>
<path d="M46.194 346.689L181.924 347.73V323.43L46.194 324.477V346.689Z" fill="#F4F7FA"/>
<path d="M45.0722 325.744L183.324 324.797C184.257 324.792 185.016 324.204 185.016 323.488C185.016 322.771 184.257 322.195 183.324 322.204L45.0722 323.377C44.2944 323.384 43.6653 323.919 43.6653 324.572C43.6653 325.224 44.2944 325.75 45.0722 325.744Z" fill="url(#paint36_linear_7_280)"/>
<path d="M45.0722 347.864L183.324 349.038C184.257 349.046 185.016 348.471 185.016 347.755C185.016 347.038 184.257 346.451 183.324 346.445L45.0722 345.497C44.2944 345.491 43.6653 346.017 43.6653 346.67C43.6653 347.322 44.2944 347.857 45.0722 347.864Z" fill="url(#paint37_linear_7_280)"/>
<path opacity="0.5" d="M188.496 383.25L203.339 382.545C206.926 374.049 206.656 365.856 203.339 355.888L188.496 355.926C191.47 366.102 191.017 375.102 188.496 383.25Z" fill="white"/>
<path d="M219.263 350.154L219.735 334.771L236.774 350.355C236.774 350.355 245.981 354.478 244.4 361.719L233.867 358.238L224.511 360.932C224.511 360.932 224.276 353.328 219.263 350.154Z" fill="#D8DEE8"/>
<path d="M238.691 335.735L219.737 334.772C219.737 334.772 228.652 340.4 224.513 360.932C224.513 360.932 232.615 358.794 236.141 355.132L244.403 361.72C244.4 361.719 249.445 343.465 238.691 335.735Z" fill="url(#paint38_linear_7_280)"/>
<path d="M405.991 314.841V381.575L412.472 381.235L500 376.688V310.628L405.991 314.841Z" fill="url(#paint39_linear_7_280)"/>
<path d="M304.686 375.848L405.865 381.573V314.838L304.686 311.094V375.848Z" fill="url(#paint40_linear_7_280)"/>
<path d="M499.895 310.626L405.578 307.733L304.686 311.094L405.865 314.838L499.895 310.626Z" fill="url(#paint41_linear_7_280)"/>
<path opacity="0.3" d="M412.41 381.235L500 376.689V312.933C490.518 315.184 478.711 321.709 473.953 340.004C466.32 369.372 421.346 359.836 412.41 381.235Z" fill="url(#paint42_linear_7_280)"/>
</g>
<defs>
<linearGradient id="paint0_linear_7_280" x1="18.5934" y1="218.96" x2="201.979" y2="321.217" gradientUnits="userSpaceOnUse">
<stop stop-color="#FFC444"/>
<stop offset="0.9964" stop-color="#F36F56"/>
</linearGradient>
<linearGradient id="paint1_linear_7_280" x1="121.667" y1="112.397" x2="148.061" y2="332.922" gradientUnits="userSpaceOnUse">
<stop stop-color="#FFC444"/>
<stop offset="0.9964" stop-color="#F36F56"/>
</linearGradient>
<linearGradient id="paint2_linear_7_280" x1="67.9974" y1="155.441" x2="136.371" y2="328.358" gradientUnits="userSpaceOnUse">
<stop stop-color="#FF9085"/>
<stop offset="1" stop-color="#FB6FBB"/>
</linearGradient>
<linearGradient id="paint3_linear_7_280" x1="-154.774" y1="173.782" x2="121.852" y2="314.099" gradientUnits="userSpaceOnUse">
<stop offset="0.00359712" stop-color="#E38DDD"/>
<stop offset="1" stop-color="#9571F6"/>
</linearGradient>
<linearGradient id="paint4_linear_7_280" x1="75.2308" y1="256.388" x2="-2.90425" y2="416.996" gradientUnits="userSpaceOnUse">
<stop offset="0.00359712" stop-color="#E38DDD"/>
<stop offset="1" stop-color="#9571F6"/>
</linearGradient>
<linearGradient id="paint5_linear_7_280" x1="200.039" y1="275.756" x2="103.446" y2="275.756" gradientUnits="userSpaceOnUse">
<stop offset="0.00359712" stop-color="#E38DDD"/>
<stop offset="1" stop-color="#9571F6"/>
</linearGradient>
<linearGradient id="paint6_linear_7_280" x1="-33.4506" y1="186.26" x2="207.44" y2="309.589" gradientUnits="userSpaceOnUse">
<stop offset="0.00359712" stop-color="#E38DDD"/>
<stop offset="1" stop-color="#9571F6"/>
</linearGradient>
<linearGradient id="paint7_linear_7_280" x1="236.484" y1="301.365" x2="178.567" y2="420.413" gradientUnits="userSpaceOnUse">
<stop offset="0.00359712" stop-color="#E38DDD"/>
<stop offset="1" stop-color="#9571F6"/>
</linearGradient>
<linearGradient id="paint8_linear_7_280" x1="315.292" y1="198.156" x2="280.841" y2="267.325" gradientUnits="userSpaceOnUse">
<stop offset="0.00359712" stop-color="#E38DDD"/>
<stop offset="1" stop-color="#9571F6"/>
</linearGradient>
<linearGradient id="paint9_linear_7_280" x1="370.12" y1="311.993" x2="280.056" y2="311.993" gradientUnits="userSpaceOnUse">
<stop offset="0.00359712" stop-color="#E38DDD"/>
<stop offset="1" stop-color="#9571F6"/>
</linearGradient>
<linearGradient id="paint10_linear_7_280" x1="443.354" y1="243.666" x2="433.755" y2="241.896" gradientUnits="userSpaceOnUse">
<stop offset="0.003597" stop-color="#F36F56"/>
<stop offset="1" stop-color="#FFC444"/>
</linearGradient>
<linearGradient id="paint11_linear_7_280" x1="377.19" y1="168.187" x2="416.069" y2="249.266" gradientUnits="userSpaceOnUse">
<stop stop-color="#AB316D"/>
<stop offset="1" stop-color="#792D3D"/>
</linearGradient>
<linearGradient id="paint12_linear_7_280" x1="383.706" y1="167.615" x2="421.627" y2="246.697" gradientUnits="userSpaceOnUse">
<stop stop-color="#AB316D"/>
<stop offset="1" stop-color="#792D3D"/>
</linearGradient>
<linearGradient id="paint13_linear_7_280" x1="369.767" y1="279.346" x2="425.559" y2="246.401" gradientUnits="userSpaceOnUse">
<stop stop-color="#444B8C"/>
<stop offset="0.9964" stop-color="#26264F"/>
</linearGradient>
<linearGradient id="paint14_linear_7_280" x1="285.497" y1="184.083" x2="282.382" y2="178.368" gradientUnits="userSpaceOnUse">
<stop offset="0.003597" stop-color="#F36F56"/>
<stop offset="1" stop-color="#FFC444"/>
</linearGradient>
<linearGradient id="paint15_linear_7_280" x1="305.741" y1="116.069" x2="288.711" y2="173.723" gradientUnits="userSpaceOnUse">
<stop stop-color="#444B8C"/>
<stop offset="0.9964" stop-color="#26264F"/>
</linearGradient>
<linearGradient id="paint16_linear_7_280" x1="321.581" y1="135.648" x2="348.465" y2="201.608" gradientUnits="userSpaceOnUse">
<stop stop-color="#AB316D"/>
<stop offset="1" stop-color="#792D3D"/>
</linearGradient>
<linearGradient id="paint17_linear_7_280" x1="191.081" y1="170.556" x2="377.39" y2="155.475" gradientUnits="userSpaceOnUse">
<stop stop-color="#AB316D"/>
<stop offset="1" stop-color="#792D3D"/>
</linearGradient>
<linearGradient id="paint18_linear_7_280" x1="307.69" y1="50.4393" x2="302.38" y2="55.7042" gradientUnits="userSpaceOnUse">
<stop offset="0.003597" stop-color="#F36F56"/>
<stop offset="1" stop-color="#FFC444"/>
</linearGradient>
<linearGradient id="paint19_linear_7_280" x1="356.43" y1="41.2812" x2="317.121" y2="183.392" gradientUnits="userSpaceOnUse">
<stop offset="0.003597" stop-color="#F36F56"/>
<stop offset="1" stop-color="#FFC444"/>
</linearGradient>
<linearGradient id="paint20_linear_7_280" x1="344.064" y1="63.2343" x2="321.748" y2="143.912" gradientUnits="userSpaceOnUse">
<stop offset="0.003597" stop-color="#F36F56"/>
<stop offset="1" stop-color="#FFC444"/>
</linearGradient>
<linearGradient id="paint21_linear_7_280" x1="369.242" y1="68.7646" x2="367.562" y2="53.3801" gradientUnits="userSpaceOnUse">
<stop stop-color="#444B8C"/>
<stop offset="0.9964" stop-color="#26264F"/>
</linearGradient>
<linearGradient id="paint22_linear_7_280" x1="364.482" y1="54.789" x2="366.313" y2="118.262" gradientUnits="userSpaceOnUse">
<stop offset="0.003597" stop-color="#F36F56"/>
<stop offset="1" stop-color="#FFC444"/>
</linearGradient>
<linearGradient id="paint23_linear_7_280" x1="378.511" y1="60.7073" x2="364.084" y2="73.9525" gradientUnits="userSpaceOnUse">
<stop offset="0.003597" stop-color="#F36F56"/>
<stop offset="1" stop-color="#FFC444"/>
</linearGradient>
<linearGradient id="paint24_linear_7_280" x1="304.54" y1="564.116" x2="281.339" y2="26.2832" gradientUnits="userSpaceOnUse">
<stop stop-color="#AA80F9"/>
<stop offset="0.9964" stop-color="#6165D7"/>
</linearGradient>
<linearGradient id="paint25_linear_7_280" x1="278.253" y1="86.1652" x2="276.562" y2="46.9634" gradientUnits="userSpaceOnUse">
<stop stop-color="#AA80F9"/>
<stop offset="0.9964" stop-color="#6165D7"/>
</linearGradient>
<linearGradient id="paint26_linear_7_280" x1="262.987" y1="-12.1466" x2="270.547" y2="48.4057" gradientUnits="userSpaceOnUse">
<stop stop-color="#AA80F9"/>
<stop offset="0.9964" stop-color="#6165D7"/>
</linearGradient>
<linearGradient id="paint27_linear_7_280" x1="263.959" y1="-29.2532" x2="274.526" y2="105.026" gradientUnits="userSpaceOnUse">
<stop stop-color="#AA80F9"/>
<stop offset="0.9964" stop-color="#6165D7"/>
</linearGradient>
<linearGradient id="paint28_linear_7_280" x1="191.402" y1="-9.82138" x2="257.248" y2="123.084" gradientUnits="userSpaceOnUse">
<stop stop-color="#FFC444"/>
<stop offset="0.9964" stop-color="#F36F56"/>
</linearGradient>
<linearGradient id="paint29_linear_7_280" x1="202.936" y1="100.935" x2="198.482" y2="57.3861" gradientUnits="userSpaceOnUse">
<stop stop-color="#FFC444"/>
<stop offset="0.9964" stop-color="#F36F56"/>
</linearGradient>
<linearGradient id="paint30_linear_7_280" x1="282.977" y1="88.3527" x2="286.901" y2="99.2055" gradientUnits="userSpaceOnUse">
<stop offset="0.003597" stop-color="#F36F56"/>
<stop offset="1" stop-color="#FFC444"/>
</linearGradient>
<linearGradient id="paint31_linear_7_280" x1="366.613" y1="48.566" x2="309.801" y2="253.952" gradientUnits="userSpaceOnUse">
<stop offset="0.003597" stop-color="#F36F56"/>
<stop offset="1" stop-color="#FFC444"/>
</linearGradient>
<linearGradient id="paint32_linear_7_280" x1="389.343" y1="98.4644" x2="316.16" y2="161.07" gradientUnits="userSpaceOnUse">
<stop offset="0.003597" stop-color="#F36F56"/>
<stop offset="1" stop-color="#FFC444"/>
</linearGradient>
<linearGradient id="paint33_linear_7_280" x1="197.723" y1="336.172" x2="219.852" y2="425.885" gradientUnits="userSpaceOnUse">
<stop stop-color="#40447E"/>
<stop offset="0.9964" stop-color="#3C3B6B"/>
</linearGradient>
<linearGradient id="paint34_linear_7_280" x1="185.015" y1="368.336" x2="43.6653" y2="368.336" gradientUnits="userSpaceOnUse">
<stop stop-color="#40447E"/>
<stop offset="0.9964" stop-color="#3C3B6B"/>
</linearGradient>
<linearGradient id="paint35_linear_7_280" x1="256.687" y1="335.864" x2="164.447" y2="337.078" gradientUnits="userSpaceOnUse">
<stop stop-color="#FFC444"/>
<stop offset="0.9964" stop-color="#F36F56"/>
</linearGradient>
<linearGradient id="paint36_linear_7_280" x1="1088.12" y1="248.888" x2="1334.87" y2="221.288" gradientUnits="userSpaceOnUse">
<stop stop-color="#FFC444"/>
<stop offset="0.9964" stop-color="#F36F56"/>
</linearGradient>
<linearGradient id="paint37_linear_7_280" x1="1090.69" y1="271.87" x2="1337.44" y2="244.271" gradientUnits="userSpaceOnUse">
<stop stop-color="#FFC444"/>
<stop offset="0.9964" stop-color="#F36F56"/>
</linearGradient>
<linearGradient id="paint38_linear_7_280" x1="228.089" y1="353.141" x2="235.067" y2="340.706" gradientUnits="userSpaceOnUse">
<stop stop-color="#AA80F9"/>
<stop offset="0.9964" stop-color="#6165D7"/>
</linearGradient>
<linearGradient id="paint39_linear_7_280" x1="54.7303" y1="205.345" x2="262.153" y2="311.54" gradientUnits="userSpaceOnUse">
<stop offset="0.00359712" stop-color="#E38DDD"/>
<stop offset="1" stop-color="#9571F6"/>
</linearGradient>
<linearGradient id="paint40_linear_7_280" x1="356.736" y1="344.308" x2="316.255" y2="427.517" gradientUnits="userSpaceOnUse">
<stop offset="0.00359712" stop-color="#E38DDD"/>
<stop offset="1" stop-color="#9571F6"/>
</linearGradient>
<linearGradient id="paint41_linear_7_280" x1="431.5" y1="270.375" x2="395.105" y2="343.446" gradientUnits="userSpaceOnUse">
<stop offset="0.00359712" stop-color="#E38DDD"/>
<stop offset="1" stop-color="#9571F6"/>
</linearGradient>
<linearGradient id="paint42_linear_7_280" x1="500" y1="347.084" x2="412.41" y2="347.084" gradientUnits="userSpaceOnUse">
<stop offset="0.00359712" stop-color="#E38DDD"/>
<stop offset="1" stop-color="#9571F6"/>
</linearGradient>
<clipPath id="clip0_7_280">
<rect width="500" height="388.773" fill="white" transform="matrix(-1 0 0 1 500 0.0355225)"/>
</clipPath>
</defs>
</svg>
