<svg width="200" height="374" viewBox="0 0 200 374" fill="none" xmlns="http://www.w3.org/2000/svg">
<path d="M200 316.097L100 373.849V364.091L200 306.389V316.097Z" fill="#0A8074"/>
<path d="M100 373.849L0 316.097V306.389L100 364.091V373.849Z" fill="#16A89F"/>
<path d="M100 248.638L0 306.389L100 364.091L200 306.389L100 248.638Z" fill="#24D2C1"/>
<path d="M194.799 55.2254C194.799 55.2254 173.601 28.2813 147.4 13.1253C133.779 5.25012 121.545 2.1793 112.878 0.990589C108.717 0.346706 104.408 0 100 0C95.5919 0 91.2828 0.346706 87.1223 0.990589C78.4547 2.1793 66.2209 5.29965 52.6003 13.1253C26.3992 28.2318 5.20059 55.2254 5.20059 55.2254V64.5369L100 121.545L194.799 64.4874V55.2254Z" fill="#FF3F4A"/>
<path d="M194.799 306.389L100 361.119V161.615L194.799 106.835V306.389Z" fill="#9C251F"/>
<path d="M186.231 311.342L181.377 314.116V125.805L113.422 165.032V353.343L108.569 356.166V162.258L186.231 117.434V311.342Z" fill="#9C251F"/>
<path opacity="0.2" d="M186.231 311.342L181.377 314.116V125.805L113.422 165.032V353.343L108.569 356.166V162.258L186.231 117.434V311.342Z" fill="#0D0D0D"/>
<path d="M134.72 158.296V187.419L117.682 197.226V193.611L131.6 185.636V160.079L134.72 158.296Z" fill="#E31B25"/>
<path d="M131.6 160.079V185.636L117.682 193.611V168.103L131.6 160.079Z" fill="#1D374E"/>
<path d="M155.919 146.013V175.186L138.881 184.993V181.377L152.798 173.353V147.846L155.919 146.013Z" fill="#E31B25"/>
<path d="M152.798 147.845V173.353L138.881 181.377V155.82L152.798 147.845Z" fill="#1D374E"/>
<path d="M177.514 133.531V162.704L160.525 172.511V168.945L174.393 160.921V135.364L177.514 133.531Z" fill="#E31B25"/>
<path d="M174.393 135.364V160.921L160.525 168.945V143.388L174.393 135.364Z" fill="#1D374E"/>
<path d="M134.72 191.927V221.05L117.682 230.857V227.241L131.6 219.217V193.71L134.72 191.927Z" fill="#E31B25"/>
<path d="M131.6 193.71V219.217L117.682 227.241V201.733L131.6 193.71Z" fill="#1D374E"/>
<path d="M155.919 179.643V208.816L138.881 218.623V215.007L152.798 206.984V181.476L155.919 179.643Z" fill="#E31B25"/>
<path d="M152.798 181.476V206.984L138.881 215.008V189.45L152.798 181.476Z" fill="#1D374E"/>
<path d="M177.514 167.162V196.335L160.525 206.142V202.575L174.393 194.552V168.994L177.514 167.162Z" fill="#E31B25"/>
<path d="M174.393 168.995V194.552L160.525 202.576V177.018L174.393 168.995Z" fill="#1D374E"/>
<path d="M134.72 225.557V254.68L117.682 264.487V260.872L131.6 252.897V227.34L134.72 225.557Z" fill="#E31B25"/>
<path d="M131.6 227.34V252.898L117.682 260.872V235.364L131.6 227.34Z" fill="#1D374E"/>
<path d="M155.919 213.274V242.447L138.881 252.254V248.638L152.798 240.614V215.107L155.919 213.274Z" fill="#E31B25"/>
<path d="M152.798 215.106V240.614L138.881 248.638V223.081L152.798 215.106Z" fill="#1D374E"/>
<path d="M177.514 200.842V229.965L160.525 239.772V236.206L174.393 228.182V202.625L177.514 200.842Z" fill="#E31B25"/>
<path d="M174.393 202.625V228.182L160.525 236.206V210.599L174.393 202.625Z" fill="#1D374E"/>
<path d="M134.72 259.188V288.311L117.682 298.118V294.502L131.6 286.528V260.971L134.72 259.188Z" fill="#E31B25"/>
<path d="M131.6 260.971V286.528L117.682 294.502V268.994L131.6 260.971Z" fill="#1D374E"/>
<path d="M155.919 246.904V276.077L138.881 285.884V282.268L152.798 274.245V248.737L155.919 246.904Z" fill="#E31B25"/>
<path d="M152.798 248.737V274.245L138.881 282.269V256.711L152.798 248.737Z" fill="#1D374E"/>
<path d="M177.514 234.423V263.596L160.525 273.403V269.787L174.393 261.813V236.255L177.514 234.423Z" fill="#E31B25"/>
<path d="M174.393 236.256V261.813L160.525 269.787V244.279L174.393 236.256Z" fill="#1D374E"/>
<path d="M194.799 99.7524L100 154.483V161.615L194.799 106.835V99.7524Z" fill="#9C251F"/>
<path opacity="0.2" d="M194.799 99.7524L100 154.483V161.615L194.799 106.835V99.7524Z" fill="#0D0D0D"/>
<path d="M194.799 64.5369L100 119.267V126.399L194.799 71.6691V64.5369Z" fill="#9C251F"/>
<path opacity="0.2" d="M194.799 64.5369L100 119.267V126.399L194.799 71.6691V64.5369Z" fill="#0D0D0D"/>
<path d="M147.4 67.8555C121.199 82.9619 100 109.956 100 109.956V119.267L194.799 64.537V55.2254C194.799 55.2254 173.601 52.749 147.4 67.8555Z" fill="#9C251F"/>
<path d="M194.799 71.6692L100 126.399V154.482L194.799 99.7524V71.6692Z" fill="#9C251F"/>
<path d="M184.052 100.05L110.748 142.348V126.102L184.052 83.804V100.05Z" fill="#F5F5F5"/>
<path d="M120.456 125.359L118.128 126.696V125.755L123.725 122.536V123.477L121.397 124.814V132.689L120.406 133.234V125.359H120.456Z" fill="black"/>
<path d="M125.111 121.743L129.52 119.217V120.158L126.102 122.14V124.913L129.024 123.229V124.17L126.102 125.854V129.074L129.668 127.043V127.984L125.161 130.609V121.743H125.111Z" fill="black"/>
<path d="M131.253 118.177L132.244 117.633V125.508L135.562 123.576V124.517L131.253 126.994V118.177Z" fill="black"/>
<path d="M136.899 114.908L141.308 112.382V113.323L137.89 115.305V118.078L140.812 116.394V117.335L137.89 119.019V122.239L141.456 120.208V121.149L136.949 123.774V114.908H136.899Z" fill="black"/>
<path d="M143.041 111.392L145.369 110.054C147.053 109.064 148.192 109.064 148.192 111.045C148.192 112.927 147.053 114.413 145.369 115.404L143.982 116.196V119.663L142.992 120.208V111.392H143.041ZM145.27 114.512C146.607 113.769 147.251 112.828 147.251 111.54C147.251 110.253 146.607 110.203 145.27 110.996L144.032 111.738V115.255L145.27 114.512Z" fill="black"/>
<path d="M149.728 107.529L150.718 106.984V110.698L154.284 108.668V104.953L155.275 104.408V113.224L154.284 113.819V109.658L150.718 111.689V115.85L149.728 116.394V107.529Z" fill="black"/>
<path d="M156.909 107.727C156.909 104.903 158.247 102.427 160.178 101.337C162.11 100.248 163.447 101.189 163.447 103.962C163.447 106.785 162.11 109.361 160.178 110.451C158.247 111.59 156.909 110.599 156.909 107.727ZM162.407 104.557C162.407 102.377 161.516 101.535 160.129 102.328C158.791 103.12 157.85 105.002 157.85 107.182C157.85 109.41 158.742 110.302 160.129 109.51C161.516 108.717 162.407 106.785 162.407 104.557Z" fill="black"/>
<path d="M165.082 98.6626L166.072 98.0682L168.846 102.031L169.688 103.368H169.737C169.688 102.526 169.638 101.535 169.638 100.644V96.0871L170.579 95.5422V104.358L169.589 104.953L166.815 100.99L165.973 99.6532L165.924 99.7027C165.973 100.545 166.072 101.436 166.072 102.377V106.984L165.131 107.528V98.6626H165.082Z" fill="black"/>
<path d="M172.61 94.3041L177.018 91.7781V92.7191L173.601 94.7003V97.474L176.523 95.79V96.731L173.601 98.415V101.634L177.167 99.6037V100.545L172.66 103.17V94.3041H172.61Z" fill="black"/>
<path d="M100 361.119L5.20059 306.389V106.835L100 161.615V361.119Z" fill="#E31B25"/>
<path d="M91.4314 356.166L86.5775 353.343V165.032L18.6231 125.805V314.116L13.7692 311.342V117.434L91.4314 162.258V356.166Z" fill="#9C251F"/>
<path d="M39.8712 169.094V172.759L22.8826 162.952V133.779L26.003 135.612V161.07L39.8712 169.094Z" fill="#9C251F"/>
<path d="M39.8712 143.586V169.093L26.003 161.07V135.612L39.8712 143.586Z" fill="#2A4E68"/>
<path d="M61.0698 181.327V184.993L44.0812 175.186V146.013L47.2016 147.846V173.304L61.0698 181.327Z" fill="#9C251F"/>
<path d="M61.0699 155.82V181.327L47.2016 173.304V147.845L61.0699 155.82Z" fill="#2A4E68"/>
<path d="M82.6647 193.809V197.474L65.6761 187.618V158.494L68.7964 160.277V185.785L82.6647 193.809Z" fill="#9C251F"/>
<path d="M82.6647 168.301V193.809L68.7964 185.785V160.277L82.6647 168.301Z" fill="#2A4E68"/>
<path d="M39.8712 202.724V206.389L22.8826 196.583V167.41L26.003 169.242V194.7L39.8712 202.724Z" fill="#9C251F"/>
<path d="M39.8712 177.216V202.724L26.003 194.7V169.242L39.8712 177.216Z" fill="#2A4E68"/>
<path d="M61.0698 214.958V218.623L44.0812 208.816V179.643L47.2016 181.476V206.934L61.0698 214.958Z" fill="#9C251F"/>
<path d="M61.0699 189.45V214.958L47.2016 206.934V181.476L61.0699 189.45Z" fill="#2A4E68"/>
<path d="M82.6647 227.439V231.104L65.6761 221.298V192.125L68.7964 193.908V219.415L82.6647 227.439Z" fill="#9C251F"/>
<path d="M82.6647 201.932V227.439L68.7964 219.416V193.908L82.6647 201.932Z" fill="#2A4E68"/>
<path d="M39.8712 236.355V240.02L22.8826 230.213V201.04L26.003 202.873V228.331L39.8712 236.355Z" fill="#9C251F"/>
<path d="M39.8712 210.847V236.354L26.003 228.331V202.873L39.8712 210.847Z" fill="#2A4E68"/>
<path d="M61.0698 248.588V252.254L44.0812 242.447V213.274L47.2016 215.107V240.565L61.0698 248.588Z" fill="#9C251F"/>
<path d="M61.0699 223.081V248.588L47.2016 240.565V215.106L61.0699 223.081Z" fill="#2A4E68"/>
<path d="M82.6647 261.07V264.735L65.6761 254.879V225.755L68.7964 227.538V253.046L82.6647 261.07Z" fill="#9C251F"/>
<path d="M82.6647 235.562V261.07L68.7964 253.046V227.538L82.6647 235.562Z" fill="#2A4E68"/>
<path d="M39.8712 269.985V273.65L22.8826 263.844V234.671L26.003 236.454V261.961L39.8712 269.985Z" fill="#9C251F"/>
<path d="M39.8712 244.477V269.985L26.003 261.961V236.454L39.8712 244.477Z" fill="#2A4E68"/>
<path d="M61.0698 282.219V285.884L44.0812 276.077V246.904L47.2016 248.737V274.195L61.0698 282.219Z" fill="#9C251F"/>
<path d="M61.0699 256.711V282.219L47.2016 274.195V248.737L61.0699 256.711Z" fill="#2A4E68"/>
<path d="M82.6647 294.7V298.365L65.6761 288.509V259.386L68.7964 261.169V286.676L82.6647 294.7Z" fill="#9C251F"/>
<path d="M82.6647 269.193V294.7L68.7964 286.677V261.169L82.6647 269.193Z" fill="#2A4E68"/>
<path d="M100 154.483L5.20059 99.7524V106.835L100 161.615V154.483Z" fill="#9C251F"/>
<path d="M100 119.316L5.20059 64.5369V71.6691L100 126.399V119.316Z" fill="#9C251F"/>
<path d="M52.6003 67.9048C26.3992 52.7984 5.20059 55.2253 5.20059 55.2253V64.5864L100 119.316V109.955C100 109.955 78.7518 83.0113 52.6003 67.9048Z" fill="#E31B25"/>
<path d="M100 126.399L5.20059 71.6692V99.7524L100 154.482V126.399Z" fill="#E31B25"/>
<path d="M89.2521 142.348L15.9485 100.05V83.804L89.2521 126.102V142.348Z" fill="#F5F5F5"/>
<path d="M25.6067 94.0069L23.2789 92.6696V91.7285L28.8757 94.9479V95.889L26.5973 94.6012V102.476L25.6067 101.932V94.0069Z" fill="black"/>
<path d="M30.2625 95.79L34.6706 98.316V99.2571L31.2531 97.2759V100.05L34.1753 101.734V102.675L31.2531 100.991V104.21L34.8192 106.241V107.182L30.312 104.557V95.79H30.2625Z" fill="black"/>
<path d="M36.4042 99.3064L37.3948 99.8512V107.726L40.7132 109.658V110.599L36.4042 108.123V99.3064Z" fill="black"/>
<path d="M42.1001 102.575L46.5082 105.101V106.043L43.0907 104.061V106.835L46.0129 108.519V109.46L43.0907 107.776V110.995L46.6568 113.026V113.967L42.1001 111.441V102.575Z" fill="black"/>
<path d="M48.2417 106.142L50.5696 107.479C52.2536 108.469 53.3928 109.757 53.3928 111.689C53.3928 113.571 52.2536 113.769 50.5696 112.779L49.1828 111.986V115.503L48.1922 114.958V106.142H48.2417ZM50.4705 111.837C51.8078 112.58 52.4517 112.432 52.4517 111.144C52.4517 109.856 51.8078 109.064 50.4705 108.321L49.2323 107.578V111.095L50.4705 111.837Z" fill="black"/>
<path d="M54.9282 110.005L55.9188 110.55V114.264L59.4354 116.345V112.63L60.426 113.175V121.991L59.4354 121.446V117.286L55.8693 115.255V119.415L54.8787 118.871V110.005H54.9282Z" fill="black"/>
<path d="M62.11 118.524C62.11 115.701 63.4472 114.76 65.3789 115.849C67.3105 116.939 68.6478 119.465 68.6478 122.288C68.6478 125.111 67.3105 126.102 65.3789 125.012C63.4472 123.923 62.11 121.347 62.11 118.524ZM67.6077 121.694C67.6077 119.515 66.7162 117.632 65.3294 116.84C63.9425 116.048 63.051 116.89 63.051 119.069C63.051 121.298 63.9425 123.229 65.3294 124.022C66.7162 124.814 67.6077 123.923 67.6077 121.694Z" fill="black"/>
<path d="M70.2823 118.871L71.2729 119.465L74.0466 126.597L74.8886 128.925H74.9381C74.8886 128.034 74.839 126.993 74.839 126.052V121.496L75.7801 122.04V130.857L74.7895 130.262L72.0159 123.13L71.1739 120.852L71.1243 120.802C71.1738 121.743 71.2729 122.684 71.2729 123.625V128.232L70.3318 127.687V118.871H70.2823Z" fill="black"/>
<path d="M77.8108 123.229L82.2189 125.755V126.696L78.8014 124.715V127.489L81.7236 129.173V130.114L78.8014 128.43V131.649L82.3675 133.68V134.621L77.8603 131.996V123.229H77.8108Z" fill="black"/>
</svg>
