<svg width="151" height="28" viewBox="0 0 151 28" fill="none" xmlns="http://www.w3.org/2000/svg">
<path d="M14.2004 11.0532L11.1137 10.3041C9.43502 9.9045 8.62274 9.35511 8.62274 8.65589C8.62274 7.65699 9.86823 7.1076 12.1426 7.1076C14.9585 7.1076 17.9368 8.10649 20.5361 9.9045V2.81237C17.5578 1.41393 14.5253 0.764648 11.3303 0.764648C4.66967 0.764648 0.5 3.86121 0.5 8.80572C0.5 12.6015 2.82852 15.0488 7.59387 16.2475L11.4928 17.1964C13.0632 17.546 13.8213 18.1453 13.8213 18.9944C13.8213 20.243 12.4675 20.8923 9.97653 20.8923C6.72744 20.8923 3.37004 19.7436 0.662457 17.6958V24.788C3.80325 26.4361 7.16065 27.2353 10.7888 27.2353C17.6119 27.2353 21.8899 23.9889 21.8899 18.7946C21.944 14.899 19.3448 12.3018 14.2004 11.0532Z" fill="white"/>
<path d="M139.561 19.7935V1.51379H131.493V26.4861H150.5V19.7935H139.561Z" fill="white"/>
<path d="M114.327 0.764648C110.969 0.764648 108.587 1.51382 105.662 3.46165C103.875 4.51049 103.009 4.8601 102.251 4.8601C101.33 4.8601 100.464 4.51049 98.8393 3.46165C95.9151 1.51382 93.4783 0.764648 90.1751 0.764648C81.9982 0.764648 75.6083 6.55822 75.6083 14C75.6083 21.4417 81.8899 27.2353 90.0667 27.2353C93.37 27.2353 95.7527 26.4861 98.731 24.5382C100.356 23.4395 101.222 23.1398 102.143 23.1398C103.171 23.1398 103.984 23.4894 105.554 24.5382C108.478 26.4861 110.915 27.2353 114.218 27.2353C122.395 27.2353 128.785 21.4417 128.785 14C128.785 6.55822 122.449 0.764648 114.327 0.764648ZM114.273 20.1431C112.377 20.1431 109.561 19.0943 107.449 17.6459C105.446 16.2475 103.875 15.6481 102.197 15.6481C100.518 15.6481 98.9476 16.2475 96.944 17.6459C94.8321 19.0943 92.0162 20.0932 90.1209 20.0932C86.601 20.0932 83.8393 17.3962 83.8393 13.95C83.8393 10.5038 86.6552 7.80683 90.1209 7.80683C92.0162 7.80683 94.8321 8.80572 96.944 10.2541C99.0018 11.6526 100.626 12.2519 102.197 12.2519C103.875 12.2519 105.446 11.6526 107.449 10.2541C109.561 8.80572 112.377 7.75688 114.273 7.75688C117.792 7.75688 120.554 10.4539 120.554 13.9001C120.554 17.3462 117.792 20.1431 114.273 20.1431Z" fill="white"/>
<path d="M64.7779 10.4539H56.7093V1.51379H48.6407V26.4861H56.7093V17.1464H64.7779V26.4861H72.8465V1.51379H64.7779V10.4539Z" fill="white"/>
<path d="M23.5686 14C23.5686 21.7414 29.5794 27.2353 38.1354 27.2353C40.3556 27.2353 43.1715 26.7858 45.3917 26.0865V18.9944C43.5505 19.8934 41.5469 20.3429 39.3267 20.3429C34.9404 20.3429 31.8538 17.7458 31.8538 14C31.8538 10.2541 34.9404 7.65699 39.3267 7.65699C41.4386 7.65699 43.4422 8.15644 45.3917 9.05544V2.01326C43.2798 1.26409 40.5181 0.764648 38.1354 0.764648C29.5794 0.764648 23.5686 6.25855 23.5686 14Z" fill="white"/>
</svg>
