<svg width="550" height="522" viewBox="0 0 550 522" fill="none" xmlns="http://www.w3.org/2000/svg">
<path d="M543.764 3.26772C544.275 1.06183 541.216 -0.40353 539.343 1.13647C520.326 16.78 474.637 63.6283 486.023 145.5C500.31 248.218 475.886 285.699 445.482 308.563C445.482 308.563 487.235 297.81 513.505 259.778C578.003 166.4 534.683 42.4847 543.764 3.26772Z" fill="#BDD0FB"/>
<path d="M529.293 35.3504C526.913 46.7865 524.793 58.2559 523.155 69.7765C521.447 81.2892 520.141 92.8411 519.244 104.413C518.4 115.986 517.804 127.572 517.769 139.161C517.676 150.75 518.15 162.332 518.673 173.956C519.122 185.577 519.649 197.282 518.81 209.07C517.986 220.834 515.546 232.7 510.702 243.824C509.492 246.596 508.218 249.359 506.771 252.031C505.381 254.726 503.854 257.368 502.274 259.984C499.083 265.205 495.489 270.25 491.487 275.038C483.452 284.599 473.76 293.078 463.084 300.256C461.961 301.012 460.35 300.826 459.488 299.841C458.642 298.875 458.83 297.498 459.903 296.732L459.91 296.726C462.451 294.915 464.964 293.082 467.376 291.157C468.6 290.211 469.773 289.221 470.968 288.248C472.118 287.239 473.314 286.266 474.428 285.227C478.96 281.134 483.162 276.767 486.972 272.149C494.635 262.956 500.771 252.712 505.42 242.092C507.675 236.757 509.48 231.286 510.797 225.713C512.109 220.139 512.934 214.466 513.391 208.75C514.305 197.308 513.893 185.718 513.538 174.096C513.201 162.469 512.955 150.784 513.257 139.108C513.391 133.27 513.643 127.436 514.016 121.608C514.183 118.693 514.415 115.782 514.64 112.871C514.897 109.962 515.172 107.055 515.474 104.15C516.71 92.5308 518.348 80.9493 520.402 69.4308C522.518 57.92 524.983 46.4624 527.949 35.1068C528.034 34.7827 528.402 34.5784 528.774 34.6531C529.128 34.7277 529.357 35.0361 529.293 35.3504Z" fill="white"/>
<path d="M494.502 249.133C496.833 251.644 500.934 250.921 502.337 247.78C510.076 230.445 527.591 179.427 498.667 120.649C474.242 71.0159 465.645 41.7461 462.652 28.1866C462.019 25.3188 458.145 24.9377 456.975 27.6268C444.074 57.2915 410.013 158.189 494.502 249.133Z" fill="#91B3FA"/>
<path d="M498.738 247.305C498.821 247.32 498.907 247.326 498.994 247.326C499.726 247.315 500.312 246.704 500.301 245.959C500.287 245.117 498.67 160.858 467.781 90.2896C467.483 89.6099 466.698 89.3035 466.029 89.606C465.359 89.9085 465.057 90.704 465.355 91.3837C496.02 161.44 497.633 245.164 497.646 246.002C497.656 246.655 498.124 247.193 498.738 247.305Z" fill="white"/>
<path d="M208.701 385.131L197.992 482.565H322.232L306.049 385.131H208.701Z" fill="url(#paint0_linear_7_38)"/>
<path d="M0 145.071V368.224C0 386.58 14.4186 401.593 32.5082 402.067C112.847 404.169 393.835 409.264 470.311 408.121C483.456 407.924 494.105 397.252 494.482 383.921C495.958 332.079 498.353 207.418 489.489 149.544C487.623 137.356 477.483 128.241 465.332 127.849C398.017 125.664 100.152 118.726 23.7102 120.469C10.5269 120.767 0 131.693 0 145.071Z" fill="url(#paint1_linear_7_38)"/>
<path d="M13.801 143.985V355.995C13.801 366.712 22.2814 375.445 32.8451 375.606L459.308 380.951C469.781 381.11 478.366 372.561 478.405 361.935L479.117 151.819C479.144 144.221 473.179 137.996 465.692 137.811L29.0734 128.864C20.6995 128.658 13.801 135.488 13.801 143.985Z" fill="url(#paint2_linear_7_38)"/>
<path d="M481.615 389.704C481.611 389.704 481.607 389.704 481.603 389.704L13.7913 381.619C13.4292 381.613 13.1407 381.31 13.1485 380.943C13.1543 380.58 13.4466 380.289 13.8029 380.289C13.8068 380.289 13.8106 380.289 13.8145 380.289L481.628 388.376C481.99 388.382 482.279 388.684 482.271 389.051C482.263 389.415 481.971 389.704 481.615 389.704Z" fill="#91B3FA"/>
<path d="M348.991 502.501H167.159C162.219 502.501 158.51 498.934 159.464 495.101L161.797 485.739C162.498 482.925 165.552 480.856 169.178 480.742L344.472 475.193C348.262 475.073 351.615 477.114 352.44 480.039L356.645 494.95C357.739 498.824 354.012 502.501 348.991 502.501Z" fill="url(#paint3_linear_7_38)"/>
<path d="M265.043 483.341C264.687 483.341 264.395 483.05 264.389 482.687C264.383 482.32 264.672 482.017 265.034 482.013L272.546 481.903C272.9 481.903 273.206 482.192 273.21 482.557C273.216 482.925 272.927 483.227 272.565 483.231L265.053 483.341C265.049 483.341 265.045 483.341 265.043 483.341Z" fill="white"/>
<path d="M166.196 497.403C166.161 497.403 166.127 497.401 166.092 497.396C165.736 497.339 165.492 496.997 165.548 496.635L166.618 489.827C167.199 486.138 170.293 483.42 173.974 483.365L253.645 482.184C253.978 482.17 254.303 482.473 254.309 482.838C254.315 483.206 254.026 483.508 253.664 483.512L173.993 484.693C170.95 484.738 168.392 486.985 167.91 490.035L166.839 496.844C166.791 497.17 166.514 497.403 166.196 497.403Z" fill="#91B3FA"/>
<path d="M479.059 169.14L479.117 151.821C479.144 144.223 473.179 137.998 465.692 137.813L29.1605 128.864C20.7866 128.658 13.9752 135.488 13.9752 143.985V169.14H479.059Z" fill="url(#paint4_linear_7_38)"/>
<path opacity="0.49" d="M40.0905 161.655C43.3938 160.233 44.9354 156.363 43.5337 153.012C42.132 149.66 38.3178 148.096 35.0145 149.518C31.7111 150.941 30.1696 154.81 31.5713 158.161C32.973 161.513 36.7872 163.077 40.0905 161.655Z" fill="white"/>
<path opacity="0.49" d="M62.367 161.656C65.6703 160.234 67.2119 156.364 65.8102 153.013C64.4084 149.661 60.5943 148.097 57.2909 149.519C53.9876 150.942 52.4461 154.811 53.8478 158.162C55.2495 161.514 59.0637 163.078 62.367 161.656Z" fill="white"/>
<path opacity="0.49" d="M89.2948 157.769C90.4758 154.331 88.6861 150.573 85.2974 149.375C81.9086 148.177 78.2041 149.992 77.0231 153.43C75.8421 156.868 77.6318 160.627 81.0205 161.825C84.4093 163.023 88.1138 161.207 89.2948 157.769Z" fill="white"/>
<path d="M490.537 448.66H294.171V410.25H490.537C486.333 410.25 486.333 448.66 490.537 448.66Z" fill="#BDD0FB"/>
<path d="M294.171 439.048V421.47C294.171 415.273 298.051 410.25 302.839 410.25H489.71C493.474 410.25 496.525 407.268 496.525 403.589C496.525 402.471 495.598 401.566 494.453 401.566H290.219C285.536 401.566 278.099 408.763 278.099 417.64V442.189C278.099 450.559 285.319 457.346 289.733 457.346H493.377C495.114 457.346 496.523 455.969 496.523 454.272C496.523 451.172 493.952 448.66 490.782 448.66H301.596C297.495 448.66 294.171 444.356 294.171 439.048Z" fill="#7D97F4"/>
<path d="M483.737 418.804H299.617C299.251 418.804 298.953 418.504 298.953 418.131C298.953 417.759 299.249 417.457 299.617 417.457H483.737C484.103 417.457 484.401 417.757 484.401 418.131C484.401 418.502 484.103 418.804 483.737 418.804Z" fill="white"/>
<path d="M483.737 424.505H299.617C299.251 424.505 298.953 424.204 298.953 423.831C298.953 423.458 299.249 423.157 299.617 423.157H483.737C484.103 423.157 484.401 423.458 484.401 423.831C484.401 424.204 484.103 424.505 483.737 424.505Z" fill="white"/>
<path d="M483.737 430.207H299.617C299.251 430.207 298.953 429.907 298.953 429.533C298.953 429.162 299.249 428.86 299.617 428.86H483.737C484.103 428.86 484.401 429.16 484.401 429.533C484.401 429.905 484.103 430.207 483.737 430.207Z" fill="white"/>
<path d="M483.737 435.908H299.617C299.251 435.908 298.953 435.607 298.953 435.234C298.953 434.861 299.249 434.56 299.617 434.56H483.737C484.103 434.56 484.401 434.861 484.401 435.234C484.401 435.607 484.103 435.908 483.737 435.908Z" fill="white"/>
<path d="M483.737 441.61H299.617C299.251 441.61 298.953 441.309 298.953 440.936C298.953 440.565 299.249 440.262 299.617 440.262H483.737C484.103 440.262 484.401 440.563 484.401 440.936C484.401 441.307 484.103 441.61 483.737 441.61Z" fill="white"/>
<path d="M220.695 521.114H545.859C548.145 521.114 550 519.233 550 516.913V461.137C550 458.817 548.145 456.935 545.859 456.935H220.695C218.409 456.935 216.554 458.817 216.554 461.137V516.913C216.554 519.233 218.407 521.114 220.695 521.114Z" fill="url(#paint5_linear_7_38)"/>
<path d="M490.995 513.738H518.979C519.753 513.738 520.381 513.102 520.381 512.316V465.733C520.381 464.947 519.753 464.311 518.979 464.311H490.995C490.221 464.311 489.594 464.947 489.594 465.733V512.316C489.594 513.102 490.221 513.738 490.995 513.738Z" fill="#7D97F4"/>
<path d="M474.654 513.738H483.925C484.554 513.738 485.065 513.22 485.065 512.581V465.468C485.065 464.83 484.554 464.311 483.925 464.311H474.654C474.025 464.311 473.514 464.83 473.514 465.468V512.581C473.514 513.22 474.025 513.738 474.654 513.738Z" fill="#7D97F4"/>
<path d="M326.313 445.096C326.389 445.067 367.166 372.62 372.677 365.802C373.604 364.655 375.039 364.072 376.489 364.246L387.87 365.623L401.241 394.97L378.965 381.809C381.169 397.274 352.554 420.258 342.74 428.643C341.744 429.494 341.661 431.018 342.561 431.975L346.48 436.135C340.048 442.751 332.625 446.998 324.247 448.962L326.313 445.096Z" fill="url(#paint6_linear_7_38)"/>
<path d="M344.215 433.89C344.215 433.89 346.716 434.709 347.563 436.968C347.967 438.049 347.532 439.274 346.604 439.948C342.486 442.942 328.906 452.604 322.636 454.495C322.123 454.651 321.633 454.179 321.75 453.647C322.071 452.17 323.111 449.219 326.464 444.902L326.164 445.519C325.783 446.3 326.621 447.114 327.37 446.684C331.56 444.285 340.099 439.031 344.215 433.89Z" fill="url(#paint7_linear_7_38)"/>
<path d="M342.197 462.877C342.265 462.832 348.383 447.878 348.451 447.835C354.06 413.187 367.747 383.514 371.782 375.706C372.462 374.394 373.749 373.526 375.205 373.4L386.625 372.41L405.572 398.403L381.132 390.088C386.375 404.781 362.936 433.165 354.999 443.393C354.194 444.43 354.419 445.941 355.489 446.691L360.155 449.962C355.176 457.76 348.753 463.445 340.943 467.087L342.197 462.877Z" fill="url(#paint8_linear_7_38)"/>
<path d="M357.491 448.228C357.491 448.228 360.103 448.516 361.383 450.555C361.995 451.531 361.813 452.82 361.038 453.669C357.604 457.444 346.229 469.695 340.468 472.836C339.996 473.093 339.423 472.732 339.431 472.188C339.452 470.675 339.882 467.572 342.302 462.655L342.13 463.321C341.913 464.164 342.896 464.788 343.543 464.215C347.173 461.005 354.486 454.107 357.491 448.228Z" fill="url(#paint9_linear_7_38)"/>
<path d="M440.084 366.936C440.084 366.936 450.415 382.524 451.263 389.637C452.111 396.747 448.406 399.207 437.594 400.114C405.415 402.813 389.552 393.029 389.552 393.029C387.351 378.79 385.784 375.168 367.4 367.427C367.4 367.427 390.654 369.301 395.334 367.458C400.013 365.614 440.084 366.936 440.084 366.936Z" fill="url(#paint10_linear_7_38)"/>
<path d="M394.538 286.795C394.538 286.795 405.121 274.092 416.372 289.676C418.409 292.499 426.237 290.171 429.104 296.078C430.585 299.128 433.786 300.861 437.081 300.244C445.29 298.708 458.71 298.578 465.335 311.631C470.393 321.594 466.487 327.424 461.432 330.747C457.719 333.189 456.394 338.145 458.64 342.013C460.793 345.723 461.198 350.746 455.637 356.792C443.176 370.342 418.509 348.194 418.509 348.194L398.923 301.242L394.538 286.795Z" fill="url(#paint11_linear_7_38)"/>
<path d="M412.145 364.873C412.145 364.873 400.114 353.25 394.193 345.552C390.993 341.392 389.986 335.914 391.467 330.854C394.17 321.612 398.975 312.042 399.413 310.551C400.085 308.268 413.574 308.362 413.574 308.362C413.574 308.362 440.119 325.841 450.549 355.446L438.835 359.145C438.835 359.145 431.904 347.348 425.056 339.848C425.056 339.848 436.905 355.729 437.323 362.231L412.145 364.873Z" fill="url(#paint12_linear_7_38)"/>
<path d="M389.221 369.46L398.261 359.481L408.701 362.333C408.701 362.333 420.871 364.246 427.838 362.333C434.804 360.42 434.804 360.42 434.804 360.42L450.547 355.448L453.02 362.537C453.647 364.337 453.018 366.334 451.482 367.442C450.121 368.424 448.524 369.503 447.507 369.955C445.434 370.874 399.752 370.245 399.752 370.245L389.221 369.46Z" fill="url(#paint13_linear_7_38)"/>
<path d="M404.302 291.908L413.369 309.013C412.771 312.747 403.5 312.851 402.069 310.621C401.924 310.394 401.841 310.132 401.785 309.867L396.362 298.439C396.129 297.325 399.14 293.569 400.131 293.035L403.735 291.089C405.123 290.338 399.332 290.279 404.302 291.908Z" fill="url(#paint14_linear_7_38)"/>
<path d="M395.423 278.576C395.423 278.576 390.834 282.155 389.277 290.647C387.721 299.138 391.239 301.935 394.652 301.541C398.065 301.146 402.966 299.769 406.91 293.503C410.854 287.237 401.452 274.178 395.423 278.576Z" fill="url(#paint15_linear_7_38)"/>
<path d="M402.371 290.395C402.371 290.395 403.409 278.299 393.709 280.735L391.85 282.952C391.85 282.952 386.721 277.761 391.788 273.288C396.855 268.816 404.292 269.424 408.823 276.726C413.351 284.025 415.148 289.24 412.01 294.141C408.869 299.042 406.058 295.176 406.058 295.176C406.058 295.176 407.384 291.02 405.979 289.356C404.573 287.694 403.059 290.552 403.059 290.552L402.371 290.395Z" fill="url(#paint16_linear_7_38)"/>
<path d="M403.773 291.34C403.773 291.34 404.271 285.119 407.481 286.693C410.691 288.266 406.705 292.523 405.092 293.986L403.773 291.34Z" fill="url(#paint17_linear_7_38)"/>
<path d="M419.144 373.408C419.113 373.41 419.081 373.41 419.05 373.41L377.47 373.365C376.442 373.365 375.61 372.518 375.612 371.475C375.614 370.432 376.45 369.57 377.474 369.589L419.053 369.634C420.082 369.634 420.914 370.481 420.912 371.524C420.912 372.534 420.128 373.359 419.144 373.408Z" fill="url(#paint18_linear_7_38)"/>
<path d="M340.091 335.108H374.719C377.273 335.108 379.598 336.603 380.688 338.948L396.697 373.386H353.663C352.018 373.386 350.538 372.367 349.932 370.813L337.518 338.946C336.803 337.104 338.141 335.108 340.091 335.108Z" fill="url(#paint19_linear_7_38)"/>
<path d="M364.487 352.765C365.238 355.13 364.682 357.428 363.247 357.896C361.813 358.363 360.043 356.827 359.292 354.46C358.541 352.095 359.096 349.797 360.531 349.33C361.966 348.862 363.737 350.4 364.487 352.765Z" fill="url(#paint20_linear_7_38)"/>
<path d="M89.3114 41.6125C89.321 41.3277 89.3307 41.0664 89.3365 40.8405C89.3559 40.2021 89.1023 39.5912 88.6337 39.165C85.8902 36.6644 75.613 28.0903 61.0879 25.4189C60.3057 25.2755 59.6261 25.633 59.2447 26.2007C60.4548 26.35 62.0773 26.6623 64.2632 27.2457C71.4445 29.1589 81.8823 34.2503 89.3114 41.6125Z" fill="#7D97F4"/>
<path d="M64.2652 27.2457C62.0792 26.6623 60.4567 26.35 59.2466 26.2007C58.8633 26.7703 58.7819 27.5521 59.2002 28.2435C59.4364 28.6325 59.7248 29.0548 60.0811 29.5066C62.3542 32.3941 80.7245 51.5164 80.7245 51.5164C80.7245 51.5164 86.5562 52.2393 88.3394 51.1903C88.9164 50.8505 89.2049 44.7082 89.3133 41.6105C81.8823 34.2503 71.4444 29.1589 64.2652 27.2457Z" fill="url(#paint21_linear_7_38)"/>
<path d="M88.6124 61.4734V50.0845C88.6124 49.12 88.0083 48.2537 87.1041 47.9591C85.7101 47.5054 83.5687 47.0811 81.6209 47.8216C80.4786 48.2557 79.7099 49.3557 79.6131 50.5893L78.7767 61.2259L88.6124 61.4734Z" fill="url(#paint22_linear_7_38)"/>
<path d="M44.0903 51.3887C43.9567 50.9409 43.6972 50.5657 43.3642 50.2848C41.0079 50.7562 36.0997 52.0743 26.0452 55.6748C14.3895 59.8509 10.978 63.4966 9.99445 65.4471C14.9897 66.9301 26.3395 69.1989 42.6227 65.9696L45.8406 64.4394C45.8386 64.4394 45.614 56.4801 44.0903 51.3887Z" fill="url(#paint23_linear_7_38)"/>
<path d="M26.0453 55.6748C36.0998 52.0723 41.0079 50.7562 43.3642 50.2848C42.8454 49.8467 42.1464 49.6464 41.4416 49.7957C35.6525 51.0174 18.1612 55.1955 9.02058 62.7128C8.10865 63.4632 8.37584 64.9442 9.49882 65.2958C9.65758 65.3449 9.82409 65.396 9.99641 65.4471C10.978 63.4966 14.3896 59.8508 26.0453 55.6748Z" fill="#7D97F4"/>
<path d="M51.864 71.3184L45.0138 62.9898C44.3458 62.1786 43.2616 61.8584 42.2722 62.1884C41.1763 62.5538 39.7184 63.3081 38.3089 64.8638C37.6506 65.5886 37.5228 66.6631 37.9681 67.5391L42.9518 77.337L51.864 71.3184Z" fill="url(#paint24_linear_7_38)"/>
<path d="M77.2742 57.5095C77.2742 57.5095 85.6345 55.8811 90.2736 57.5095C90.2736 57.5095 96.388 94.7366 95.3366 106.707L77.2742 110.431C77.2742 110.431 76.7611 68.4879 77.2742 57.5095Z" fill="url(#paint25_linear_7_38)"/>
<path d="M151.408 122.736C151.408 122.736 92.3414 126.1 68.3678 124.423C66.0193 124.258 63.936 122.849 62.8846 120.712C57.746 110.276 42.3361 78.9614 40.9847 75.9718C40.9847 75.9718 47.2443 70.6663 51.864 69.9336C51.864 69.9336 73.7407 94.6247 74.6565 107.222C74.6565 107.222 125.318 92.4384 130.323 92.5798C135.326 92.7193 150.672 99.667 150.672 99.667L151.408 122.736Z" fill="url(#paint26_linear_7_38)"/>
<path d="M230.146 76.0267C230.146 76.0267 227.977 71.4558 229.857 69.0437C231.737 66.6316 238.514 59.1653 238.514 59.1653L239.302 54.0051L242.086 62.4103L236.109 75.0898C236.109 75.0878 232.611 78.928 230.146 76.0267Z" fill="url(#paint27_linear_7_38)"/>
<path d="M245.322 97.2902C243.132 89.4881 240.121 82.0591 236.109 75.0879L230.144 76.0249L233.087 97.0034C235.341 97.6949 241.482 99.2702 245.322 97.2902Z" fill="url(#paint28_linear_7_38)"/>
<path d="M249.184 117.717C248.421 110.669 247.161 103.847 245.322 97.2901C241.482 99.2701 235.341 97.6948 233.089 97.0034L233.935 103.028L231.674 94.9153C228.924 85.0487 223.075 76.3607 215.015 70.1752L209.402 65.8655C203.886 61.6305 195.066 63.0939 189.438 67.1737C176.944 76.233 158.396 91.4228 152.064 96.6478C150.703 97.7714 148.839 98.0228 147.234 97.3019L146.176 96.8266C145.177 96.3787 144.076 97.1978 144.198 98.2978L146.885 123.234L189.808 122.732C194.954 122.732 209.863 122.193 212.236 117.56L216.205 107.675C225.507 115.701 237.437 121.213 243.829 122.82C246.774 123.564 249.535 120.956 249.184 117.717Z" fill="#7D97F4"/>
<path d="M219.038 52.4888L205.843 65.4923C204.964 66.3586 204.881 67.7748 205.669 68.7275C209.739 73.6481 213.232 76.2272 216.136 76.4216C217.367 76.5041 218.535 75.8441 219.195 74.7873L226.208 63.5673L219.038 52.4888Z" fill="url(#paint29_linear_7_38)"/>
<path d="M245.67 116.568L257.022 112.085L270.219 122.736L246.588 122.824L245.67 116.568Z" fill="url(#paint30_linear_7_38)"/>
<path d="M241.165 49.4815C241.165 49.4815 239.364 62.3259 234.5 66.2761C229.637 70.2263 220.161 67.2524 216.961 57.5684L223.338 41.0115L241.165 49.4815Z" fill="url(#paint31_linear_7_38)"/>
<path d="M222.618 51.7266C222.988 51.8484 223.375 51.6068 223.433 51.2179C223.609 50.0314 224.047 47.6861 224.934 46.0872C224.934 46.0872 224.469 44.4018 229.131 46.9475C233.794 49.4932 240.797 53.2332 244.919 51.0057C248.938 48.8352 253.01 37.9079 242.386 39.9311C241.982 40.0077 241.61 39.6816 241.641 39.2652C241.771 37.4698 241.596 33.337 237.472 32.0111C233.614 30.7697 231.501 32.5375 230.63 33.6041C230.374 33.9184 229.898 33.9125 229.654 33.5884C228.498 32.0563 225.358 28.7975 220.736 30.8639C216.93 32.565 216.337 34.9457 216.399 36.4268C216.418 36.9061 215.938 37.2322 215.508 37.0318C214.343 36.4877 212.467 36.2048 210.67 38.4873C208.186 41.6439 211.735 44.3822 212.8 45.0991C212.974 45.217 213.082 45.4114 213.084 45.6236C213.094 47.2657 213.346 54.4275 216.885 58.4661C217.191 58.8157 217.758 58.7136 217.936 58.2814L220.661 51.6972C220.786 51.3907 221.123 51.2355 221.435 51.3357L222.618 51.7266Z" fill="url(#paint32_linear_7_38)"/>
<path d="M222.676 53.0642C222.676 53.0642 221.013 46.1912 218.486 48.4226C215.96 50.6541 219.145 55.5667 222.039 56.5017L222.676 53.0642Z" fill="url(#paint33_linear_7_38)"/>
<path d="M203.673 82.0591C203.673 82.0591 204.182 66.1563 197.742 65.8381C189.746 65.4413 176.894 71.3204 184.545 94.6266C188.772 107.503 195.142 117.057 212.631 121.105C213.483 114.58 216.397 110.033 218.552 107.469C211.427 102.374 205.39 94.4361 203.673 82.0591Z" fill="#91B3FA"/>
<path d="M217.749 107.512C217.625 107.512 217.499 107.475 217.389 107.396C209.183 101.531 204.627 93.5069 203.051 82.1475C203.045 82.1121 203.043 82.0748 203.045 82.0375C203.181 77.7887 202.484 66.7082 197.711 66.4705C195.403 66.3585 192.981 66.7985 190.894 67.7159C190.577 67.8553 190.209 67.708 190.069 67.3859C189.932 67.0637 190.077 66.6885 190.395 66.5491C192.656 65.5551 195.276 65.0818 197.771 65.2016C204.612 65.5414 204.333 80.798 204.3 82.0237C205.832 92.9844 210.221 100.718 218.111 106.359C218.393 106.562 218.461 106.958 218.262 107.245C218.14 107.42 217.946 107.512 217.749 107.512Z" fill="#BDD0FB"/>
<path d="M207.063 120.141C206.995 120.141 206.925 120.129 206.858 120.105C192.35 115.026 187.273 104.953 183.949 94.825C183.196 92.5307 182.615 90.3209 182.222 88.2564C182.156 87.9127 182.379 87.5787 182.718 87.5119C183.058 87.4452 183.386 87.6711 183.451 88.0148C183.835 90.0262 184.402 92.1811 185.138 94.4223C188.362 104.242 193.274 114.002 207.268 118.903C207.595 119.017 207.77 119.379 207.655 119.711C207.566 119.976 207.324 120.141 207.063 120.141Z" fill="#BDD0FB"/>
<path d="M248.884 122.736L248.857 116.568C248.857 116.568 231.817 116.951 218.552 107.467C216.397 110.031 213.481 114.578 212.631 121.103C221.48 123.152 233.174 123.792 248.884 122.736Z" fill="url(#paint34_linear_7_38)"/>
<path d="M227.038 124.888C227.079 124.89 227.122 124.892 227.162 124.89L281.363 124.829C282.703 124.828 283.787 123.726 283.787 122.366C283.785 121.007 282.695 119.883 281.359 119.907L227.158 119.968C225.819 119.97 224.734 121.072 224.734 122.431C224.736 123.749 225.757 124.824 227.038 124.888Z" fill="url(#paint35_linear_7_38)"/>
<path d="M330.089 74.9622H284.949C281.619 74.9622 278.589 76.9107 277.167 79.9672L256.301 124.859H312.396C314.541 124.859 316.47 123.529 317.26 121.504L333.442 79.9632C334.375 77.5629 332.633 74.9622 330.089 74.9622Z" fill="url(#paint36_linear_7_38)"/>
<path d="M298.287 97.9797C297.309 101.064 298.032 104.057 299.902 104.668C301.772 105.279 304.08 103.273 305.058 100.191C306.036 97.1075 305.314 94.114 303.443 93.5031C301.575 92.8922 299.265 94.8957 298.287 97.9797Z" fill="#91B3FA"/>
<path d="M254.313 171.09L108.685 216.124L254.313 261.159L399.943 216.124L254.313 171.09Z" fill="url(#paint37_linear_7_38)"/>
<path d="M254.313 269.187L162.657 240.844V305.593C162.657 316.22 169.983 325.412 180.23 327.616C229.451 338.204 276.78 338.532 322.098 327.962C332.137 325.621 339.214 316.495 339.214 306.045V242.932L254.313 269.187Z" fill="url(#paint38_linear_7_38)"/>
<path d="M142.414 303.803C134.453 307.392 127.489 307.467 121.525 304.029C119.781 303.023 118.913 300.957 119.31 298.961L132.273 233.578L145.137 298.466C145.572 300.672 144.44 302.892 142.414 303.803Z" fill="url(#paint39_linear_7_38)"/>
<path d="M254.313 209.453L130.385 222.814V244.623H134.058L134.436 225.509L254.313 209.453Z" fill="url(#paint40_linear_7_38)"/>
<g opacity="0.3">
<path d="M164.541 413.045C165.188 413.147 165.668 413.731 165.633 414.408C165.559 415.892 165.422 417.392 165.222 418.869C165.126 419.588 164.473 420.091 163.765 419.995C163.757 419.993 163.747 419.993 163.739 419.991C163.044 419.881 162.56 419.227 162.655 418.516C162.843 417.111 162.975 415.685 163.044 414.279C163.079 413.554 163.689 412.996 164.403 413.031C164.452 413.033 164.496 413.039 164.541 413.045ZM162.723 424.342C162.773 424.35 162.824 424.361 162.874 424.375C163.563 424.57 163.966 425.295 163.772 425.994C163.377 427.43 162.918 428.862 162.407 430.25C162.158 430.93 161.414 431.274 160.742 431.022C160.072 430.769 159.732 430.011 159.981 429.333C160.467 428.013 160.903 426.652 161.279 425.287C161.457 424.638 162.084 424.24 162.723 424.342ZM158.498 434.949C158.641 434.971 158.783 435.02 158.916 435.092C159.546 435.438 159.778 436.236 159.437 436.874C158.738 438.182 157.975 439.475 157.168 440.718C156.775 441.323 155.971 441.49 155.373 441.091C154.777 440.693 154.61 439.877 155.005 439.272C155.772 438.092 156.496 436.864 157.16 435.623C157.427 435.12 157.972 434.867 158.498 434.949ZM152.041 444.334C152.277 444.372 152.504 444.476 152.697 444.647C153.234 445.126 153.286 445.957 152.814 446.501C151.844 447.617 150.815 448.705 149.754 449.734C149.238 450.235 148.419 450.217 147.923 449.693C147.429 449.168 147.447 448.338 147.964 447.835C148.97 446.858 149.948 445.825 150.868 444.765C151.172 444.415 151.617 444.268 152.041 444.334ZM143.681 452.025C144.012 452.078 144.322 452.258 144.533 452.555C144.951 453.144 144.819 453.965 144.24 454.39C143.053 455.258 141.812 456.087 140.554 456.853C139.94 457.226 139.144 457.026 138.776 456.403C138.409 455.78 138.608 454.975 139.222 454.6C140.418 453.871 141.597 453.083 142.726 452.258C143.013 452.046 143.357 451.971 143.681 452.025ZM133.855 457.644C134.283 457.711 134.666 457.994 134.848 458.428C135.127 459.096 134.821 459.868 134.163 460.151C132.813 460.732 131.423 461.263 130.031 461.726C129.351 461.952 128.619 461.577 128.397 460.887C128.174 460.198 128.544 459.455 129.223 459.23C130.548 458.79 131.868 458.285 133.15 457.733C133.382 457.635 133.624 457.609 133.855 457.644ZM86.4962 453.329C86.6743 453.356 86.8466 453.423 87.0073 453.529C88.1709 454.303 89.383 455.038 90.6105 455.71C91.2398 456.053 91.474 456.851 91.1352 457.489C90.7964 458.128 90.0103 458.367 89.381 458.022C88.0877 457.314 86.8118 456.542 85.5862 455.725C84.9879 455.327 84.8214 454.513 85.2144 453.906C85.501 453.46 86.0102 453.25 86.4962 453.329ZM123.053 460.915C123.583 460.999 124.029 461.416 124.127 461.982C124.253 462.697 123.785 463.378 123.082 463.508C121.639 463.771 120.168 463.973 118.708 464.109C117.996 464.172 117.364 463.643 117.301 462.92C117.235 462.198 117.759 461.559 118.472 461.492C119.858 461.363 121.256 461.17 122.625 460.923C122.77 460.893 122.915 460.893 123.053 460.915ZM96.5623 458.491C96.6475 458.505 96.7307 458.526 96.814 458.558C98.119 459.049 99.4627 459.489 100.806 459.868C101.496 460.062 101.9 460.785 101.709 461.485C101.517 462.184 100.804 462.596 100.115 462.4C98.7017 462.001 97.2864 461.54 95.9137 461.023C95.2437 460.77 94.901 460.015 95.1489 459.334C95.3677 458.736 95.9679 458.397 96.5623 458.491ZM111.802 461.653C112.448 461.756 112.927 462.337 112.894 463.015C112.859 463.74 112.253 464.299 111.538 464.264C110.077 464.193 108.597 464.056 107.141 463.857C107.132 463.857 107.124 463.855 107.114 463.853C106.419 463.743 105.937 463.091 106.03 462.38C106.125 461.661 106.777 461.156 107.486 461.253C108.869 461.441 110.272 461.571 111.662 461.638C111.709 461.642 111.755 461.648 111.802 461.653Z" fill="#91B3FA"/>
<path d="M79.3769 447.587C79.6286 447.627 79.8726 447.742 80.07 447.935C80.5521 448.402 81.0536 448.868 81.557 449.318C82.0933 449.797 82.1456 450.628 81.6732 451.172C81.2008 451.716 80.3818 451.771 79.8455 451.29C79.3149 450.817 78.7883 450.327 78.281 449.834C77.7641 449.334 77.7447 448.503 78.2384 447.978C78.5443 447.656 78.9722 447.524 79.3769 447.587Z" fill="#91B3FA"/>
</g>
<g opacity="0.3">
<path d="M63.7307 410.816C64.3484 410.914 64.8227 411.454 64.8247 412.108C64.8266 412.786 64.844 413.473 64.875 414.155C64.9079 414.88 64.3542 415.495 63.6397 415.528C62.9214 415.561 62.3193 415 62.2864 414.275C62.2535 413.558 62.236 412.833 62.2341 412.12C62.2302 411.395 62.8091 410.804 63.5236 410.8C63.5952 410.798 63.6649 410.804 63.7307 410.816Z" fill="#91B3FA"/>
<path d="M121.874 359.986C122.462 360.078 123.053 360.182 123.641 360.296C124.344 360.432 124.805 361.119 124.671 361.832C124.538 362.545 123.856 363.015 123.157 362.877C121.796 362.614 120.427 362.408 119.072 362.263C118.36 362.184 117.845 361.54 117.92 360.819C117.996 360.096 118.633 359.573 119.345 359.65C120.183 359.74 121.035 359.854 121.874 359.986ZM130.255 362.056C130.327 362.068 130.399 362.086 130.47 362.109C131.839 362.575 133.206 363.105 134.528 363.687C135.185 363.973 135.487 364.747 135.204 365.413C134.92 366.079 134.157 366.388 133.502 366.099C132.246 365.549 130.948 365.044 129.647 364.602C128.97 364.372 128.604 363.626 128.832 362.938C129.034 362.321 129.644 361.96 130.255 362.056ZM112.536 359.403C113.14 359.499 113.608 360.017 113.63 360.658C113.653 361.383 113.091 361.99 112.377 362.013C111.01 362.056 109.626 362.16 108.262 362.321C107.552 362.404 106.909 361.889 106.826 361.168C106.743 360.448 107.252 359.795 107.962 359.711C109.397 359.54 110.855 359.432 112.295 359.385C112.377 359.385 112.458 359.389 112.536 359.403ZM140.329 366.796C140.492 366.822 140.653 366.881 140.802 366.971C142.035 367.731 143.253 368.552 144.418 369.415C144.995 369.843 145.123 370.664 144.703 371.249C144.281 371.836 143.472 371.964 142.895 371.538C141.787 370.719 140.631 369.939 139.46 369.218C138.848 368.843 138.652 368.034 139.024 367.413C139.303 366.943 139.826 366.716 140.329 366.796ZM101.554 361.001C102.049 361.08 102.475 361.447 102.609 361.97C102.789 362.673 102.373 363.39 101.68 363.571C100.355 363.918 99.0289 364.329 97.7336 364.791C97.0579 365.03 96.3202 364.671 96.0821 363.985C95.8459 363.302 96.2002 362.551 96.8759 362.312C98.239 361.826 99.6369 361.394 101.031 361.027C101.207 360.982 101.385 360.974 101.554 361.001ZM91.1836 365.007C91.5786 365.07 91.9406 365.317 92.1381 365.706C92.4653 366.352 92.2136 367.144 91.5766 367.474C90.3568 368.108 89.1487 368.804 87.985 369.538C87.379 369.923 86.5794 369.735 86.2018 369.118C85.8243 368.501 86.0082 367.692 86.6162 367.309C87.8398 366.535 89.1119 365.804 90.3956 365.136C90.6473 365.005 90.9222 364.965 91.1836 365.007ZM81.921 371.21C82.2211 371.257 82.5076 371.412 82.7167 371.668C83.1737 372.225 83.0982 373.054 82.5483 373.518C81.4931 374.408 80.4611 375.353 79.4853 376.327C78.9761 376.836 78.1551 376.83 77.6537 376.311C77.1522 375.795 77.1599 374.962 77.6692 374.453C78.6973 373.43 79.7815 372.434 80.8929 371.497C81.191 371.247 81.5666 371.155 81.921 371.21ZM74.2131 379.316C74.4222 379.35 74.6255 379.434 74.8036 379.574C75.369 380.018 75.4755 380.841 75.0379 381.416C74.1996 382.518 73.398 383.669 72.6564 384.836C72.2692 385.445 71.4676 385.622 70.8674 385.229C70.2653 384.836 70.0929 384.023 70.4802 383.412C71.2624 382.182 72.1046 380.97 72.9875 379.81C73.2857 379.419 73.762 379.244 74.2131 379.316ZM68.4433 388.943C68.5614 388.961 68.6776 388.998 68.7899 389.051C69.4385 389.358 69.7193 390.138 69.4192 390.796C68.8422 392.055 68.3117 393.355 67.8412 394.663C67.5953 395.345 66.8499 395.695 66.18 395.445C65.5081 395.196 65.1635 394.441 65.4094 393.76C65.905 392.385 66.4646 391.014 67.0706 389.69C67.3204 389.146 67.8877 388.855 68.4433 388.943ZM64.904 399.615C64.9311 399.619 64.9563 399.625 64.9834 399.631C65.6824 399.786 66.1238 400.486 65.9709 401.195C65.7559 402.195 65.5681 403.214 65.4113 404.224C65.3552 404.589 65.3029 404.954 65.2545 405.32C65.1596 406.039 64.5091 406.543 63.8004 406.447C63.0802 406.365 62.5942 405.691 62.6891 404.972C62.7394 404.587 62.7936 404.204 62.8536 403.819C63.0163 402.756 63.2138 401.684 63.4422 400.633C63.5874 399.949 64.2322 399.509 64.904 399.615Z" fill="#91B3FA"/>
<path d="M149.148 373.691C149.402 373.73 149.648 373.848 149.847 374.042C150.353 374.535 150.856 375.05 151.346 375.569C151.84 376.093 151.82 376.926 151.303 377.427C150.786 377.928 149.967 377.91 149.472 377.384C149.007 376.891 148.529 376.402 148.049 375.934C147.534 375.431 147.518 374.598 148.016 374.076C148.322 373.756 148.748 373.626 149.148 373.691Z" fill="#91B3FA"/>
</g>
<path d="M145.112 388.474C144.982 388.248 144.724 388.13 144.471 388.183L137.249 389.653C134.879 387.123 132.095 384.958 128.964 383.282L128.401 375.836C128.381 375.575 128.199 375.355 127.949 375.288L119.401 373.023C119.151 372.956 118.888 373.058 118.745 373.276L114.665 379.493C111.126 379.403 107.655 379.91 104.367 380.941L98.7753 376.077C98.5798 375.906 98.299 375.881 98.0763 376.015L90.4537 380.546C90.231 380.678 90.1148 380.939 90.1671 381.196L91.6154 388.523C89.1216 390.927 86.9879 393.752 85.3364 396.928L77.9964 397.5C77.7389 397.52 77.522 397.704 77.4581 397.958L75.2258 406.63C75.1599 406.883 75.2606 407.15 75.4755 407.296L81.6035 411.435C81.5144 415.025 82.0139 418.547 83.0304 421.883L78.2365 427.555C78.068 427.754 78.0429 428.039 78.1745 428.265L82.6413 435.998C82.771 436.224 83.0285 436.342 83.2821 436.289L90.504 434.819C92.8739 437.349 95.6581 439.514 98.7889 441.19L99.3523 448.636C99.3716 448.897 99.5536 449.117 99.8034 449.184L108.352 451.449C108.601 451.516 108.865 451.414 109.008 451.196L113.087 444.979C116.627 445.069 120.098 444.562 123.386 443.531L128.978 448.395C129.173 448.565 129.454 448.591 129.676 448.457L137.299 443.926C137.522 443.794 137.638 443.533 137.586 443.276L136.137 435.949C138.631 433.545 140.765 430.72 142.416 427.544L149.756 426.972C150.014 426.952 150.231 426.768 150.295 426.514L152.527 417.842C152.593 417.589 152.492 417.321 152.277 417.176L146.149 413.037C146.238 409.447 145.739 405.925 144.722 402.589L149.516 396.916C149.685 396.718 149.71 396.433 149.578 396.207L145.112 388.474Z" fill="#91B3FA"/>
<path d="M115.244 403.334C119.521 404.009 122.79 407.791 122.753 412.311C122.712 417.278 118.696 421.287 113.8 421.248C111.428 421.228 109.205 420.274 107.542 418.557C105.879 416.842 104.973 414.571 104.992 412.165C105.033 407.198 109.049 403.188 113.945 403.228C114.387 403.23 114.82 403.267 115.244 403.334ZM112.811 419.062C113.142 419.115 113.477 419.142 113.817 419.144C117.572 419.176 120.652 416.102 120.683 412.293C120.714 408.484 117.686 405.357 113.93 405.328C110.175 405.296 107.095 408.37 107.064 412.179C107.049 414.025 107.744 415.766 109.02 417.08C110.055 418.15 111.376 418.834 112.811 419.062Z" fill="#BDD0FB"/>
<path d="M117.039 390.446C117.773 390.562 118.507 390.717 119.237 390.91C119.467 390.971 119.696 391.035 119.922 391.104C121.043 391.44 122.137 391.868 123.186 392.377C123.2 392.385 123.216 392.391 123.229 392.399C123.27 392.418 123.31 392.438 123.351 392.46C123.43 392.499 123.508 392.538 123.585 392.577C123.791 392.684 123.897 392.907 123.864 393.127C123.856 393.18 123.839 393.234 123.814 393.285C123.684 393.544 123.372 393.646 123.119 393.516C121.804 392.843 120.41 392.308 118.975 391.929C111.844 390.038 104.593 392.159 99.5517 396.903C96.7482 399.541 94.6281 402.992 93.5922 407.017C93.4102 407.722 93.265 408.433 93.1566 409.144C92.4228 413.929 93.325 418.783 95.7704 423.018C98.5798 427.882 103.087 431.345 108.462 432.769C119.566 435.709 130.947 428.94 133.845 417.681C134.023 416.988 134.166 416.286 134.275 415.581C134.743 412.529 134.548 409.407 133.692 406.439C133.671 406.363 133.665 406.284 133.677 406.212C133.706 406.017 133.843 405.846 134.043 405.787C134.317 405.707 134.606 405.864 134.685 406.145C135.584 409.26 135.789 412.539 135.297 415.742C135.185 416.481 135.034 417.217 134.846 417.946C131.804 429.767 119.847 436.87 108.199 433.784C102.555 432.289 97.8227 428.653 94.874 423.546C92.3066 419.101 91.3598 414.004 92.1285 408.981C92.2427 408.235 92.3957 407.49 92.5854 406.75C94.0588 401.024 97.6427 396.223 102.677 393.232C107.062 390.625 112.086 389.664 117.039 390.446Z" fill="#BDD0FB"/>
<g opacity="0.3">
<path d="M213.454 385.736C213.797 385.791 214.076 386.066 214.124 386.431C214.213 387.115 214.283 387.808 214.331 388.497C214.362 388.943 214.031 389.332 213.59 389.364C213.148 389.397 212.767 389.059 212.736 388.611C212.689 387.955 212.624 387.293 212.538 386.641C212.48 386.197 212.788 385.791 213.228 385.73C213.305 385.722 213.381 385.724 213.454 385.736Z" fill="#91B3FA"/>
<path d="M213.696 391.972C214.097 392.035 214.393 392.397 214.37 392.817C214.308 394.001 214.186 395.196 214.006 396.366C213.967 396.614 213.927 396.859 213.884 397.107C213.807 397.549 213.371 397.822 212.957 397.765C212.521 397.686 212.232 397.266 212.308 396.824C212.349 396.588 212.389 396.351 212.424 396.115C212.596 394.997 212.713 393.858 212.771 392.729C212.794 392.281 213.17 391.937 213.611 391.96C213.642 391.966 213.669 391.968 213.696 391.972ZM212.244 400.267C212.281 400.273 212.32 400.281 212.356 400.293C212.778 400.425 213.017 400.878 212.887 401.307C212.473 402.682 211.969 404.043 211.392 405.351C211.212 405.76 210.738 405.942 210.335 405.762C209.932 405.579 209.75 405.1 209.93 404.689C210.48 403.44 210.96 402.143 211.355 400.831C211.475 400.442 211.857 400.207 212.244 400.267ZM208.854 407.958C208.955 407.973 209.053 408.009 209.144 408.066C209.522 408.297 209.642 408.796 209.413 409.181C208.68 410.409 207.863 411.603 206.984 412.731C206.709 413.082 206.207 413.141 205.861 412.864C205.514 412.587 205.456 412.077 205.729 411.725C206.567 410.651 207.346 409.511 208.046 408.341C208.219 408.05 208.542 407.909 208.854 407.958ZM203.704 414.567C203.868 414.593 204.023 414.672 204.149 414.799C204.459 415.119 204.455 415.632 204.141 415.946C203.131 416.956 202.052 417.911 200.929 418.785C200.579 419.058 200.077 418.989 199.808 418.635C199.539 418.28 199.605 417.771 199.955 417.498C201.024 416.665 202.054 415.756 203.018 414.793C203.206 414.605 203.462 414.53 203.704 414.567ZM197.117 419.702C197.345 419.737 197.556 419.875 197.684 420.093C197.909 420.478 197.781 420.977 197.401 421.205C196.182 421.934 194.906 422.594 193.609 423.165C193.204 423.346 192.731 423.155 192.555 422.745C192.379 422.334 192.565 421.855 192.97 421.676C194.207 421.13 195.423 420.502 196.588 419.806C196.755 419.704 196.941 419.673 197.117 419.702ZM189.504 423.057C189.8 423.104 190.058 423.318 190.149 423.631C190.274 424.061 190.03 424.511 189.608 424.638C188.251 425.045 186.855 425.369 185.461 425.601C185.024 425.672 184.613 425.373 184.541 424.931C184.47 424.489 184.766 424.071 185.202 424C186.532 423.778 187.862 423.47 189.157 423.083C189.273 423.045 189.392 423.039 189.504 423.057ZM181.316 424.422C181.686 424.481 181.976 424.797 181.992 425.192C182.009 425.64 181.664 426.017 181.223 426.035C179.813 426.09 178.381 426.057 176.967 425.935C176.528 425.89 176.2 425.503 176.237 425.057C176.274 424.611 176.661 424.279 177.101 424.316C178.45 424.432 179.815 424.466 181.161 424.412C181.215 424.411 181.265 424.414 181.316 424.422ZM169.031 422.586C169.077 422.594 169.122 422.603 169.168 422.621C170.272 423.004 171.414 423.334 172.566 423.599C172.741 423.64 172.913 423.678 173.083 423.715C173.515 423.807 173.792 424.238 173.703 424.676C173.612 425.116 173.184 425.408 172.756 425.304C172.574 425.265 172.39 425.226 172.208 425.182C171.006 424.905 169.807 424.56 168.649 424.157C168.231 424.012 168.009 423.55 168.152 423.126C168.28 422.747 168.655 422.525 169.031 422.586Z" fill="#91B3FA"/>
</g>
<g opacity="0.3">
<path d="M184.72 356.309C185.151 356.377 185.45 356.784 185.388 357.226C185.326 357.67 184.921 357.978 184.483 357.915C183.167 357.725 181.827 357.615 180.503 357.587C180.063 357.574 179.711 357.208 179.719 356.76C179.728 356.313 180.094 355.957 180.534 355.965C181.922 355.994 183.328 356.11 184.706 356.309C184.712 356.309 184.716 356.309 184.72 356.309ZM188.727 357.142C188.757 357.146 188.784 357.151 188.813 357.159C190.158 357.525 191.494 357.976 192.786 358.501C193.196 358.668 193.396 359.139 193.229 359.556C193.064 359.972 192.598 360.172 192.189 360.007C190.956 359.507 189.682 359.074 188.398 358.727C187.972 358.611 187.719 358.167 187.833 357.733C187.939 357.328 188.329 357.079 188.727 357.142ZM176.555 356.142C176.905 356.197 177.188 356.485 177.227 356.861C177.271 357.307 176.952 357.703 176.512 357.751C175.188 357.89 173.864 358.11 172.57 358.409C172.138 358.507 171.711 358.234 171.614 357.798C171.515 357.362 171.786 356.926 172.216 356.825C173.571 356.513 174.961 356.281 176.348 356.136C176.419 356.13 176.487 356.132 176.555 356.142ZM196.309 360.233C196.399 360.247 196.488 360.279 196.573 360.324C197.793 361.007 198.983 361.773 200.11 362.6C200.468 362.864 200.548 363.37 200.288 363.734C200.029 364.095 199.529 364.178 199.171 363.914C198.097 363.125 196.96 362.394 195.798 361.744C195.411 361.528 195.272 361.033 195.485 360.642C195.653 360.335 195.986 360.182 196.309 360.233ZM168.593 357.982C168.872 358.027 169.122 358.22 169.223 358.509C169.372 358.931 169.157 359.397 168.74 359.548C167.492 360.004 166.256 360.542 165.071 361.149C164.676 361.351 164.196 361.19 163.997 360.789C163.797 360.389 163.956 359.901 164.351 359.699C165.594 359.065 166.889 358.499 168.198 358.022C168.33 357.972 168.466 357.963 168.593 357.982ZM161.298 361.707C161.513 361.74 161.712 361.862 161.842 362.058C162.086 362.431 161.987 362.934 161.619 363.184C160.512 363.932 159.439 364.755 158.432 365.627C158.095 365.918 157.592 365.879 157.306 365.539C157.019 365.199 157.058 364.686 157.393 364.396C158.448 363.478 159.573 362.616 160.732 361.832C160.905 361.716 161.108 361.677 161.298 361.707ZM155.092 367.097C155.243 367.12 155.389 367.187 155.509 367.301C155.834 367.603 155.857 368.116 155.557 368.448C154.659 369.442 153.811 370.503 153.042 371.597C152.785 371.96 152.285 372.047 151.927 371.785C151.567 371.524 151.483 371.019 151.741 370.654C152.548 369.507 153.437 368.395 154.378 367.352C154.568 367.142 154.837 367.055 155.092 367.097Z" fill="#91B3FA"/>
<path d="M202.956 365.117C203.109 365.14 203.256 365.209 203.377 365.325C203.878 365.798 204.368 366.287 204.833 366.782C205.136 367.106 205.127 367.621 204.807 367.929C204.488 368.238 203.983 368.226 203.677 367.904C203.233 367.432 202.767 366.965 202.288 366.513C201.965 366.209 201.948 365.694 202.248 365.366C202.436 365.162 202.703 365.077 202.956 365.117Z" fill="#91B3FA"/>
</g>
<path d="M200.71 375.37C200.623 375.219 200.451 375.14 200.281 375.176L195.448 376.16C193.862 374.466 192 373.019 189.903 371.897L189.525 366.914C189.512 366.739 189.392 366.592 189.223 366.548L183.502 365.032C183.335 364.987 183.159 365.056 183.062 365.201L180.332 369.361C177.964 369.3 175.641 369.64 173.442 370.33L169.699 367.075C169.567 366.961 169.379 366.943 169.23 367.032L164.129 370.065C163.979 370.153 163.902 370.328 163.937 370.501L164.907 375.403C163.238 377.012 161.811 378.902 160.705 381.029L155.793 381.412C155.621 381.426 155.476 381.548 155.433 381.719L153.939 387.523C153.894 387.692 153.962 387.873 154.105 387.969L158.206 390.739C158.146 393.141 158.481 395.498 159.16 397.73L155.952 401.527C155.84 401.66 155.822 401.851 155.91 402.002L158.899 407.178C158.986 407.329 159.158 407.408 159.329 407.372L164.161 406.388C165.747 408.081 167.61 409.529 169.707 410.651L170.084 415.634C170.098 415.809 170.218 415.956 170.386 415.999L176.108 417.516C176.274 417.561 176.45 417.492 176.547 417.347L179.277 413.187C181.645 413.247 183.968 412.908 186.168 412.218L189.911 415.473C190.042 415.587 190.23 415.605 190.379 415.516L195.481 412.483C195.63 412.395 195.707 412.22 195.673 412.047L194.703 407.144C196.371 405.536 197.798 403.646 198.904 401.519L203.816 401.136C203.988 401.122 204.134 401 204.176 400.829L205.671 395.025C205.715 394.856 205.648 394.677 205.504 394.579L201.404 391.809C201.464 389.407 201.129 387.05 200.449 384.818L203.657 381.021C203.77 380.888 203.787 380.697 203.7 380.546L200.71 375.37Z" fill="#91B3FA"/>
<path d="M180.749 385.207C182.023 385.409 183.196 386.016 184.117 386.967C185.25 388.136 185.868 389.682 185.854 391.322C185.827 394.704 183.091 397.435 179.755 397.409C176.415 397.376 173.728 394.606 173.755 391.222C173.769 389.582 174.41 388.046 175.562 386.896C176.714 385.747 178.237 385.121 179.854 385.134C180.158 385.136 180.456 385.162 180.749 385.207ZM179.118 395.732C179.331 395.765 179.548 395.783 179.769 395.785C182.222 395.804 184.236 393.795 184.255 391.306C184.265 390.1 183.812 388.963 182.977 388.104C182.143 387.244 181.029 386.767 179.841 386.755C178.652 386.745 177.531 387.205 176.683 388.051C175.835 388.898 175.364 390.028 175.354 391.234C175.337 393.498 176.975 395.394 179.118 395.732Z" fill="#BDD0FB"/>
<path d="M182.009 376.238C182.509 376.317 183.01 376.423 183.51 376.554C184.503 376.818 185.469 377.183 186.387 377.641C186.427 377.662 186.468 377.682 186.511 377.704C186.828 377.867 186.993 378.214 186.94 378.552C186.927 378.635 186.902 378.715 186.863 378.794C186.664 379.194 186.183 379.352 185.788 379.151C184.937 378.715 184.034 378.369 183.107 378.124C183.056 378.11 183.004 378.098 182.954 378.085C180.754 377.525 178.499 377.543 176.359 378.102C175.198 378.407 174.069 378.87 173.002 379.493C172.994 379.499 172.985 379.503 172.977 379.509C172.95 379.525 172.925 379.54 172.897 379.556C169.794 381.4 167.585 384.361 166.675 387.892C166.557 388.35 166.464 388.808 166.392 389.269C165.918 392.367 166.502 395.51 168.084 398.252C169.902 401.401 172.82 403.642 176.301 404.563C179.779 405.483 183.407 404.978 186.511 403.133C189.614 401.289 191.823 398.329 192.733 394.797C192.85 394.347 192.943 393.893 193.012 393.438C193.314 391.461 193.188 389.44 192.635 387.519C192.6 387.401 192.594 387.281 192.611 387.168C192.658 386.867 192.869 386.604 193.177 386.513C193.601 386.39 194.044 386.633 194.17 387.065C194.79 389.214 194.931 391.475 194.594 393.687C194.517 394.198 194.412 394.705 194.282 395.207C193.266 399.158 190.793 402.469 187.32 404.534C183.848 406.596 179.792 407.17 175.898 406.135C172.005 405.103 168.741 402.595 166.706 399.071C164.934 396.005 164.28 392.489 164.812 389.022C164.891 388.507 164.996 387.993 165.128 387.482C167.095 379.835 174.47 375.048 182.009 376.238Z" fill="#BDD0FB"/>
<defs>
<linearGradient id="paint0_linear_7_38" x1="301.746" y1="329.138" x2="143.786" y2="772.075" gradientUnits="userSpaceOnUse">
<stop stop-color="#09005D"/>
<stop offset="1" stop-color="#1A0F91"/>
</linearGradient>
<linearGradient id="paint1_linear_7_38" x1="527.246" y1="-126.903" x2="143.151" y2="394.333" gradientUnits="userSpaceOnUse">
<stop stop-color="#09005D"/>
<stop offset="1" stop-color="#1A0F91"/>
</linearGradient>
<linearGradient id="paint2_linear_7_38" x1="13.8017" y1="254.906" x2="479.118" y2="254.906" gradientUnits="userSpaceOnUse">
<stop stop-color="#FF928E"/>
<stop offset="1" stop-color="#FE7062"/>
</linearGradient>
<linearGradient id="paint3_linear_7_38" x1="343.765" y1="278.474" x2="248.525" y2="511.823" gradientUnits="userSpaceOnUse">
<stop stop-color="#09005D"/>
<stop offset="1" stop-color="#1A0F91"/>
</linearGradient>
<linearGradient id="paint4_linear_7_38" x1="322.191" y1="-133.257" x2="264.925" y2="79.0887" gradientUnits="userSpaceOnUse">
<stop stop-color="#FF928E"/>
<stop offset="1" stop-color="#FE7062"/>
</linearGradient>
<linearGradient id="paint5_linear_7_38" x1="464.523" y1="130.229" x2="368.933" y2="540.369" gradientUnits="userSpaceOnUse">
<stop stop-color="#4F52FF"/>
<stop offset="1" stop-color="#4042E2"/>
</linearGradient>
<linearGradient id="paint6_linear_7_38" x1="316.54" y1="384.408" x2="381.279" y2="420.831" gradientUnits="userSpaceOnUse">
<stop stop-color="#FEBBBA"/>
<stop offset="1" stop-color="#FF928E"/>
</linearGradient>
<linearGradient id="paint7_linear_7_38" x1="324.944" y1="421.63" x2="354.622" y2="492.431" gradientUnits="userSpaceOnUse">
<stop stop-color="#09005D"/>
<stop offset="1" stop-color="#1A0F91"/>
</linearGradient>
<linearGradient id="paint8_linear_7_38" x1="322.759" y1="393.692" x2="101.027" y2="256.872" gradientUnits="userSpaceOnUse">
<stop stop-color="#FEBBBA"/>
<stop offset="1" stop-color="#FF928E"/>
</linearGradient>
<linearGradient id="paint9_linear_7_38" x1="336.175" y1="440.181" x2="379.56" y2="503.277" gradientUnits="userSpaceOnUse">
<stop stop-color="#09005D"/>
<stop offset="1" stop-color="#1A0F91"/>
</linearGradient>
<linearGradient id="paint10_linear_7_38" x1="1044.14" y1="2337.07" x2="978.758" y2="2141.03" gradientUnits="userSpaceOnUse">
<stop stop-color="#4F52FF"/>
<stop offset="1" stop-color="#4042E2"/>
</linearGradient>
<linearGradient id="paint11_linear_7_38" x1="378.337" y1="254.916" x2="420.123" y2="302.465" gradientUnits="userSpaceOnUse">
<stop stop-color="#09005D"/>
<stop offset="1" stop-color="#1A0F91"/>
</linearGradient>
<linearGradient id="paint12_linear_7_38" x1="544.487" y1="121.358" x2="469.89" y2="249.699" gradientUnits="userSpaceOnUse">
<stop stop-color="#4F52FF"/>
<stop offset="1" stop-color="#4042E2"/>
</linearGradient>
<linearGradient id="paint13_linear_7_38" x1="429.136" y1="362.95" x2="493.175" y2="362.95" gradientUnits="userSpaceOnUse">
<stop stop-color="#FEBBBA"/>
<stop offset="1" stop-color="#FF928E"/>
</linearGradient>
<linearGradient id="paint14_linear_7_38" x1="403.072" y1="331.898" x2="404.595" y2="308.499" gradientUnits="userSpaceOnUse">
<stop stop-color="#FEBBBA"/>
<stop offset="1" stop-color="#FF928E"/>
</linearGradient>
<linearGradient id="paint15_linear_7_38" x1="393.659" y1="309.656" x2="409.319" y2="250.714" gradientUnits="userSpaceOnUse">
<stop stop-color="#FEBBBA"/>
<stop offset="1" stop-color="#FF928E"/>
</linearGradient>
<linearGradient id="paint16_linear_7_38" x1="388.232" y1="263.192" x2="412.287" y2="295.363" gradientUnits="userSpaceOnUse">
<stop stop-color="#09005D"/>
<stop offset="1" stop-color="#1A0F91"/>
</linearGradient>
<linearGradient id="paint17_linear_7_38" x1="400.621" y1="311.505" x2="416.281" y2="252.563" gradientUnits="userSpaceOnUse">
<stop stop-color="#FEBBBA"/>
<stop offset="1" stop-color="#FF928E"/>
</linearGradient>
<linearGradient id="paint18_linear_7_38" x1="426.2" y1="362.2" x2="393.101" y2="372.9" gradientUnits="userSpaceOnUse">
<stop stop-color="#09005D"/>
<stop offset="1" stop-color="#1A0F91"/>
</linearGradient>
<linearGradient id="paint19_linear_7_38" x1="339.251" y1="356.729" x2="640.617" y2="331.737" gradientUnits="userSpaceOnUse">
<stop stop-color="#09005D"/>
<stop offset="1" stop-color="#1A0F91"/>
</linearGradient>
<linearGradient id="paint20_linear_7_38" x1="366.488" y1="346.59" x2="355.485" y2="362.922" gradientUnits="userSpaceOnUse">
<stop stop-color="#4F52FF"/>
<stop offset="1" stop-color="#4042E2"/>
</linearGradient>
<linearGradient id="paint21_linear_7_38" x1="58.9193" y1="38.9805" x2="89.3118" y2="38.9805" gradientUnits="userSpaceOnUse">
<stop stop-color="#09005D"/>
<stop offset="1" stop-color="#1A0F91"/>
</linearGradient>
<linearGradient id="paint22_linear_7_38" x1="81.3953" y1="39.6124" x2="89.5587" y2="94.668" gradientUnits="userSpaceOnUse">
<stop stop-color="#FEBBBA"/>
<stop offset="1" stop-color="#FF928E"/>
</linearGradient>
<linearGradient id="paint23_linear_7_38" x1="9.99414" y1="58.9495" x2="45.8395" y2="58.9495" gradientUnits="userSpaceOnUse">
<stop stop-color="#09005D"/>
<stop offset="1" stop-color="#1A0F91"/>
</linearGradient>
<linearGradient id="paint24_linear_7_38" x1="41.4098" y1="45.5411" x2="49.5733" y2="100.597" gradientUnits="userSpaceOnUse">
<stop stop-color="#FEBBBA"/>
<stop offset="1" stop-color="#FF928E"/>
</linearGradient>
<linearGradient id="paint25_linear_7_38" x1="98.3654" y1="13.3183" x2="75.6001" y2="139.487" gradientUnits="userSpaceOnUse">
<stop stop-color="#4F52FF"/>
<stop offset="1" stop-color="#4042E2"/>
</linearGradient>
<linearGradient id="paint26_linear_7_38" x1="133.282" y1="53.2327" x2="49.562" y2="154.388" gradientUnits="userSpaceOnUse">
<stop stop-color="#4F52FF"/>
<stop offset="1" stop-color="#4042E2"/>
</linearGradient>
<linearGradient id="paint27_linear_7_38" x1="229.09" y1="65.5573" x2="242.086" y2="65.5573" gradientUnits="userSpaceOnUse">
<stop stop-color="#FEBBBA"/>
<stop offset="1" stop-color="#FF928E"/>
</linearGradient>
<linearGradient id="paint28_linear_7_38" x1="230.145" y1="86.6713" x2="245.322" y2="86.6713" gradientUnits="userSpaceOnUse">
<stop stop-color="#FEBBBA"/>
<stop offset="1" stop-color="#FF928E"/>
</linearGradient>
<linearGradient id="paint29_linear_7_38" x1="205.127" y1="64.4588" x2="226.209" y2="64.4588" gradientUnits="userSpaceOnUse">
<stop stop-color="#FEBBBA"/>
<stop offset="1" stop-color="#FF928E"/>
</linearGradient>
<linearGradient id="paint30_linear_7_38" x1="272.752" y1="107.166" x2="215.542" y2="154.029" gradientUnits="userSpaceOnUse">
<stop stop-color="#FEBBBA"/>
<stop offset="1" stop-color="#FF928E"/>
</linearGradient>
<linearGradient id="paint31_linear_7_38" x1="231.93" y1="63.1253" x2="224.206" y2="38.0137" gradientUnits="userSpaceOnUse">
<stop stop-color="#FEBBBA"/>
<stop offset="1" stop-color="#FF928E"/>
</linearGradient>
<linearGradient id="paint32_linear_7_38" x1="225.142" y1="16.9025" x2="232.334" y2="57.3413" gradientUnits="userSpaceOnUse">
<stop stop-color="#09005D"/>
<stop offset="1" stop-color="#1A0F91"/>
</linearGradient>
<linearGradient id="paint33_linear_7_38" x1="224.138" y1="65.522" x2="216.414" y2="40.4106" gradientUnits="userSpaceOnUse">
<stop stop-color="#FEBBBA"/>
<stop offset="1" stop-color="#FF928E"/>
</linearGradient>
<linearGradient id="paint34_linear_7_38" x1="260.651" y1="92.3934" x2="203.441" y2="139.256" gradientUnits="userSpaceOnUse">
<stop stop-color="#FEBBBA"/>
<stop offset="1" stop-color="#FF928E"/>
</linearGradient>
<linearGradient id="paint35_linear_7_38" x1="217.843" y1="110.277" x2="260.988" y2="124.226" gradientUnits="userSpaceOnUse">
<stop stop-color="#09005D"/>
<stop offset="1" stop-color="#1A0F91"/>
</linearGradient>
<linearGradient id="paint36_linear_7_38" x1="276.948" y1="81.6565" x2="308.406" y2="114.429" gradientUnits="userSpaceOnUse">
<stop stop-color="#09005D"/>
<stop offset="1" stop-color="#1A0F91"/>
</linearGradient>
<linearGradient id="paint37_linear_7_38" x1="108.684" y1="216.124" x2="399.943" y2="216.124" gradientUnits="userSpaceOnUse">
<stop stop-color="#4F52FF"/>
<stop offset="1" stop-color="#4042E2"/>
</linearGradient>
<linearGradient id="paint38_linear_7_38" x1="162.658" y1="288.284" x2="339.216" y2="288.284" gradientUnits="userSpaceOnUse">
<stop stop-color="#4F52FF"/>
<stop offset="1" stop-color="#4042E2"/>
</linearGradient>
<linearGradient id="paint39_linear_7_38" x1="119.215" y1="270.067" x2="145.228" y2="270.067" gradientUnits="userSpaceOnUse">
<stop stop-color="#4F52FF"/>
<stop offset="1" stop-color="#4042E2"/>
</linearGradient>
<linearGradient id="paint40_linear_7_38" x1="130.385" y1="227.038" x2="254.314" y2="227.038" gradientUnits="userSpaceOnUse">
<stop stop-color="#4F52FF"/>
<stop offset="1" stop-color="#4042E2"/>
</linearGradient>
</defs>
</svg>
